<?xml version="1.0" encoding="utf-8"?>
<!-- Generator: Adobe Illustrator 16.0.4, SVG Export Plug-In . SVG Version: 6.00 Build 0)  -->
<!DOCTYPE svg PUBLIC "-//W3C//DTD SVG 1.1//EN" "http://www.w3.org/Graphics/SVG/1.1/DTD/svg11.dtd">
<svg version="1.1" id="Layer_1" xmlns="http://www.w3.org/2000/svg" xmlns:xlink="http://www.w3.org/1999/xlink" x="0px" y="0px"
	 width="40px" height="40px" viewBox="0 0 40 40" enable-background="new 0 0 40 40" xml:space="preserve">
<circle fill="#FF4081" cx="20" cy="20" r="20"/>
<g>
	<path fill="#FFFFFF" d="M20.148,22.578c0-0.229-0.034-0.438-0.102-0.625c-0.068-0.188-0.189-0.361-0.363-0.523
		c-0.175-0.161-0.41-0.31-0.707-0.445c-0.297-0.135-0.675-0.263-1.133-0.383c-0.589-0.156-1.123-0.337-1.602-0.543
		c-0.479-0.206-0.888-0.449-1.227-0.73c-0.339-0.281-0.601-0.603-0.785-0.965c-0.185-0.362-0.277-0.777-0.277-1.246
		c0-0.458,0.096-0.88,0.289-1.266c0.192-0.385,0.463-0.717,0.812-0.996c0.349-0.278,0.768-0.496,1.258-0.652
		c0.489-0.156,1.034-0.234,1.633-0.234c0.646,0,1.223,0.094,1.73,0.281s0.936,0.439,1.285,0.754
		c0.349,0.315,0.615,0.683,0.801,1.102c0.185,0.419,0.277,0.863,0.277,1.332h-1.898c0-0.281-0.044-0.542-0.133-0.781
		c-0.089-0.239-0.223-0.446-0.402-0.621c-0.18-0.174-0.409-0.31-0.688-0.406c-0.279-0.096-0.608-0.145-0.988-0.145
		c-0.354,0-0.662,0.042-0.922,0.125c-0.261,0.083-0.477,0.197-0.648,0.34c-0.172,0.144-0.3,0.314-0.383,0.512
		c-0.083,0.198-0.125,0.412-0.125,0.641c0,0.219,0.047,0.417,0.141,0.594c0.094,0.177,0.242,0.341,0.445,0.492
		c0.203,0.151,0.465,0.292,0.785,0.422c0.32,0.13,0.709,0.258,1.168,0.383c0.594,0.156,1.117,0.344,1.57,0.562
		s0.834,0.474,1.145,0.766c0.31,0.292,0.544,0.623,0.703,0.992c0.158,0.37,0.238,0.787,0.238,1.25c0,0.475-0.097,0.902-0.289,1.285
		c-0.193,0.383-0.465,0.709-0.816,0.977c-0.352,0.269-0.776,0.475-1.273,0.617c-0.498,0.143-1.054,0.215-1.668,0.215
		c-0.365,0-0.726-0.033-1.082-0.098c-0.357-0.064-0.698-0.164-1.023-0.297c-0.326-0.133-0.629-0.298-0.91-0.496
		c-0.281-0.197-0.525-0.43-0.73-0.695c-0.206-0.266-0.367-0.562-0.484-0.891s-0.176-0.689-0.176-1.086h1.898
		c0,0.359,0.063,0.67,0.191,0.93c0.127,0.261,0.303,0.475,0.527,0.641c0.224,0.167,0.488,0.289,0.793,0.367s0.637,0.117,0.996,0.117
		c0.719,0,1.256-0.143,1.613-0.43C19.97,23.433,20.148,23.053,20.148,22.578z"/>
	<path fill="#FFFFFF" d="M23.617,14.852c0-0.292,0.092-0.534,0.277-0.727c0.185-0.192,0.449-0.289,0.793-0.289
		s0.609,0.097,0.797,0.289c0.188,0.193,0.281,0.435,0.281,0.727c0,0.287-0.094,0.525-0.281,0.715
		c-0.188,0.19-0.453,0.285-0.797,0.285s-0.608-0.095-0.793-0.285C23.709,15.376,23.617,15.138,23.617,14.852z M25.633,25.5h-1.898
		v-8.453h1.898V25.5z"/>
</g>
<path opacity="0.25" fill="#FFFFFF" d="M31,9v22H9V9H31 M32,8H8v24h24V8L32,8z"/>
<rect x="27.501" y="10.417" opacity="0.25" fill="#FFFFFF" width="2" height="2"/>
</svg>
