<?xml version="1.0" encoding="utf-8"?>
<!-- Generator: Adobe Illustrator 16.0.4, SVG Export Plug-In . SVG Version: 6.00 Build 0)  -->
<!DOCTYPE svg PUBLIC "-//W3C//DTD SVG 1.1//EN" "http://www.w3.org/Graphics/SVG/1.1/DTD/svg11.dtd">
<svg version="1.1" id="Layer_1" xmlns="http://www.w3.org/2000/svg" xmlns:xlink="http://www.w3.org/1999/xlink" x="0px" y="0px"
	 width="40px" height="40px" viewBox="0 0 40 40" enable-background="new 0 0 40 40" xml:space="preserve">
<g>
	<circle fill="#EEFF41" cx="20" cy="20" r="20"/>
	<g>
		<path fill="#4D4D4D" d="M20,34.17c-3.622,0-6.459-6.115-6.459-13.919c0-7.805,2.837-13.92,6.459-13.92
			c3.622,0,6.458,6.115,6.458,13.92C26.459,28.055,23.622,34.17,20,34.17z M20,7.644c-2.486,0-5.146,5.066-5.146,12.607
			c0,7.54,2.661,12.606,5.146,12.606c2.485,0,5.146-5.066,5.146-12.606C25.146,12.71,22.485,7.644,20,7.644z"/>
		<path fill="#4D4D4D" d="M12.709,28.914c-2.508,0-4.301-0.791-5.05-2.225c-1.675-3.213,2.433-8.555,9.354-12.165
			c3.576-1.866,7.322-2.938,10.278-2.938c2.508,0,4.301,0.791,5.05,2.225c0.845,1.62,0.271,3.804-1.617,6.15
			c-1.769,2.198-4.517,4.335-7.736,6.015C19.41,27.844,15.664,28.914,12.709,28.914z M27.291,12.899
			c-2.751,0-6.275,1.017-9.672,2.789c-6.686,3.487-9.946,8.19-8.796,10.394c0.51,0.98,1.891,1.52,3.886,1.52
			c2.75,0,6.275-1.018,9.672-2.789c3.062-1.598,5.662-3.613,7.32-5.673c1.519-1.888,2.057-3.607,1.476-4.721
			C30.666,13.439,29.285,12.899,27.291,12.899z"/>
		<path fill="#4D4D4D" d="M27.292,28.914L27.292,28.914c-2.956-0.002-6.703-1.072-10.279-2.938
			c-6.92-3.611-11.028-8.953-9.354-12.165c0.749-1.434,2.542-2.225,5.05-2.225c2.956,0,6.702,1.071,10.278,2.938
			c6.921,3.609,11.028,8.952,9.354,12.165C31.593,28.123,29.799,28.914,27.292,28.914z M12.709,12.899
			c-1.995,0-3.376,0.54-3.886,1.52c-1.149,2.204,2.111,6.905,8.796,10.394c3.396,1.771,6.921,2.787,9.672,2.789h0.001
			c1.994,0,3.374-0.539,3.885-1.52c1.149-2.203-2.11-6.906-8.796-10.394C18.985,13.916,15.46,12.899,12.709,12.899z"/>
		<circle fill="#4D4D4D" cx="31.592" cy="13.579" r="2.297"/>
		<circle fill="#4D4D4D" cx="8.408" cy="13.688" r="2.297"/>
		<circle fill="#4D4D4D" cx="19.781" cy="33.371" r="2.297"/>
		<circle fill="#4D4D4D" cx="20" cy="20.031" r="2.734"/>
	</g>
</g>
</svg>
