<?xml version="1.0" encoding="utf-8"?>
<!-- Generator: Adobe Illustrator 16.0.4, SVG Export Plug-In . SVG Version: 6.00 Build 0)  -->
<!DOCTYPE svg PUBLIC "-//W3C//DTD SVG 1.1//EN" "http://www.w3.org/Graphics/SVG/1.1/DTD/svg11.dtd">
<svg version="1.1" id="Layer_1" xmlns="http://www.w3.org/2000/svg" xmlns:xlink="http://www.w3.org/1999/xlink" x="0px" y="0px"
	 width="40px" height="40px" viewBox="0 0 40 40" enable-background="new 0 0 40 40" xml:space="preserve">
<circle fill="#18FFFF" cx="20" cy="20" r="20"/>
<path fill="#4D4D4D" d="M25.782,10H12.998L6,13.747V20.9l4.922,6.1H18v2h4v4h3v-4h4v-2.857l3-0.059V14.339L25.782,10z M30,19h-3v3
	h-2v3h-2v-3h-3v3h-1v-3h-3v3h-2v-3h-2v-3H9v-2h3v-3h2v-2h2v2h3v-2h1v2h3v-2h2v2h2v3h3V19z"/>
</svg>
