<?xml version="1.0" encoding="utf-8"?>
<!-- Generator: Adobe Illustrator 16.0.4, SVG Export Plug-In . SVG Version: 6.00 Build 0)  -->
<!DOCTYPE svg PUBLIC "-//W3C//DTD SVG 1.1//EN" "http://www.w3.org/Graphics/SVG/1.1/DTD/svg11.dtd">
<svg version="1.1" id="Layer_1" xmlns="http://www.w3.org/2000/svg" xmlns:xlink="http://www.w3.org/1999/xlink" x="0px" y="0px"
	 width="40px" height="40px" viewBox="0 0 40 40" enable-background="new 0 0 40 40" xml:space="preserve">
<circle fill="#FF5252" cx="20" cy="20" r="20"/>
<g>
	<circle fill="#FFFFFF" cx="20.17" cy="28.126" r="2.876"/>
	<g>
		<g>
			<path fill="#FFFFFF" d="M24.791,23.564c-1.232-1.234-2.874-1.914-4.621-1.914c-1.746,0-3.387,0.68-4.621,1.914l-1.229-1.227
				c1.562-1.562,3.639-2.422,5.85-2.422c2.21,0,4.287,0.86,5.849,2.422L24.791,23.564z"/>
		</g>
		<g>
			<path fill="#FFFFFF" d="M28.488,20.015c-2.219-2.218-5.174-3.44-8.318-3.44c-3.146,0-6.1,1.222-8.318,3.44l-1.229-1.227
				c2.547-2.546,5.938-3.948,9.547-3.948s6.998,1.402,9.545,3.948L28.488,20.015z"/>
		</g>
		<g>
			<path fill="#FFFFFF" d="M31.938,16.566c-3.139-3.137-7.317-4.865-11.768-4.865c-4.451,0-8.629,1.728-11.768,4.865L7.177,15.34
				c3.464-3.465,8.079-5.374,12.993-5.374s9.527,1.908,12.994,5.374L31.938,16.566z"/>
		</g>
	</g>
</g>
</svg>
