<?xml version="1.0" encoding="utf-8"?>
<!-- Generator: Adobe Illustrator 16.0.4, SVG Export Plug-In . SVG Version: 6.00 Build 0)  -->
<!DOCTYPE svg PUBLIC "-//W3C//DTD SVG 1.1//EN" "http://www.w3.org/Graphics/SVG/1.1/DTD/svg11.dtd">
<svg version="1.1" id="Layer_1" xmlns="http://www.w3.org/2000/svg" xmlns:xlink="http://www.w3.org/1999/xlink" x="0px" y="0px"
	 width="24px" height="24px" viewBox="0 0 24 24" enable-background="new 0 0 24 24" xml:space="preserve">
<g id="ic_x5F_volumeUp">
</g>
<path fill="#FFFFFF" d="M16.5,12c0-1.766-1.02-3.29-2.5-4.027v2.209l2.454,2.454C16.484,12.428,16.5,12.216,16.5,12z M19,12
	c0,0.939-0.203,1.824-0.539,2.643l1.514,1.514C20.625,14.912,21,13.502,21,12c0-4.282-2.993-7.859-7-8.77v2.063
	C16.891,6.154,19,8.83,19,12z M4.273,3L3,4.273L7.727,9H3c0-0.004,0,6,0,6h4l5,5v-6.727l4.255,4.254
	c-0.669,0.518-1.423,0.931-2.255,1.178v2.064c1.377-0.313,2.629-0.947,3.686-1.812L19.727,21L21,19.727l-9-9L4.273,3z M12,4
	L9.909,6.091L12,8.182V4z"/>
</svg>
