<?xml version="1.0" encoding="utf-8"?>
<!-- Generator: Adobe Illustrator 16.0.4, SVG Export Plug-In . SVG Version: 6.00 Build 0)  -->
<!DOCTYPE svg PUBLIC "-//W3C//DTD SVG 1.1//EN" "http://www.w3.org/Graphics/SVG/1.1/DTD/svg11.dtd">
<svg version="1.1" id="Layer_1" xmlns="http://www.w3.org/2000/svg" xmlns:xlink="http://www.w3.org/1999/xlink" x="0px" y="0px"
	 width="24px" height="24px" viewBox="0 0 24 24" enable-background="new 0 0 24 24" xml:space="preserve">
<symbol  id="ic_x5F_guide_x5F_dark_x0D_" viewBox="11.061 -34.801 24 24">
	<g>
		<path fill="#FFFFFF" d="M31.561-13.801c-0.055,0-0.107-0.006-0.156-0.025L26.061-15.9l-6,2.1l-5.637-1.897
			c-0.21-0.07-0.363-0.252-0.363-0.48v-15.122c0-0.276,0.224-0.5,0.5-0.5c0.055,0,0.107,0.006,0.157,0.025l5.343,2.074l6-2.1
			l5.637,1.897c0.211,0.073,0.363,0.252,0.363,0.481v15.121C32.061-14.023,31.838-13.801,31.561-13.801z M26.061-29.801l-6,2.107
			v11.893l6-2.107V-29.801z"/>
	</g>
	<polygon fill="none" points="35.061,-34.801 11.061,-34.801 11.061,-10.801 35.061,-10.801 	"/>
	<polygon fill="none" points="35.061,-34.801 11.061,-34.801 11.061,-10.801 35.061,-10.801 	"/>
</symbol>
<use xlink:href="#ic_x5F_guide_x5F_dark_x0D_"  width="24" height="24" id="XMLID_11_" x="11.061" y="-34.801" transform="matrix(1 0 0 -1 -11.061 -10.8008)" overflow="visible"/>
</svg>
