<?xml version="1.0" encoding="utf-8"?>
<!-- Generator: Adobe Illustrator 16.0.4, SVG Export Plug-In . SVG Version: 6.00 Build 0)  -->
<!DOCTYPE svg PUBLIC "-//W3C//DTD SVG 1.1//EN" "http://www.w3.org/Graphics/SVG/1.1/DTD/svg11.dtd">
<svg version="1.1" id="Layer_1" xmlns="http://www.w3.org/2000/svg" xmlns:xlink="http://www.w3.org/1999/xlink" x="0px" y="0px"
	 width="24px" height="24px" viewBox="0 0 24 24" enable-background="new 0 0 24 24" xml:space="preserve">
<symbol  id="ic_x5F_gesture_x0D_" viewBox="0 -24 24 24">
	<g>
		<path fill="#FF5252" d="M4.593-6.887c0.699,0.715,1.398,1.354,1.714,1.223C6.803-5.87,6.297-6.702,6.005-7.19
			c-0.251-0.418-2.862-3.886-2.862-6.312c0-1.281,0.478-2.34,1.345-2.98c0.75-0.556,1.737-0.728,2.638-0.46
			c1.069,0.314,1.949,1.396,3.062,2.767c1.211,1.49,2.832,3.438,4.078,3.438c1.63,0,1.647-1.008,1.761-1.795
			c-3.779-0.643-5.377-3.666-5.377-5.373c0-1.705,1.438-3.094,3.206-3.094c1.627,0,4.293,1.332,4.692,6.1H21v2.5h-2.468
			c-0.151,1.649-1.092,4.197-4.029,4.197c-2.25,0-4.185-1.908-4.937-2.844c-0.58-0.727-2.057-2.478-2.286-2.723
			c-0.255-0.297-0.676-0.839-1.113-0.839c-0.445,0-0.716,0.833-0.364,1.924c0.352,1.095,1.4,2.862,1.851,3.517
			c0.784,1.14,1.296,1.924,1.296,3.279C8.949-3.688,7.308-3,6.441-3C5.12-3,3.97-4.002,3.718-4.255
			C3.363-4.613,3.061-4.912,2.845-5.182L4.593-6.887z M13.884-18.553c-0.308,0-0.735,0.26-0.735,0.723
			c0,0.598,0.726,2.202,2.874,2.764C15.713-17.762,14.583-18.553,13.884-18.553z"/>
	</g>
	<polygon fill="none" points="24,-24 0,-24 0,0 24,0 	"/>
</symbol>
<use xlink:href="#ic_x5F_gesture_x0D_"  width="24" height="24" id="XMLID_54_" y="-24" transform="matrix(1 0 0 -1 0 0)" overflow="visible"/>
</svg>
