<?xml version="1.0" encoding="utf-8"?>
<!-- Generator: Adobe Illustrator 16.0.4, SVG Export Plug-In . SVG Version: 6.00 Build 0)  -->
<!DOCTYPE svg PUBLIC "-//W3C//DTD SVG 1.1//EN" "http://www.w3.org/Graphics/SVG/1.1/DTD/svg11.dtd">
<svg version="1.1" id="Layer_1" xmlns="http://www.w3.org/2000/svg" xmlns:xlink="http://www.w3.org/1999/xlink" x="0px" y="0px"
	 width="24px" height="24px" viewBox="0 0 24 24" enable-background="new 0 0 24 24" xml:space="preserve">
<symbol  id="ic_x5F_mic_x0D_" viewBox="0 -24 24 24">
	<g>
		<path fill="#231F20" d="M12-15c1.657,0,2.99,1.344,2.99,3L15-6c0,1.658-1.343,3-3,3c-1.656,0-3-1.342-3-3v-6
			C9-13.656,10.344-15,12-15z M17.298-12c0-3-2.537-5.1-5.298-5.1c-2.762,0-5.3,2.1-5.3,5.1H5c0-3.415,2.719-6.233,6-6.718V-22h2
			v3.282c3.279,0.484,6,3.303,6,6.718H17.298z"/>
	</g>
	<polygon fill="none" points="24,-24 0,-24 0,0 24,0 	"/>
</symbol>
<use xlink:href="#ic_x5F_mic_x0D_"  width="24" height="24" id="XMLID_53_" y="-24" transform="matrix(1 0 0 -1 4.882812e-04 0)" overflow="visible"/>
</svg>
