<?xml version="1.0" encoding="utf-8"?>
<!-- Generator: Adobe Illustrator 16.0.4, SVG Export Plug-In . SVG Version: 6.00 Build 0)  -->
<!DOCTYPE svg PUBLIC "-//W3C//DTD SVG 1.1//EN" "http://www.w3.org/Graphics/SVG/1.1/DTD/svg11.dtd">
<svg version="1.1" id="Layer_1" xmlns="http://www.w3.org/2000/svg" xmlns:xlink="http://www.w3.org/1999/xlink" x="0px" y="0px"
	 width="56px" height="56px" viewBox="0 0 56 56" enable-background="new 0 0 56 56" xml:space="preserve">
<g id="XMLID_45_">
	<g>
		<circle fill="#EEFF41" cx="28" cy="28" r="28"/>
		<g opacity="0.04">
			
				<linearGradient id="SVGID_1_" gradientUnits="userSpaceOnUse" x1="476" y1="-662.9995" x2="476" y2="-607" gradientTransform="matrix(1 0 0 -1 -448 -607)">
				<stop  offset="0" style="stop-color:#000000"/>
				<stop  offset="0.1375" style="stop-color:#000000;stop-opacity:0.8625"/>
				<stop  offset="1" style="stop-color:#000000;stop-opacity:0"/>
			</linearGradient>
			<path fill="url(#SVGID_1_)" d="M28,0.5c15.163,0,27.5,12.336,27.5,27.5c0,15.163-12.337,27.5-27.5,27.5
				C12.836,55.5,0.5,43.163,0.5,28C0.5,12.836,12.836,0.5,28,0.5 M28,0C12.536,0,0,12.537,0,28c0,15.464,12.536,28,28,28
				c15.465,0,28-12.536,28-28C56,12.537,43.465,0,28,0L28,0z"/>
		</g>
		<g opacity="0.1">
			
				<linearGradient id="SVGID_2_" gradientUnits="userSpaceOnUse" x1="476" y1="-662.9995" x2="476" y2="-607" gradientTransform="matrix(1 0 0 -1 -448 -607)">
				<stop  offset="0" style="stop-color:#FFFFFF;stop-opacity:0"/>
				<stop  offset="0.8625" style="stop-color:#FFFFFF;stop-opacity:0.8625"/>
				<stop  offset="1" style="stop-color:#FFFFFF"/>
			</linearGradient>
			<path fill="url(#SVGID_2_)" d="M28,0.5c15.163,0,27.5,12.336,27.5,27.5c0,15.163-12.337,27.5-27.5,27.5
				C12.836,55.5,0.5,43.163,0.5,28C0.5,12.836,12.836,0.5,28,0.5 M28,0C12.536,0,0,12.537,0,28c0,15.464,12.536,28,28,28
				c15.465,0,28-12.536,28-28C56,12.537,43.465,0,28,0L28,0z"/>
		</g>
	</g>
</g>
<g id="ic_x5F_guide_x5F_dark_x0D__2">
	<g>
		<path fill="#4D4D4D" d="M36.5,19c-0.055,0-0.107,0.006-0.156,0.025L31,21.1L25,19l-5.637,1.897C19.153,20.967,19,21.149,19,21.377
			V36.5c0,0.276,0.224,0.5,0.5,0.5c0.055,0,0.107-0.006,0.157-0.025L25,34.9l6,2.1l5.638-1.897C36.848,35.029,37,34.851,37,34.621
			V19.5C37,19.223,36.777,19,36.5,19z M31,35l-6-2.107V21l6,2.107V35z"/>
	</g>
	<polygon fill="none" points="52,52 4,52 4,4 52,4 	"/>
	<polygon fill="none" points="52,52 4,52 4,4 52,4 	"/>
</g>
</svg>
