<?xml version="1.0" encoding="utf-8"?>
<!-- Generator: Adobe Illustrator 16.0.4, SVG Export Plug-In . SVG Version: 6.00 Build 0)  -->
<!DOCTYPE svg PUBLIC "-//W3C//DTD SVG 1.1//EN" "http://www.w3.org/Graphics/SVG/1.1/DTD/svg11.dtd">
<svg version="1.1" id="Layer_1" xmlns="http://www.w3.org/2000/svg" xmlns:xlink="http://www.w3.org/1999/xlink" x="0px" y="0px"
	 width="100px" height="100px" viewBox="0 0 100 100" enable-background="new 0 0 100 100" xml:space="preserve">
<circle fill="#F1F2F2" cx="50" cy="50" r="50"/>
<g>
	<g>
		<g opacity="0.1">
			<path fill="#756000" d="M84.076,59.979c-9.967,13.858-29.283,17.016-43.144,7.048c-13.859-9.966-17.016-29.282-7.05-43.143
				l2.681,1.928c0,0,0.302,15.003,15.164,25.69s28.624,5.429,28.624,5.429L84.076,59.979z"/>
		</g>
		<g>
			<path fill="#F4DF3B" d="M82.076,57.979c-9.967,13.858-29.283,17.016-43.144,7.048c-13.859-9.966-17.016-29.282-7.05-43.143
				l2.681,1.928c0,0,0.302,15.003,15.164,25.69s28.624,5.429,28.624,5.429L82.076,57.979z"/>
		</g>
	</g>
	<path fill="#F6EC64" d="M82.102,57.94c-8.451,11.752-26.537,13.198-40.397,3.232c-13.859-9.967-18.246-27.574-9.795-39.326
		l2.681,1.928c0,0,1.367,13.519,16.23,24.207C65.682,58.67,78.352,54.93,78.352,54.93L82.102,57.94z"/>
	<path fill="#F4DF3B" d="M82.129,57.901c-6.84,9.515-23.623,9.147-37.483-0.819c-13.859-9.966-19.549-25.76-12.707-35.274
		l2.68,1.928c0,0,0.907,13.749,15.77,24.437c14.862,10.688,27.964,6.759,27.964,6.759L82.129,57.901z"/>
</g>
</svg>
