<?xml version="1.0" encoding="utf-8"?>
<!-- Generator: Adobe Illustrator 16.0.4, SVG Export Plug-In . SVG Version: 6.00 Build 0)  -->
<!DOCTYPE svg PUBLIC "-//W3C//DTD SVG 1.1//EN" "http://www.w3.org/Graphics/SVG/1.1/DTD/svg11.dtd">
<svg version="1.1" id="Layer_1" xmlns="http://www.w3.org/2000/svg" xmlns:xlink="http://www.w3.org/1999/xlink" x="0px" y="0px"
	 width="100px" height="100px" viewBox="0 0 100 100" enable-background="new 0 0 100 100" xml:space="preserve">
<circle fill="#F1F2F2" cx="50" cy="50" r="50"/>
<path fill="#FFB74D" d="M44.383,37.5c-2.583,0.942-4.717-0.536-4.741-3.286L39.54,22.719c-0.024-2.75,1.356-3.238,3.067-1.086
	l7.066,8.888c1.711,2.153,0.998,4.686-1.586,5.628L44.383,37.5z"/>
<circle fill="#FFB74D" cx="59.25" cy="56.797" r="28.667"/>
<g>
	<g opacity="0.1">
		<circle fill="#806521" cx="59.048" cy="55.238" r="26.107"/>
	</g>
	<g>
		<circle fill="#FFE4A0" cx="58.048" cy="54.238" r="26.107"/>
	</g>
</g>
<g>
	<g opacity="0.1">
		<circle fill="#807A46" cx="59.048" cy="53.022" r="23.892"/>
	</g>
	<g>
		<circle fill="#FFF9C5" cx="58.048" cy="52.022" r="23.892"/>
	</g>
</g>
<path fill="#FFB74D" d="M67.92,36.031c-2.144-1.723-2.143-4.539,0.003-6.26l10.84-8.693c2.146-1.721,3.986-0.88,4.092,1.868
	l0.799,20.881c0.105,2.748-1.562,3.587-3.706,1.864L67.92,36.031z"/>
<path fill="#FFA726" d="M72.742,37.861c-2.144-1.723-2.143-4.539,0.004-6.26l2.99-2.398c2.146-1.721,3.986-0.88,4.092,1.868
	l0.303,7.882c0.105,2.748-1.562,3.587-3.707,1.865L72.742,37.861z"/>
<g>
	<path fill="#FFCC80" d="M49.301,55.039c0,0.02-0.001,0.037-0.001,0.057c2.386-0.875,4.956-1.361,7.637-1.396
		c2.036-5.761,7.528-9.89,13.987-9.89c5.682,0,10.615,3.196,13.106,7.886c-1.278-13.226-12.421-23.564-25.981-23.564
		c-9.285,0-17.432,4.849-22.061,12.15C43.467,41.045,49.301,47.361,49.301,55.039z"/>
</g>
<path fill="#36474F" d="M57.799,53.116c0,2.9-2.352,5.253-5.253,5.253s-5.253-2.353-5.253-5.253c0-2.901,2.44-3.518,5.342-3.518
	C55.535,49.599,57.799,50.215,57.799,53.116z"/>
<g>
	<path fill="#FFB74D" d="M54.236,40.312c2.141-5.258,6.644-9.298,12.193-10.804c-2.631-0.892-5.449-1.376-8.381-1.376
		c-3.215,0-6.287,0.592-9.129,1.655C51.734,32.551,53.661,36.213,54.236,40.312z"/>
</g>
<g>
	<g>
		<g opacity="0.1">
			<ellipse fill="#808080" cx="66.704" cy="47.013" rx="3.712" ry="3.659"/>
		</g>
		<g>
			<ellipse fill="#FFFFFF" cx="65.704" cy="46.013" rx="3.712" ry="3.659"/>
		</g>
	</g>
	<ellipse fill="#262626" cx="65.704" cy="46.013" rx="2.222" ry="2.188"/>
</g>
<g>
	<g>
		<g opacity="0.1">
			<ellipse fill="#808080" cx="44.871" cy="47.013" rx="3.712" ry="3.659"/>
		</g>
		<g>
			<ellipse fill="#FFFFFF" cx="43.871" cy="46.013" rx="3.712" ry="3.659"/>
		</g>
	</g>
	<ellipse fill="#262626" cx="43.871" cy="46.013" rx="2.221" ry="2.188"/>
</g>
<polygon fill="#36474F" points="47.771,61.981 52.489,59.258 60.833,61.981 "/>
<text transform="matrix(1 0 0 1 9.416 41.5859)" fill="#00E5FF" font-family="'ComicSansMS-Bold'" font-size="9.5111">Wow</text>
</svg>
