<?xml version="1.0" encoding="utf-8"?>
<!-- Generator: Adobe Illustrator 16.0.4, SVG Export Plug-In . SVG Version: 6.00 Build 0)  -->
<!DOCTYPE svg PUBLIC "-//W3C//DTD SVG 1.1//EN" "http://www.w3.org/Graphics/SVG/1.1/DTD/svg11.dtd">
<svg version="1.1" id="Layer_1" xmlns="http://www.w3.org/2000/svg" xmlns:xlink="http://www.w3.org/1999/xlink" x="0px" y="0px"
	 width="100px" height="100px" viewBox="0 0 100 100" enable-background="new 0 0 100 100" xml:space="preserve">
<circle fill="#F1F2F2" cx="50" cy="50" r="50"/>
<g>
	<g opacity="0.1">
		<path fill="#6D0000" d="M52,21c-17.121,0-31,13.879-31,31s13.879,31,31,31s31-13.879,31-31S69.121,21,52,21z M52,60.5
			c-4.695,0-8.5-3.806-8.5-8.5s3.805-8.5,8.5-8.5c4.693,0,8.5,3.806,8.5,8.5S56.693,60.5,52,60.5z"/>
	</g>
	<g>
		<g>
			<path class="color-choice-1" fill="#EC3F7A" d="M51,20c-17.121,0-31,13.879-31,31s13.879,31,31,31s31-13.879,31-31S68.121,20,51,20z M51,59.5
				c-4.695,0-8.5-3.806-8.5-8.5s3.805-8.5,8.5-8.5c4.693,0,8.5,3.806,8.5,8.5S55.693,59.5,51,59.5z"/>
		</g>
	</g>
</g>
<g>
	<g opacity="0.1">
		<path fill="#008080" d="M52,25.666c-3.707,0-7.623-1.186-10.846,0.15c-3.342,1.386-5.258,5.045-7.775,7.563
			c-2.518,2.518-6.177,4.434-7.562,7.774c-1.336,3.223-0.15,7.14-0.15,10.846s-1.186,7.623,0.15,10.846
			c1.386,3.341,5.045,5.258,7.562,7.775s4.436,6.178,7.775,7.562c3.223,1.336,7.139,0.15,10.846,0.15
			c3.705,0,7.623,1.186,10.846-0.15c3.342-1.386,5.258-5.045,7.775-7.562s6.176-4.435,7.562-7.775
			c1.336-3.223,0.15-7.14,0.15-10.846s1.186-7.623-0.15-10.846c-1.387-3.341-5.045-5.258-7.562-7.775s-4.434-6.178-7.775-7.562
			C59.623,24.479,55.705,25.666,52,25.666z M52,65.583c-1.707,0-2.951-2.264-4.434-2.879c-1.539-0.638-4.012,0.06-5.172-1.1
			c-1.158-1.159-0.461-3.633-1.1-5.171C40.68,54.95,38.416,53.706,38.416,52s2.264-2.95,2.879-4.434
			c0.639-1.538-0.059-4.012,1.1-5.171c1.16-1.159,3.635-0.462,5.172-1.1c1.484-0.615,2.727-2.879,4.434-2.879
			c1.705,0,2.949,2.264,4.434,2.879c1.537,0.638,4.012-0.06,5.17,1.1c1.16,1.159,0.463,3.633,1.102,5.171
			c0.615,1.483,2.879,2.728,2.879,4.434s-2.264,2.95-2.879,4.435c-0.639,1.538,0.059,4.012-1.102,5.171
			c-1.158,1.158-3.633,0.461-5.17,1.099C54.949,63.319,53.705,65.583,52,65.583z"/>
	</g>
	<g>
		<g>
			<path class="color-choice-3" fill="#17FFFF" d="M51,24.666c-3.707,0-7.623-1.186-10.846,0.15c-3.342,1.386-5.258,5.045-7.775,7.563
				c-2.518,2.518-6.177,4.434-7.562,7.774c-1.336,3.223-0.15,7.14-0.15,10.846s-1.186,7.623,0.15,10.846
				c1.386,3.341,5.045,5.258,7.562,7.775s4.436,6.178,7.775,7.562c3.223,1.336,7.139,0.15,10.846,0.15
				c3.705,0,7.623,1.186,10.846-0.15c3.342-1.386,5.258-5.045,7.775-7.562s6.176-4.435,7.562-7.775
				c1.336-3.223,0.15-7.14,0.15-10.846s1.186-7.623-0.15-10.846c-1.387-3.341-5.045-5.258-7.562-7.775s-4.434-6.178-7.775-7.562
				C58.623,23.479,54.705,24.666,51,24.666z M51,64.583c-1.707,0-2.951-2.264-4.434-2.879c-1.539-0.638-4.012,0.06-5.172-1.1
				c-1.158-1.159-0.461-3.633-1.1-5.171C39.68,53.95,37.416,52.706,37.416,51s2.264-2.95,2.879-4.434
				c0.639-1.538-0.059-4.012,1.1-5.171c1.16-1.159,3.635-0.462,5.172-1.1c1.484-0.615,2.727-2.879,4.434-2.879
				c1.705,0,2.949,2.264,4.434,2.879c1.537,0.638,4.012-0.06,5.17,1.1c1.16,1.159,0.463,3.633,1.102,5.171
				c0.615,1.483,2.879,2.728,2.879,4.434s-2.264,2.95-2.879,4.435c-0.639,1.538,0.059,4.012-1.102,5.171
				c-1.158,1.158-3.633,0.461-5.17,1.099C53.949,62.319,52.705,64.583,51,64.583z"/>
		</g>
	</g>
</g>
<g>
	<g>
		<g opacity="0.1">
			
				<rect x="59.12" y="31.577" transform="matrix(-0.8841 -0.4674 0.4674 -0.8841 97.5503 93.192)" fill="#727373" width="2.428" height="5.84"/>
		</g>
		<g>
			
				<rect x="58.12" y="30.577" transform="matrix(-0.8841 -0.4674 0.4674 -0.8841 96.1336 90.8406)" class="color-choice-2" fill="#F1F2F2" width="2.428" height="5.84"/>
		</g>
	</g>
	<g>
		<g opacity="0.1">
			
				<rect x="36.286" y="61.161" transform="matrix(-0.8841 -0.4674 0.4674 -0.8841 40.703 138.2581)" fill="#727373" width="2.428" height="5.84"/>
		</g>
		<g>
			
				<rect x="35.286" y="60.161" transform="matrix(-0.8841 -0.4674 0.4674 -0.8841 39.2863 135.9067)" class="color-choice-2" fill="#F1F2F2" width="2.428" height="5.84"/>
		</g>
	</g>
	<g>
		<g opacity="0.1">
			<polygon fill="#727373" points="69.027,42.285 69.686,44.623 75.307,43.042 74.645,40.707 			"/>
		</g>
		<g>
			<polygon class="color-choice-2" fill="#F1F2F2" points="68.027,41.285 68.686,43.623 74.307,42.042 73.645,39.707 			"/>
		</g>
	</g>
	<g>
		<g opacity="0.1">
			
				<rect x="70.286" y="60.327" transform="matrix(-0.2703 -0.9628 0.9628 -0.2703 29.9303 149.1787)" fill="#727373" width="2.428" height="5.839"/>
		</g>
		<g>
			
				<rect x="69.286" y="59.327" transform="matrix(-0.2703 -0.9628 0.9628 -0.2703 29.6228 146.9457)" class="color-choice-2" fill="#F1F2F2" width="2.428" height="5.839"/>
		</g>
	</g>
	<g>
		<g opacity="0.1">
			
				<rect x="57.454" y="67.16" transform="matrix(-0.9749 -0.2228 0.2228 -0.9749 100.2472 151.47)" fill="#727373" width="2.428" height="5.84"/>
		</g>
		<g>
			
				<rect x="56.454" y="66.16" transform="matrix(-0.9749 -0.2228 0.2228 -0.9749 98.4951 149.2723)" class="color-choice-2" fill="#F1F2F2" width="2.428" height="5.84"/>
		</g>
	</g>
	<g>
		<g opacity="0.1">
			<polygon fill="#727373" points="44.33,29.449 42.232,30.672 45.172,35.718 47.266,34.492 			"/>
		</g>
		<g>
			<polygon class="color-choice-2" fill="#F1F2F2" points="43.33,28.449 41.232,29.672 44.172,34.718 46.266,33.492 			"/>
		</g>
	</g>
	<g>
		<g opacity="0.1">
			
				<rect x="73.037" y="48.161" transform="matrix(-0.8842 -0.4671 0.4671 -0.8842 116.0483 130.9268)" fill="#727373" width="2.428" height="5.84"/>
		</g>
		<g>
			
				<rect x="72.037" y="47.161" transform="matrix(-0.8842 -0.4671 0.4671 -0.8842 114.6311 128.5755)" class="color-choice-2" fill="#F1F2F2" width="2.428" height="5.84"/>
		</g>
	</g>
	<g>
		<g opacity="0.1">
			<polygon fill="#727373" points="32.826,53.952 34.471,52.165 30.176,48.21 28.535,49.997 			"/>
		</g>
		<g>
			<polygon class="color-choice-2" fill="#F1F2F2" points="31.826,52.952 33.471,51.165 29.176,47.21 27.535,48.997 			"/>
		</g>
	</g>
	<g>
		<g opacity="0.1">
			
				<rect x="31.617" y="55.829" transform="matrix(0.4432 0.8964 -0.8964 0.4432 70.9442 3.2809)" fill="#727373" width="2.428" height="5.839"/>
		</g>
		<g>
			
				<rect x="30.617" y="54.829" transform="matrix(0.4432 0.8964 -0.8964 0.4432 69.491 3.6206)" class="color-choice-2" fill="#F1F2F2" width="2.428" height="5.839"/>
		</g>
	</g>
	<g>
		<g opacity="0.1">
			
				<rect x="35.537" y="41.16" transform="matrix(-0.8842 -0.4671 0.4671 -0.8842 48.6596 100.2207)" fill="#727373" width="2.428" height="5.84"/>
		</g>
		<g>
			
				<rect x="34.537" y="40.16" transform="matrix(-0.8842 -0.4671 0.4671 -0.8842 47.2424 97.8695)" class="color-choice-2" fill="#F1F2F2" width="2.428" height="5.84"/>
		</g>
	</g>
	<g>
		<g opacity="0.1">
			
				<rect x="42.619" y="66.993" transform="matrix(-0.7399 0.6727 -0.6727 -0.7399 123.2966 92.1512)" fill="#727373" width="2.429" height="5.838"/>
		</g>
		<g>
			
				<rect x="41.619" y="65.993" transform="matrix(-0.7399 0.6727 -0.6727 -0.7399 120.884 91.084)" class="color-choice-2" fill="#F1F2F2" width="2.429" height="5.838"/>
		</g>
	</g>
	<g>
		<g opacity="0.1">
			<polygon fill="#727373" points="36.629,35.155 35.844,37.454 41.371,39.341 42.15,37.043 			"/>
		</g>
		<g>
			<polygon class="color-choice-2" fill="#F1F2F2" points="35.629,34.155 34.844,36.454 40.371,38.341 41.15,36.043 			"/>
		</g>
	</g>
	<g>
		<g opacity="0.1">
			<polygon fill="#727373" points="65.73,34.652 64.602,36.802 69.773,39.515 70.896,37.364 			"/>
		</g>
		<g>
			<polygon class="color-choice-2" fill="#F1F2F2" points="64.73,33.652 63.602,35.802 68.773,38.515 69.896,36.364 			"/>
		</g>
	</g>
	<g>
		<g opacity="0.1">
			<polygon fill="#727373" points="26.826,40.969 26.838,43.396 32.678,43.364 32.66,40.938 			"/>
		</g>
		<g>
			<polygon class="color-choice-2" fill="#F1F2F2" points="25.826,39.969 25.838,42.396 31.678,42.364 31.66,39.938 			"/>
		</g>
	</g>
	<g>
		<g opacity="0.1">
			
				<rect x="52.538" y="28.664" transform="matrix(-0.6115 -0.7913 0.7913 -0.6115 61.6278 93.4281)" fill="#727373" width="2.428" height="5.84"/>
		</g>
		<g>
			
				<rect x="51.538" y="27.664" transform="matrix(-0.6115 -0.7913 0.7913 -0.6115 60.8076 91.0254)" class="color-choice-2" fill="#F1F2F2" width="2.428" height="5.84"/>
		</g>
	</g>
	<g>
		<g opacity="0.1">
			
				<rect x="67.123" y="45.081" transform="matrix(0.3107 -0.9505 0.9505 0.3107 1.4803 98.0431)" fill="#727373" width="2.427" height="5.839"/>
		</g>
		<g>
			
				<rect x="66.123" y="44.081" transform="matrix(0.3107 -0.9505 0.9505 0.3107 1.7415 96.4033)" class="color-choice-2" fill="#F1F2F2" width="2.427" height="5.839"/>
		</g>
	</g>
	<g>
		<g opacity="0.1">
			<polygon fill="#727373" points="69.113,52.848 66.943,53.935 69.561,59.156 71.727,58.064 			"/>
		</g>
		<g>
			<polygon class="color-choice-2" fill="#F1F2F2" points="68.113,51.848 65.943,52.935 68.561,58.156 70.727,57.064 			"/>
		</g>
	</g>
	<g>
		<g opacity="0.1">
			<polygon fill="#727373" points="65.111,63.429 62.941,64.516 65.559,69.737 67.725,68.646 			"/>
		</g>
		<g>
			<polygon class="color-choice-2" fill="#F1F2F2" points="64.111,62.429 61.941,63.516 64.559,68.737 66.725,67.646 			"/>
		</g>
	</g>
	<g>
		<g opacity="0.1">
			
				<rect x="50.289" y="68.416" transform="matrix(0.8941 -0.4479 0.4479 0.8941 -26.4944 30.6201)" fill="#727373" width="2.427" height="5.841"/>
		</g>
		<g>
			
				<rect x="49.289" y="67.416" transform="matrix(0.8941 -0.4479 0.4479 0.8941 -26.1525 30.0663)" class="color-choice-2" fill="#F1F2F2" width="2.427" height="5.841"/>
		</g>
	</g>
</g>
</svg>
