<?xml version="1.0" encoding="utf-8"?>
<!-- Generator: Adobe Illustrator 16.0.4, SVG Export Plug-In . SVG Version: 6.00 Build 0)  -->
<!DOCTYPE svg PUBLIC "-//W3C//DTD SVG 1.1//EN" "http://www.w3.org/Graphics/SVG/1.1/DTD/svg11.dtd">
<svg version="1.1" id="Layer_1" xmlns="http://www.w3.org/2000/svg" xmlns:xlink="http://www.w3.org/1999/xlink" x="0px" y="0px"
	 width="100px" height="100px" viewBox="0 0 100 100" enable-background="new 0 0 100 100" xml:space="preserve">
<circle fill="#F1F2F2" cx="50" cy="50" r="50"/>
<rect x="30.202" y="24.433" fill="#E6EE9C" width="40.015" height="52.633"/>
<rect x="36.474" y="39.625" fill="#4D342E" width="5.836" height="28.905"/>
<path fill="#006064" d="M30.368,77.234c0-11.102,9.813-20.102,21.917-20.102s21.916,9,21.916,20.102"/>
<rect x="44.244" y="53.468" fill="#E2CAAB" width="14.351" height="15.742"/>
<g>
	<g opacity="0.1">
		<path fill="#806133" d="M39.842,38.725v13.707c0,5.546,4.496,10.043,10.042,10.043c5.547,0,10.042-4.497,10.042-10.043V38.725
			H39.842z"/>
	</g>
	<g>
		<path fill="#FFE0B2" d="M38.842,37.725v13.707c0,5.546,4.496,10.043,10.042,10.043c5.547,0,10.042-4.497,10.042-10.043V37.725
			H38.842z"/>
	</g>
</g>
<path fill="#006064" d="M63.327,72.417H40.733v-6.828c0,0,4.358,1.104,10.78,1.104c6.423,0,11.813-1.104,11.813-1.104V72.417z"/>
<g>
	<g opacity="0.1">
		<path d="M65.006,40.625c-0.354-6.688-6.377-12.011-13.757-12.011c-7.608,0-13.775,5.655-13.775,12.632h20.357v35.341l7.328-5.564
			L65.006,40.625z"/>
	</g>
	<g>
		<path fill="#4D342E" d="M64.006,39.625c-0.354-6.688-6.377-12.011-13.757-12.011c-7.608,0-13.775,5.655-13.775,12.632h20.357
			v35.341l7.328-5.564L64.006,39.625z"/>
	</g>
</g>
<g>
	<g opacity="0.1">
		<path fill="#001828" d="M56.881,78.487c0,0,4.207-9.906,11.807-14.385c0,0,1.9,1.492,2.985,3.121c0,0-8.143,3.8-12.893,11.129
			L56.881,78.487z"/>
	</g>
	<g>
		<path fill="#0197A7" d="M55.881,77.487c0,0,4.207-9.906,11.807-14.385c0,0,1.9,1.492,2.985,3.121c0,0-8.143,3.8-12.893,11.129
			L55.881,77.487z"/>
	</g>
</g>
<g>
	<path fill="#4D342E" d="M40.031,46.826c0,0,0.354-2.957,2.988-2.957c2.568,0,2.99,2.957,2.99,2.957"/>
</g>
<g>
	<path fill="#4D342E" d="M48.719,46.826c0,0,0.466-2.957,2.99-2.957c2.235,0,2.989,2.957,2.989,2.957"/>
</g>
<g>
	<path fill="#FFFFFF" d="M43.02,48.449c-1.473,0-2.619-1.233-2.667-1.285l-0.31-0.338l0.31-0.338
		c0.048-0.052,1.195-1.285,2.667-1.285c1.475,0,2.621,1.232,2.669,1.285l0.31,0.338l-0.31,0.338
		C45.641,47.216,44.494,48.449,43.02,48.449z"/>
	<path fill="#BCAAA3" d="M43.02,45.704c1.271,0,2.301,1.123,2.301,1.123s-1.029,1.123-2.301,1.123c-1.27,0-2.299-1.123-2.299-1.123
		S41.75,45.704,43.02,45.704 M43.02,44.704c-1.662,0-2.9,1.299-3.036,1.447l-0.619,0.676l0.619,0.676
		c0.136,0.148,1.375,1.447,3.036,1.447c1.664,0,2.902-1.299,3.038-1.447l0.619-0.676l-0.619-0.676
		C45.921,46.002,44.683,44.704,43.02,44.704L43.02,44.704z"/>
</g>
<g>
	<path fill="#FFFFFF" d="M51.743,48.449c-1.474,0-2.621-1.232-2.669-1.285l-0.31-0.338l0.31-0.338
		c0.048-0.053,1.195-1.285,2.669-1.285s2.621,1.232,2.669,1.285l0.311,0.338l-0.311,0.338
		C54.364,47.217,53.217,48.449,51.743,48.449z"/>
	<path fill="#BCAAA3" d="M51.743,45.704c1.271,0,2.301,1.123,2.301,1.123s-1.03,1.123-2.301,1.123s-2.3-1.123-2.3-1.123
		S50.473,45.704,51.743,45.704 M51.743,44.704c-1.662,0-2.901,1.298-3.037,1.447l-0.62,0.676l0.62,0.676
		c0.136,0.148,1.375,1.447,3.037,1.447s2.901-1.299,3.038-1.447l0.62-0.676L54.78,46.15C54.645,46.002,53.405,44.704,51.743,44.704
		L51.743,44.704z"/>
</g>
<ellipse fill="#4D342E" cx="43.654" cy="46.776" rx="0.863" ry="0.794"/>
<ellipse fill="#4D342E" cx="52.347" cy="46.795" rx="0.863" ry="0.795"/>
<path fill="#A1887F" d="M47.249,54.44c-1.071,0-1.964-0.603-2.202-1.411c-0.04,0.138-0.067,0.278-0.067,0.426
	c0,1.014,1.017,1.836,2.269,1.836c1.253,0,2.269-0.822,2.269-1.836c0-0.147-0.027-0.288-0.068-0.426
	C49.212,53.838,48.319,54.44,47.249,54.44z"/>
<g>
	<g opacity="0.1">
		<path fill="#550000" d="M49.413,57.691c-0.252,0.103-0.529,0.158-0.819,0.158c-0.29,0-0.566-0.056-0.818-0.158
			c-1.546,0.148-2.502,0.325-2.502,0.325s1.38,1.031,3.321,1.031c2.781,0,3.777-1.446,3.777-1.446S50.958,57.84,49.413,57.691z"/>
	</g>
	<g>
		<path fill="#D41642" d="M48.413,56.691c-0.252,0.103-0.529,0.158-0.819,0.158c-0.29,0-0.566-0.056-0.818-0.158
			c-1.546,0.148-2.502,0.325-2.502,0.325s1.38,1.031,3.321,1.031c2.781,0,3.777-1.446,3.777-1.446S49.958,56.84,48.413,56.691z"/>
	</g>
</g>
<g>
	<g opacity="0.1">
		<path fill="#7C4100" d="M26.755,20.949v61.6h48.907v-61.6H26.755z M71.217,78.065H31.202V25.433h40.015V78.065z"/>
	</g>
	<g>
		<path fill="#FBC02D" d="M25.755,19.949v61.6h48.907v-61.6H25.755z M70.217,77.065H30.202V24.433h40.015V77.065z"/>
	</g>
</g>
<g>
	<g opacity="0.1">
		<path fill="#776D00" d="M24.515,18.957v65.585h53.389V18.957H51.127H24.515z M73.05,79.769H29.368V23.73H73.05V79.769z"/>
	</g>
	<g>
		<path fill="#F6EC64" d="M23.515,17.957v65.585h53.389V17.957H50.126H23.515z M72.05,78.769H28.368V22.73H72.05V78.769z"/>
	</g>
</g>
<g>
	<g opacity="0.1">
		<path fill="#7E5900" d="M24.515,18.459v66.414h53.887V18.459H24.515z M74.68,81.328H27.738V22.17H74.68V81.328z"/>
	</g>
	<g>
		<path fill="#FDD835" d="M23.515,17.459v66.414h53.887V17.459H23.515z M73.68,80.328H26.738V21.17H73.68V80.328z"/>
	</g>
</g>
</svg>
