<?xml version="1.0" encoding="utf-8"?>
<!-- Generator: Adobe Illustrator 16.0.4, SVG Export Plug-In . SVG Version: 6.00 Build 0)  -->
<!DOCTYPE svg PUBLIC "-//W3C//DTD SVG 1.1//EN" "http://www.w3.org/Graphics/SVG/1.1/DTD/svg11.dtd">
<svg version="1.1" id="Layer_1" xmlns="http://www.w3.org/2000/svg" xmlns:xlink="http://www.w3.org/1999/xlink" x="0px" y="0px"
	 width="284px" height="282px" viewBox="0 0 284 282" enable-background="new 0 0 284 282" xml:space="preserve">
<g>
	<g opacity="0.1">
		<path fill="#787878" d="M284,142c0,77.316-62.684,140-139.997,140C66.682,282,4,219.316,4,142C4,64.678,66.682,2,144.003,2
			C221.316,2,284,64.678,284,142z"/>
	</g>
	<g>
		<path fill="#F7F7F7" d="M282,140c0,77.316-62.684,140-139.997,140C64.682,280,2,217.316,2,140C2,62.678,64.682,0,142.003,0
			C219.316,0,282,62.678,282,140z"/>
	</g>
</g>
<circle fill="#DCDCDC" cx="41.01" cy="161.438" r="4.66"/>
<circle fill="#DCDCDC" cx="57.653" cy="92.534" r="4.66"/>
<circle fill="#DCDCDC" cx="54.657" cy="60.247" r="4.66"/>
<circle fill="#DCDCDC" cx="112.908" cy="22.301" r="4.66"/>
<circle fill="#DCDCDC" cx="175.15" cy="38.944" r="4.66"/>
<circle fill="#DCDCDC" cx="221.419" cy="63.243" r="4.66"/>
<circle fill="#DCDCDC" cx="232.07" cy="102.854" r="4.66"/>
<circle fill="#DCDCDC" cx="243.721" cy="123.824" r="4.66"/>
<circle fill="#DCDCDC" cx="231.407" cy="182.074" r="4.66"/>
<circle fill="#DCDCDC" cx="220.088" cy="217.355" r="4.66"/>
<circle fill="#DCDCDC" cx="162.42" cy="229.006" r="4.66"/>
<path fill="#DCDCDC" d="M153.729,259.966c0,6.251-5.062,11.313-11.312,11.313c-6.252,0-11.318-5.062-11.318-11.313
	c0-6.253,5.066-11.315,11.318-11.315C148.663,248.65,153.729,253.713,153.729,259.966z"/>
<path fill="#DCDCDC" d="M213.749,243.859c0,6.254-5.063,11.313-11.313,11.313c-6.252,0-11.316-5.062-11.316-11.313
	c0-6.25,5.064-11.313,11.316-11.313C208.686,232.546,213.749,237.609,213.749,243.859z"/>
<path fill="#DCDCDC" d="M257.625,199.818c0,6.254-5.064,11.313-11.316,11.313c-6.25,0-11.315-5.062-11.315-11.313
	c0-6.25,5.065-11.313,11.315-11.313C252.561,188.505,257.625,193.568,257.625,199.818z"/>
<path fill="#DCDCDC" d="M273.646,139.881c0,6.251-5.064,11.314-11.314,11.314c-6.252,0-11.318-5.063-11.318-11.314
	c0-6.252,5.066-11.316,11.318-11.316C268.582,128.565,273.646,133.628,273.646,139.881z"/>
<path fill="#DCDCDC" d="M257.625,79.942c0,6.252-5.064,11.315-11.314,11.315c-6.252,0-11.315-5.063-11.315-11.315
	s5.063-11.315,11.315-11.315C252.561,68.627,257.625,73.69,257.625,79.942z"/>
<path fill="#DCDCDC" d="M213.79,36.109c0,6.252-5.063,11.315-11.313,11.315c-6.252,0-11.315-5.063-11.315-11.315
	s5.063-11.315,11.315-11.315C208.727,24.794,213.79,29.857,213.79,36.109z"/>
<path fill="#DCDCDC" d="M153.938,20.086c0,6.251-5.063,11.314-11.313,11.314c-6.252,0-11.318-5.063-11.318-11.314
	c0-6.252,5.066-11.316,11.318-11.316C148.871,8.771,153.938,13.834,153.938,20.086z"/>
<path fill="#DCDCDC" d="M93.83,36.025c0,6.252-5.065,11.315-11.315,11.315c-6.251,0-11.318-5.063-11.318-11.315
	S76.264,24.71,82.515,24.71C88.765,24.71,93.83,29.773,93.83,36.025z"/>
<path fill="#DCDCDC" d="M49.913,79.942c0,6.252-5.065,11.315-11.315,11.315c-6.251,0-11.318-5.063-11.318-11.315
	s5.066-11.315,11.318-11.315C44.848,68.627,49.913,73.69,49.913,79.942z"/>
<path fill="#DCDCDC" d="M34.058,140.047c0,6.251-5.065,11.312-11.315,11.312c-6.252,0-11.318-5.062-11.318-11.312
	c0-6.253,5.066-11.316,11.318-11.316C28.993,128.731,34.058,133.794,34.058,140.047z"/>
<path fill="#DCDCDC" d="M50.08,199.818c0,6.252-5.065,11.312-11.315,11.312c-6.252,0-11.318-5.062-11.318-11.312
	c0-6.252,5.066-11.315,11.318-11.315C45.015,188.503,50.08,193.566,50.08,199.818z"/>
<circle fill="#DCDCDC" cx="82.513" cy="243.901" r="11.316"/>
<circle fill="#DCDCDC" cx="116.985" cy="228.507" r="4.66"/>
<circle fill="#DCDCDC" cx="97.513" cy="228.507" r="4.66"/>
<circle fill="#DCDCDC" cx="73.797" cy="192.309" r="4.66"/>
<g>
	<line fill="none" stroke="#DCDCDC" stroke-width="2" stroke-miterlimit="10" x1="142.458" y1="259.886" x2="142.458" y2="175"/>
	<polyline fill="none" stroke="#DCDCDC" stroke-width="2" stroke-miterlimit="10" points="142.532,245.648 180.812,245.648 
		180.812,224.346 202.447,224.346 202.447,243.652 	"/>
	<polyline fill="none" stroke="#DCDCDC" stroke-width="2" stroke-miterlimit="10" points="246.312,199.925 186.139,199.925 
		186.139,168.343 	"/>
	<polyline fill="none" stroke="#DCDCDC" stroke-width="2" stroke-miterlimit="10" points="262.383,139.961 240.061,139.961 
		240.061,167.096 223.751,167.096 223.751,114.835 189.217,114.835 	"/>
	<polyline fill="none" stroke="#DCDCDC" stroke-width="2" stroke-miterlimit="10" points="244.721,80.884 192.461,80.884 
		192.461,109.759 	"/>
	<polyline fill="none" stroke="#DCDCDC" stroke-width="2" stroke-miterlimit="10" points="202.419,36.103 202.419,69.898 
		178.148,69.898 178.148,54.587 167.83,54.587 167.83,101.77 	"/>
	<line fill="none" stroke="#DCDCDC" stroke-width="2" stroke-miterlimit="10" x1="142.366" y1="21.967" x2="142.366" y2="109.094"/>
	<polyline fill="none" stroke="#DCDCDC" stroke-width="2" stroke-miterlimit="10" points="82.494,36.103 123.227,36.103 
		123.227,50.261 99.261,50.261 99.261,105.765 	"/>
	<polyline fill="none" stroke="#DCDCDC" stroke-width="2" stroke-miterlimit="10" points="37.349,79.552 67.307,79.552 
		67.307,51.259 84.948,51.259 84.948,111.091 	"/>
	<polyline fill="none" stroke="#DCDCDC" stroke-width="2" stroke-miterlimit="10" points="22.531,139.961 41.676,139.961 
		41.676,111.506 99.345,111.506 	"/>
	<polyline fill="none" stroke="#DCDCDC" stroke-width="2" stroke-miterlimit="10" points="38.598,199.925 61.981,199.925 
		61.981,125.486 97.348,125.486 	"/>
	<polyline fill="none" stroke="#DCDCDC" stroke-width="2" stroke-miterlimit="10" points="82.951,244.982 82.951,210.699 
		105.918,210.699 105.918,161.686 	"/>
	<line fill="none" stroke="#DCDCDC" stroke-width="2" stroke-miterlimit="10" x1="61.98" y1="161.438" x2="40.677" y2="161.438"/>
	<line fill="none" stroke="#DCDCDC" stroke-width="2" stroke-miterlimit="10" x1="61.98" y1="192.393" x2="74.961" y2="192.393"/>
	<line fill="none" stroke="#DCDCDC" stroke-width="2" stroke-miterlimit="10" x1="97.263" y1="211.033" x2="97.263" y2="229.34"/>
	
		<line fill="none" stroke="#DCDCDC" stroke-width="2" stroke-miterlimit="10" x1="142.199" y1="228.341" x2="114.239" y2="228.341"/>
	
		<line fill="none" stroke="#DCDCDC" stroke-width="2" stroke-miterlimit="10" x1="162.171" y1="244.984" x2="162.171" y2="228.675"/>
	<line fill="none" stroke="#DCDCDC" stroke-width="2" stroke-miterlimit="10" x1="221.753" y1="80.551" x2="221.753" y2="63.243"/>
	
		<line fill="none" stroke="#DCDCDC" stroke-width="2" stroke-miterlimit="10" x1="223.417" y1="123.824" x2="244.389" y2="123.824"/>
	
		<line fill="none" stroke="#DCDCDC" stroke-width="2" stroke-miterlimit="10" x1="220.088" y1="199.716" x2="220.088" y2="217.355"/>
	<line fill="none" stroke="#DCDCDC" stroke-width="2" stroke-miterlimit="10" x1="57.986" y1="79.886" x2="57.986" y2="93.866"/>
	<line fill="none" stroke="#DCDCDC" stroke-width="2" stroke-miterlimit="10" x1="67.306" y1="60.247" x2="53.991" y2="60.247"/>
	<line fill="none" stroke="#DCDCDC" stroke-width="2" stroke-miterlimit="10" x1="112.908" y1="35.949" x2="112.908" y2="21.635"/>
	<line fill="none" stroke="#DCDCDC" stroke-width="2" stroke-miterlimit="10" x1="143.197" y1="38.944" x2="176.15" y2="38.944"/>
	<line fill="none" stroke="#DCDCDC" stroke-width="2" stroke-miterlimit="10" x1="232.07" y1="167.762" x2="232.07" y2="182.406"/>
	<line fill="none" stroke="#DCDCDC" stroke-width="2" stroke-miterlimit="10" x1="231.738" y1="81.217" x2="231.738" y2="103.519"/>
</g>
<g>
	<polygon fill="#DCDCDC" points="199.822,171.137 141.903,204.574 83.986,171.137 83.986,104.259 141.903,70.82 199.822,104.259 	
		"/>
</g>
</svg>
