<?xml version="1.0" encoding="utf-8"?>
<!-- Generator: Adobe Illustrator 16.0.4, SVG Export Plug-In . SVG Version: 6.00 Build 0)  -->
<!DOCTYPE svg PUBLIC "-//W3C//DTD SVG 1.1//EN" "http://www.w3.org/Graphics/SVG/1.1/DTD/svg11.dtd">
<svg version="1.1" id="Layer_1" xmlns="http://www.w3.org/2000/svg" xmlns:xlink="http://www.w3.org/1999/xlink" x="0px" y="0px"
	 width="100px" height="100px" viewBox="0 0 100 100" enable-background="new 0 0 100 100" xml:space="preserve">
<pattern  x="-269.5" y="290.5" width="2.651" height="2.651" patternUnits="userSpaceOnUse" id="New_Pattern_Swatch_13" viewBox="0.461 -3.085 2.651 2.651" overflow="visible">
	<g>
		<polygon fill="none" points="3.112,-0.434 0.461,-0.434 0.461,-3.085 3.112,-3.085 		"/>
		<polygon fill="#FF5722" points="3.112,-0.434 0.461,-0.434 0.461,-3.085 3.112,-3.085 		"/>
		<path fill="#E64A19" d="M0.938-3.094c0,0.26-0.21,0.47-0.469,0.47S0-2.834,0-3.094c0-0.259,0.21-0.469,0.469-0.469
			S0.938-3.353,0.938-3.094z"/>
		<path fill="#E64A19" d="M2.21-1.797c0,0.26-0.21,0.47-0.469,0.47c-0.259,0-0.469-0.21-0.469-0.47c0-0.259,0.21-0.469,0.469-0.469
			C2-2.266,2.21-2.056,2.21-1.797z"/>
		<path fill="#E64A19" d="M3.562-0.469C3.562-0.21,3.353,0,3.093,0S2.624-0.21,2.624-0.469c0-0.26,0.21-0.47,0.469-0.47
			S3.562-0.729,3.562-0.469z"/>
		<path fill="#E64A19" d="M3.093-2.624c-0.259,0-0.469-0.21-0.469-0.47c0-0.259,0.21-0.469,0.469-0.469s0.469,0.21,0.469,0.469
			C3.562-2.834,3.353-2.624,3.093-2.624z"/>
		<path fill="#E64A19" d="M0.469,0C0.21,0,0-0.21,0-0.469c0-0.26,0.21-0.47,0.469-0.47s0.469,0.21,0.469,0.47
			C0.938-0.21,0.729,0,0.469,0z"/>
	</g>
</pattern>
<circle fill="#F1F2F2" cx="50" cy="50" r="50"/>
<g>
	<path fill="#FDD835" d="M69.479,58.678c8.213-8.212,12.787-22.328,2.688-32.428c-10.749-10.748-24.216-5.526-32.43,2.687
		c-10.544,10.544-9.929,17.333-5.532,23.507l-0.003,0.004c1.406,3.54,1.526,6.485,0.061,8.124l0.009,0.01l-9.381,9.381l4.101,4.101
		l9.805-9.806c1.702-1.067,4.421-0.855,7.636,0.421l0.088-0.088C52.551,68.635,59.245,68.912,69.479,58.678z"/>
	<path fill="url(#New_Pattern_Swatch_13)" d="M31.356,46.038l21.022,21.021c4.662,0.766,10.071-1.279,17.186-8.395
		c8.233-8.233,12.817-22.383,2.693-32.507c-10.774-10.773-24.274-5.54-32.507,2.693C32.636,35.965,30.59,41.374,31.356,46.038z"/>
</g>
<g>
	<g opacity="0.1">
		
			<rect x="31.496" y="54.503" transform="matrix(0.707 0.7072 -0.7072 0.707 56.7483 -5.2971)" fill="#7E5900" width="6.542" height="22.668"/>
	</g>
	<g>
		
			<rect x="30.496" y="53.503" transform="matrix(0.707 0.7072 -0.7072 0.707 55.7481 -4.8829)" fill="#FDD835" width="6.542" height="22.668"/>
	</g>
</g>
<g>
	<g opacity="0.1">
		<circle fill="#808080" cx="65.437" cy="46.214" r="5.11"/>
	</g>
	<g>
		<circle fill="#FFFFFF" cx="64.437" cy="45.214" r="5.11"/>
	</g>
</g>
</svg>
