<?xml version="1.0" encoding="utf-8"?>
<!-- Generator: Adobe Illustrator 16.0.4, SVG Export Plug-In . SVG Version: 6.00 Build 0)  -->
<!DOCTYPE svg PUBLIC "-//W3C//DTD SVG 1.1//EN" "http://www.w3.org/Graphics/SVG/1.1/DTD/svg11.dtd">
<svg version="1.1" id="Layer_1" xmlns="http://www.w3.org/2000/svg" xmlns:xlink="http://www.w3.org/1999/xlink" x="0px" y="0px"
	 width="100px" height="100px" viewBox="0 0 100 100" enable-background="new 0 0 100 100" xml:space="preserve">
<circle fill="#F1F2F2" cx="50" cy="50" r="50"/>
<g>
	<g opacity="0.1">
		<path d="M89.742,48.6c0,6.714-5.441,12.156-12.154,12.156H26.495c-6.712,0-12.155-5.442-12.155-12.156v-0.031
			c0-6.715,5.442-12.156,12.155-12.156h51.093c6.713,0,12.154,5.441,12.154,12.156V48.6z"/>
		<path d="M87.246,48.521c0,5.653-4.582,10.236-10.238,10.236H26.949c-5.653,0-10.236-4.583-10.236-10.236l0,0
			c0-5.653,4.583-10.236,10.236-10.236h50.059C82.664,38.285,87.246,42.868,87.246,48.521L87.246,48.521z"/>
		<path d="M34.813,57.135c0,0.414-0.335,0.75-0.748,0.75H33.19c-0.414,0-0.749-0.336-0.749-0.75V40.032
			c0-0.413,0.335-0.749,0.749-0.749h0.875c0.412,0,0.748,0.336,0.748,0.749V57.135z"/>
		<path d="M37.81,57.135c0,0.414-0.336,0.75-0.749,0.75h-0.874c-0.414,0-0.749-0.336-0.749-0.75V40.032
			c0-0.413,0.335-0.749,0.749-0.749h0.874c0.413,0,0.749,0.336,0.749,0.749V57.135z"/>
		<path d="M40.931,57.135c0,0.414-0.335,0.75-0.749,0.75h-0.874c-0.414,0-0.749-0.336-0.749-0.75V40.032
			c0-0.413,0.335-0.749,0.749-0.749h0.874c0.414,0,0.749,0.336,0.749,0.749V57.135z"/>
		<path d="M43.927,57.135c0,0.414-0.336,0.75-0.749,0.75h-0.874c-0.414,0-0.749-0.336-0.749-0.75V40.032
			c0-0.413,0.335-0.749,0.749-0.749h0.874c0.413,0,0.749,0.336,0.749,0.749V57.135z"/>
		<path d="M31.693,57.135c0,0.414-0.336,0.75-0.749,0.75H30.07c-0.414,0-0.749-0.336-0.749-0.75V40.032
			c0-0.413,0.335-0.749,0.749-0.749h0.874c0.413,0,0.749,0.336,0.749,0.749V57.135z"/>
		<path d="M28.698,57.135c0,0.414-0.336,0.75-0.749,0.75h-0.875c-0.412,0-0.749-0.336-0.749-0.75V40.032
			c0-0.413,0.337-0.749,0.749-0.749h0.875c0.413,0,0.749,0.336,0.749,0.749V57.135z"/>
		<path d="M53.166,57.135c0,0.414-0.336,0.75-0.75,0.75h-0.873c-0.414,0-0.75-0.336-0.75-0.75V40.032
			c0-0.413,0.336-0.749,0.75-0.749h0.873c0.414,0,0.75,0.336,0.75,0.749V57.135z"/>
		<path d="M56.162,57.135c0,0.414-0.336,0.75-0.75,0.75h-0.873c-0.414,0-0.75-0.336-0.75-0.75V40.032
			c0-0.413,0.336-0.749,0.75-0.749h0.873c0.414,0,0.75,0.336,0.75,0.749V57.135z"/>
		<path d="M59.156,57.135c0,0.414-0.334,0.75-0.748,0.75h-0.873c-0.414,0-0.75-0.336-0.75-0.75V40.032
			c0-0.413,0.336-0.749,0.75-0.749h0.873c0.414,0,0.748,0.336,0.748,0.749V57.135z"/>
		<path d="M62.277,57.135c0,0.414-0.334,0.75-0.75,0.75h-0.871c-0.416,0-0.75-0.336-0.75-0.75V40.032
			c0-0.413,0.334-0.749,0.75-0.749h0.871c0.416,0,0.75,0.336,0.75,0.749V57.135z"/>
		<path d="M50.045,57.135c0,0.414-0.336,0.75-0.75,0.75h-0.874c-0.413,0-0.749-0.336-0.749-0.75V40.032
			c0-0.413,0.336-0.749,0.749-0.749h0.874c0.414,0,0.75,0.336,0.75,0.749V57.135z"/>
		<path d="M47.048,57.135c0,0.414-0.335,0.75-0.749,0.75h-0.874c-0.414,0-0.749-0.336-0.749-0.75V40.032
			c0-0.413,0.335-0.749,0.749-0.749h0.874c0.414,0,0.749,0.336,0.749,0.749V57.135z"/>
		<path d="M71.391,57.135c0,0.414-0.336,0.75-0.748,0.75H69.77c-0.414,0-0.75-0.336-0.75-0.75V40.032
			c0-0.413,0.336-0.749,0.75-0.749h0.873c0.412,0,0.748,0.336,0.748,0.749V57.135z"/>
		<path d="M74.512,57.135c0,0.414-0.336,0.75-0.748,0.75h-0.875c-0.412,0-0.748-0.336-0.748-0.75V40.032
			c0-0.413,0.336-0.749,0.748-0.749h0.875c0.412,0,0.748,0.336,0.748,0.749V57.135z"/>
		<path d="M77.508,57.135c0,0.414-0.336,0.75-0.748,0.75h-0.873c-0.414,0-0.75-0.336-0.75-0.75V40.032
			c0-0.413,0.336-0.749,0.75-0.749h0.873c0.412,0,0.748,0.336,0.748,0.749V57.135z"/>
		<path d="M68.395,57.135c0,0.414-0.336,0.75-0.75,0.75h-0.873c-0.414,0-0.748-0.336-0.748-0.75V40.032
			c0-0.413,0.334-0.749,0.748-0.749h0.873c0.414,0,0.75,0.336,0.75,0.749V57.135z"/>
		<path d="M65.273,57.135c0,0.414-0.334,0.75-0.748,0.75h-0.873c-0.414,0-0.75-0.336-0.75-0.75V40.032
			c0-0.413,0.336-0.749,0.75-0.749h0.873c0.414,0,0.748,0.336,0.748,0.749V57.135z"/>
		<path d="M80.256,46.336c0,0.553-0.377,1.062-0.91,1.062h-0.123c-0.533,0-0.965-0.51-0.965-1.062V40.97
			c0-0.553,0.432-0.938,0.965-0.938h0.123c0.533,0,0.91,0.385,0.91,0.938V46.336z"/>
		<path d="M83.502,46.336c0,0.553-0.473,1.062-1.006,1.062h-0.121c-0.533,0-0.996-0.51-0.996-1.062v-2.87
			c0-0.552,0.463-0.936,0.996-0.936h0.121c0.533,0,1.006,0.384,1.006,0.936V46.336z"/>
		<path d="M86.498,49.708c0,0.552-0.434,1.061-0.967,1.061H85.41c-0.535,0-0.91-0.509-0.91-1.061v-2.872
			c0-0.551,0.375-0.936,0.91-0.936h0.121c0.533,0,0.967,0.385,0.967,0.936V49.708z"/>
		<path d="M83.502,53.203c0,0.551-0.467,1.06-1,1.06h-0.121c-0.533,0-1.002-0.509-1.002-1.06v-2.871
			c0-0.553,0.469-0.938,1.002-0.938h0.121c0.533,0,1,0.385,1,0.938V53.203z"/>
		<path d="M80.381,55.575c0,0.551-0.367,1.062-0.9,1.062h-0.121c-0.533,0-0.977-0.511-0.977-1.062v-5.367
			c0-0.554,0.443-0.938,0.977-0.938h0.121c0.533,0,0.9,0.384,0.9,0.938V55.575z"/>
		<path d="M23.454,46.336c0,0.553,0.376,1.062,0.911,1.062h0.121c0.533,0,0.965-0.51,0.965-1.062V40.97
			c0-0.553-0.433-0.938-0.965-0.938h-0.121c-0.534,0-0.911,0.385-0.911,0.938V46.336z"/>
		<path d="M20.458,46.336c0,0.553,0.471,1.062,1.005,1.062h0.121c0.533,0,0.997-0.51,0.997-1.062v-2.87
			c0-0.552-0.464-0.936-0.997-0.936h-0.121c-0.535,0-1.005,0.384-1.005,0.936V46.336z"/>
		<path d="M17.337,49.708c0,0.552,0.432,1.061,0.966,1.061h0.121c0.532,0,0.911-0.509,0.911-1.061v-2.872
			c0-0.551-0.378-0.936-0.911-0.936h-0.121c-0.534,0-0.966,0.385-0.966,0.936V49.708z"/>
		<path d="M20.333,53.203c0,0.551,0.465,1.06,1,1.06h0.12c0.533,0,1.001-0.509,1.001-1.06v-2.871c0-0.553-0.468-0.938-1.001-0.938
			h-0.12c-0.535,0-1,0.385-1,0.938V53.203z"/>
		<path d="M23.454,55.575c0,0.551,0.366,1.062,0.899,1.062h0.121c0.534,0,0.977-0.511,0.977-1.062v-5.367
			c0-0.554-0.443-0.938-0.977-0.938h-0.121c-0.533,0-0.899,0.384-0.899,0.938V55.575z"/>
		<circle cx="51.948" cy="48.584" r="7.521"/>
		<circle cx="51.948" cy="48.584" r="6.212"/>
		<circle cx="51.948" cy="48.584" r="5.181"/>
		<path d="M28.947,47.633V43.84l-0.054-0.026c0.002-0.048,0.008-0.095,0.008-0.145c0-1.268-1.027-2.294-2.295-2.294
			c-0.703,0-1.331,0.316-1.752,0.814l-3.04,2.555c-1.302,0.838-2.167,2.299-2.167,3.965c0,2.604,2.11,4.713,4.713,4.713
			c2.601,0,4.712-2.109,4.712-4.713C29.071,48.338,29.028,47.978,28.947,47.633z"/>
		<path d="M75.012,47.633V43.84l0.084-0.026c-0.002-0.048,0.008-0.095,0.008-0.145c0-1.268,1.037-2.294,2.303-2.294
			c0.705,0,1.336,0.316,1.758,0.814l3.041,2.555c1.305,0.838,2.168,2.299,2.168,3.965c0,2.604-2.109,4.713-4.711,4.713
			c-2.604,0-4.744-2.109-4.744-4.713C74.918,48.338,75.012,47.978,75.012,47.633z"/>
		<circle cx="24.328" cy="48.668" r="3.911"/>
		<path d="M24.459,72.334c-3.487,0-6.771-1.346-9.259-3.794c-2.514-2.475-3.914-5.729-3.941-9.256
			c-0.058-7.279,5.818-13.26,13.098-13.26c0.002,0,0.004,0,0.005,0c0.377,0,0.685,0.255,0.687,0.632
			c0.002,0.379-0.302,0.664-0.68,0.666c-6.525,0.053-11.789,5.39-11.738,11.915c0.026,3.159,1.28,6.114,3.532,8.33
			c2.23,2.194,5.172,3.412,8.295,3.412c0.033,0,0.065,0.013,0.098,0.013c0.001,0,0.003,0,0.005,0c0.376,0,0.683,0.288,0.687,0.665
			c0.002,0.379-0.303,0.681-0.682,0.684C24.532,72.342,24.495,72.334,24.459,72.334z"/>
		<path d="M27.011,48.668c0,1.481-1.201,2.685-2.683,2.685c-1.483,0-2.684-1.203-2.684-2.685c0-0.334,0.182-1.199-1.447-0.559
			c-0.094-0.233-0.315-0.874-0.461-1.303c2.247-0.936,3.829-1.119,4.577-1.017C26.086,46.034,27.011,47.186,27.011,48.668z"/>
		<path d="M21.649,48.439c0,0.041-0.001,0.082-0.002,0.119C21.648,48.521,21.649,48.48,21.649,48.439z"/>
		<circle cx="24.328" cy="48.668" r="1.415"/>
		<path d="M21.498,71.72c0,0,0.089,0.022,0.225,0.053c0.132,0.032,0.315,0.058,0.496,0.093c0.18,0.035,0.362,0.059,0.499,0.074
			c0.137,0.017,0.229,0.029,0.229,0.029l-0.056,0.497c0,0-0.094-0.013-0.237-0.03c-0.142-0.019-0.33-0.042-0.519-0.079
			c-0.187-0.035-0.376-0.062-0.516-0.097c-0.138-0.031-0.232-0.053-0.232-0.053L21.498,71.72z"/>
		<path d="M18.735,70.744c0,0,0.02,0.01,0.056,0.028c0.035,0.017,0.088,0.041,0.15,0.068c0.126,0.058,0.293,0.135,0.462,0.208
			c0.171,0.067,0.34,0.133,0.469,0.186c0.063,0.024,0.117,0.045,0.156,0.057c0.037,0.014,0.06,0.02,0.06,0.02l-0.167,0.473
			c0,0-0.023-0.01-0.062-0.022c-0.04-0.012-0.096-0.032-0.162-0.059c-0.134-0.054-0.311-0.123-0.488-0.192
			c-0.175-0.075-0.349-0.156-0.478-0.215c-0.065-0.031-0.12-0.055-0.158-0.072c-0.038-0.02-0.059-0.029-0.059-0.029L18.735,70.744z"
			/>
		<path d="M16.264,69.166c0,0,0.073,0.057,0.181,0.142c0.108,0.086,0.251,0.2,0.403,0.303c0.296,0.22,0.608,0.413,0.608,0.413
			l-0.269,0.421c0-0.001-0.324-0.202-0.631-0.429c-0.157-0.107-0.306-0.226-0.418-0.314c-0.113-0.088-0.188-0.147-0.188-0.147
			L16.264,69.166z"/>
		<path d="M14.212,67.074c0,0,0.222,0.291,0.468,0.563c0.118,0.143,0.245,0.274,0.341,0.373c0.095,0.101,0.158,0.167,0.158,0.167
			l-0.356,0.35c0,0-0.066-0.068-0.164-0.172c-0.1-0.104-0.231-0.241-0.354-0.387c-0.255-0.284-0.486-0.588-0.486-0.588
			L14.212,67.074z"/>
		<path d="M12.679,64.575c0,0,0.009,0.021,0.026,0.058c0.017,0.035,0.038,0.088,0.071,0.149c0.063,0.123,0.146,0.286,0.231,0.45
			c0.086,0.161,0.181,0.317,0.249,0.438c0.034,0.06,0.062,0.11,0.083,0.145c0.021,0.034,0.034,0.053,0.034,0.053l-0.426,0.262
			c0,0-0.013-0.021-0.034-0.056c-0.021-0.036-0.051-0.088-0.086-0.148c-0.07-0.127-0.169-0.29-0.259-0.458
			c-0.086-0.169-0.173-0.339-0.239-0.466c-0.034-0.063-0.056-0.118-0.074-0.155c-0.017-0.039-0.027-0.061-0.027-0.061L12.679,64.575
			z"/>
		<path d="M11.75,61.795c0,0,0.021,0.09,0.052,0.223c0.032,0.135,0.067,0.315,0.121,0.491c0.051,0.176,0.099,0.354,0.14,0.484
			c0.044,0.131,0.074,0.218,0.074,0.218l-0.474,0.158c0,0-0.031-0.09-0.076-0.227c-0.043-0.135-0.093-0.319-0.146-0.504
			c-0.056-0.183-0.092-0.369-0.126-0.508c-0.032-0.14-0.053-0.232-0.053-0.232L11.75,61.795z"/>
		<path d="M11.475,58.876c0,0-0.002,0.092-0.005,0.229c0.003,0.139,0.008,0.323,0.013,0.506c0.001,0.185,0.021,0.367,0.03,0.504
			c0.011,0.138,0.017,0.229,0.017,0.229l-0.497,0.047c0,0-0.007-0.097-0.018-0.237c-0.009-0.144-0.03-0.333-0.031-0.523
			c-0.005-0.19-0.009-0.382-0.013-0.525c0.003-0.142,0.005-0.236,0.005-0.236L11.475,58.876z"/>
		<path d="M11.856,55.97c0,0-0.022,0.089-0.056,0.224c-0.028,0.134-0.065,0.313-0.102,0.493c-0.037,0.181-0.061,0.362-0.083,0.497
			c-0.011,0.069-0.021,0.127-0.026,0.165c-0.004,0.041-0.007,0.063-0.007,0.063l-0.495-0.064c0,0,0.002-0.025,0.007-0.066
			c0.006-0.041,0.016-0.1,0.027-0.172c0.024-0.139,0.049-0.328,0.087-0.516c0.038-0.187,0.077-0.374,0.106-0.514
			c0.036-0.139,0.059-0.23,0.059-0.23L11.856,55.97z"/>
		<circle cx="79.429" cy="48.479" r="3.913"/>
		<path d="M80.201,72.131c-3.486,0.096-6.805-1.159-9.359-3.539c-2.578-2.406-4.066-5.652-4.189-9.178
			c-0.256-7.277,5.455-13.443,12.732-13.641c0.002,0,0.004,0,0.006,0c0.377-0.012,0.691,0.266,0.705,0.645s-0.283,0.688-0.664,0.701
			c-6.52,0.229-11.639,5.714-11.408,12.233c0.109,3.157,1.443,6.081,3.756,8.235c2.287,2.133,5.262,3.188,8.385,3.104
			c0.031-0.002,0.064-0.073,0.096-0.073c0.002,0,0.004,0,0.006,0c0.377,0,0.693,0.354,0.705,0.73
			c0.012,0.379-0.283,0.731-0.662,0.744C80.273,72.096,80.236,72.131,80.201,72.131z"/>
		<path d="M82.111,48.406c0.041,1.48-1.129,2.715-2.609,2.755c-1.482,0.04-2.717-1.128-2.756-2.609
			c-0.01-0.337,0.15-1.204-1.463-0.519c-0.102-0.231-0.336-0.867-0.496-1.289c2.221-0.998,3.799-1.223,4.549-1.141
			C81.115,45.8,82.072,46.924,82.111,48.406z"/>
		<path d="M76.746,48.322c0.002,0.043,0,0.082,0,0.121C76.746,48.404,76.748,48.365,76.746,48.322z"/>
		<circle cx="79.43" cy="48.478" r="1.415"/>
		<path d="M77.225,71.6c0,0,0.09,0.019,0.225,0.045c0.135,0.029,0.318,0.051,0.498,0.079c0.182,0.031,0.365,0.049,0.5,0.062
			c0.139,0.015,0.23,0.024,0.23,0.024l-0.043,0.497c0,0-0.094-0.01-0.236-0.024c-0.145-0.013-0.334-0.031-0.521-0.063
			c-0.188-0.031-0.377-0.053-0.518-0.082s-0.234-0.048-0.234-0.048L77.225,71.6z"/>
		<path d="M74.436,70.7c0,0,0.021,0.007,0.057,0.025c0.037,0.017,0.09,0.037,0.154,0.065c0.127,0.051,0.295,0.124,0.465,0.193
			c0.174,0.062,0.346,0.124,0.475,0.173c0.064,0.024,0.119,0.042,0.158,0.053c0.037,0.012,0.061,0.019,0.061,0.019l-0.154,0.476
			c0,0-0.023-0.007-0.062-0.02c-0.041-0.012-0.098-0.028-0.164-0.056c-0.135-0.049-0.312-0.114-0.492-0.18
			c-0.178-0.071-0.354-0.146-0.484-0.201c-0.066-0.027-0.121-0.05-0.16-0.067c-0.037-0.019-0.059-0.027-0.059-0.027L74.436,70.7z"/>
		<path d="M71.924,69.187c0,0,0.074,0.056,0.186,0.138c0.107,0.082,0.254,0.194,0.41,0.292c0.301,0.211,0.617,0.396,0.617,0.396
			l-0.256,0.429c0,0-0.33-0.194-0.643-0.413c-0.16-0.103-0.312-0.217-0.426-0.304c-0.115-0.085-0.193-0.142-0.193-0.142
			L71.924,69.187z"/>
		<path d="M69.814,67.149c0,0,0.23,0.289,0.484,0.555c0.121,0.137,0.25,0.267,0.35,0.363c0.098,0.098,0.162,0.162,0.162,0.162
			l-0.346,0.359c0,0-0.068-0.067-0.17-0.168c-0.102-0.102-0.238-0.235-0.363-0.378c-0.264-0.275-0.502-0.574-0.502-0.574
			L69.814,67.149z"/>
		<path d="M68.215,64.695c0,0,0.012,0.021,0.027,0.057c0.018,0.036,0.041,0.088,0.076,0.148c0.066,0.12,0.154,0.281,0.24,0.443
			c0.092,0.159,0.191,0.314,0.262,0.432c0.037,0.059,0.066,0.107,0.088,0.142c0.021,0.033,0.033,0.052,0.033,0.052l-0.416,0.273
			c0,0-0.014-0.021-0.039-0.055c-0.02-0.035-0.051-0.086-0.088-0.146c-0.074-0.124-0.178-0.284-0.271-0.45
			c-0.092-0.166-0.184-0.334-0.252-0.46c-0.035-0.062-0.059-0.116-0.078-0.153c-0.018-0.037-0.029-0.058-0.029-0.058L68.215,64.695z
			"/>
		<path d="M67.211,61.941c0,0,0.023,0.088,0.057,0.222c0.037,0.133,0.078,0.313,0.135,0.488c0.057,0.174,0.109,0.351,0.152,0.48
			c0.049,0.128,0.08,0.215,0.08,0.215l-0.469,0.171c0,0-0.033-0.089-0.082-0.225c-0.047-0.135-0.102-0.317-0.16-0.499
			c-0.061-0.18-0.102-0.367-0.139-0.506c-0.037-0.14-0.061-0.23-0.061-0.23L67.211,61.941z"/>
		<path d="M66.857,59.03c0,0,0,0.094,0,0.229c0.008,0.139,0.016,0.322,0.025,0.505c0.008,0.184,0.031,0.367,0.045,0.504
			c0.014,0.136,0.023,0.227,0.023,0.227l-0.496,0.062c0,0-0.01-0.094-0.023-0.237c-0.014-0.142-0.039-0.331-0.045-0.522
			c-0.012-0.189-0.021-0.381-0.029-0.522c0-0.144,0-0.237,0-0.237L66.857,59.03z"/>
		<path d="M67.16,56.116c0,0-0.02,0.09-0.049,0.223c-0.025,0.136-0.059,0.318-0.09,0.498c-0.033,0.181-0.051,0.363-0.07,0.499
			c-0.01,0.069-0.018,0.127-0.021,0.167c-0.004,0.038-0.006,0.062-0.006,0.062l-0.496-0.052c0,0,0.002-0.023,0.006-0.064
			c0.004-0.043,0.012-0.101,0.021-0.171c0.021-0.144,0.041-0.332,0.072-0.521c0.033-0.188,0.068-0.374,0.092-0.517
			c0.033-0.14,0.053-0.231,0.053-0.231L67.16,56.116z"/>
		<circle cx="51.917" cy="48.668" r="3.911"/>
		<path d="M52.047,72.334c-3.484,0-6.769-1.346-9.257-3.794c-2.514-2.475-3.914-5.729-3.942-9.256
			c-0.058-7.279,5.817-13.26,13.097-13.26c0.002,0,0.004,0,0.006,0c0.377,0,0.684,0.255,0.686,0.632
			c0.004,0.379-0.301,0.664-0.68,0.666c-6.522,0.053-11.789,5.39-11.735,11.915c0.025,3.159,1.279,6.114,3.531,8.33
			c2.23,2.194,5.173,3.412,8.296,3.412c0.031,0,0.064,0.013,0.098,0.013c0.002,0,0.004,0,0.006,0c0.375,0,0.682,0.288,0.686,0.665
			c0.004,0.379-0.303,0.681-0.682,0.684C52.121,72.342,52.084,72.334,52.047,72.334z"/>
		<path d="M54.602,48.668c0,1.481-1.201,2.685-2.686,2.685c-1.482,0-2.684-1.203-2.684-2.685c0-0.334,0.182-1.199-1.447-0.559
			c-0.093-0.233-0.314-0.874-0.461-1.303c2.246-0.936,3.828-1.119,4.578-1.017C53.674,46.034,54.602,47.186,54.602,48.668z"/>
		<path d="M49.24,48.439c0,0.041-0.002,0.082-0.004,0.119C49.238,48.521,49.24,48.48,49.24,48.439z"/>
		<circle cx="51.916" cy="48.668" r="1.414"/>
		<path d="M49.086,71.72c0,0,0.092,0.022,0.225,0.053c0.135,0.032,0.316,0.058,0.496,0.093s0.363,0.059,0.5,0.074
			c0.137,0.017,0.227,0.029,0.227,0.029l-0.057,0.497c0,0-0.094-0.013-0.234-0.03c-0.143-0.019-0.332-0.042-0.52-0.079
			c-0.188-0.035-0.375-0.062-0.516-0.097c-0.139-0.031-0.232-0.053-0.232-0.053L49.086,71.72z"/>
		<path d="M46.324,70.744c0,0,0.02,0.01,0.056,0.028c0.037,0.017,0.089,0.041,0.151,0.068c0.126,0.058,0.293,0.135,0.461,0.208
			c0.171,0.067,0.342,0.133,0.469,0.186c0.064,0.024,0.119,0.045,0.156,0.057c0.037,0.014,0.061,0.02,0.061,0.02l-0.168,0.473
			c0,0-0.021-0.01-0.062-0.022c-0.04-0.012-0.096-0.032-0.162-0.059c-0.133-0.054-0.311-0.123-0.488-0.192
			c-0.175-0.075-0.347-0.156-0.479-0.215c-0.065-0.031-0.12-0.055-0.157-0.072c-0.038-0.02-0.058-0.029-0.058-0.029L46.324,70.744z"
			/>
		<path d="M43.854,69.166c0,0,0.072,0.057,0.18,0.142c0.108,0.086,0.252,0.2,0.403,0.303c0.296,0.22,0.607,0.413,0.607,0.413
			l-0.268,0.421c0,0-0.325-0.202-0.631-0.429c-0.158-0.107-0.308-0.226-0.419-0.314c-0.112-0.088-0.188-0.147-0.188-0.147
			L43.854,69.166z"/>
		<path d="M41.8,67.074c0,0,0.223,0.291,0.468,0.563c0.118,0.143,0.245,0.274,0.341,0.373c0.095,0.101,0.159,0.167,0.159,0.167
			l-0.356,0.35c0,0-0.066-0.068-0.165-0.172c-0.099-0.104-0.232-0.241-0.354-0.387c-0.255-0.284-0.485-0.588-0.485-0.588
			L41.8,67.074z"/>
		<path d="M40.268,64.575c0,0,0.01,0.021,0.027,0.058c0.016,0.035,0.039,0.088,0.07,0.149c0.064,0.123,0.147,0.286,0.231,0.45
			c0.086,0.161,0.182,0.317,0.249,0.438c0.035,0.06,0.064,0.11,0.084,0.145c0.021,0.034,0.033,0.053,0.033,0.053l-0.425,0.262
			c0,0-0.013-0.021-0.034-0.056c-0.021-0.036-0.052-0.088-0.086-0.148c-0.07-0.127-0.17-0.29-0.26-0.458
			c-0.086-0.169-0.173-0.339-0.239-0.466c-0.035-0.063-0.057-0.118-0.074-0.155c-0.018-0.039-0.028-0.061-0.028-0.061L40.268,64.575
			z"/>
		<path d="M39.338,61.795c0,0,0.021,0.09,0.052,0.223c0.033,0.135,0.067,0.315,0.122,0.491c0.05,0.176,0.098,0.354,0.139,0.484
			c0.044,0.131,0.074,0.218,0.074,0.218l-0.475,0.158c0,0-0.03-0.09-0.075-0.227c-0.043-0.135-0.093-0.319-0.146-0.504
			c-0.056-0.183-0.093-0.369-0.126-0.508c-0.032-0.14-0.053-0.232-0.053-0.232L39.338,61.795z"/>
		<path d="M39.064,58.876c0,0-0.002,0.092-0.005,0.229c0.004,0.139,0.008,0.323,0.012,0.506c0.001,0.185,0.021,0.367,0.03,0.504
			c0.011,0.138,0.018,0.229,0.018,0.229l-0.497,0.047c0,0-0.008-0.097-0.019-0.237c-0.008-0.144-0.03-0.333-0.03-0.523
			c-0.005-0.19-0.009-0.382-0.013-0.525c0.004-0.142,0.005-0.236,0.005-0.236L39.064,58.876z"/>
		<path d="M39.446,55.97c0,0-0.023,0.089-0.056,0.224c-0.028,0.134-0.066,0.313-0.104,0.493c-0.036,0.181-0.06,0.362-0.083,0.497
			c-0.01,0.069-0.02,0.127-0.025,0.165c-0.006,0.041-0.008,0.063-0.008,0.063l-0.494-0.064c0,0,0.002-0.025,0.008-0.066
			c0.006-0.041,0.016-0.1,0.026-0.172c0.024-0.139,0.049-0.328,0.086-0.516c0.039-0.187,0.078-0.374,0.105-0.514
			c0.036-0.139,0.061-0.23,0.061-0.23L39.446,55.97z"/>
	</g>
	<g>
		<g>
			<path fill="#4D4D4D" d="M87.742,46.6c0,6.714-5.441,12.156-12.154,12.156H24.495c-6.712,0-12.155-5.442-12.155-12.156v-0.031
				c0-6.715,5.442-12.156,12.155-12.156h51.093c6.713,0,12.154,5.441,12.154,12.156V46.6z"/>
			<path fill="#7193A3" d="M85.246,46.521c0,5.653-4.582,10.236-10.238,10.236H24.949c-5.653,0-10.236-4.583-10.236-10.236l0,0
				c0-5.653,4.583-10.236,10.236-10.236h50.059C80.664,36.285,85.246,40.868,85.246,46.521L85.246,46.521z"/>
			<path fill="#607D8B" d="M32.813,55.135c0,0.414-0.335,0.75-0.748,0.75H31.19c-0.414,0-0.749-0.336-0.749-0.75V38.032
				c0-0.413,0.335-0.749,0.749-0.749h0.875c0.412,0,0.748,0.336,0.748,0.749V55.135z"/>
			<path fill="#607D8B" d="M35.81,55.135c0,0.414-0.336,0.75-0.749,0.75h-0.874c-0.414,0-0.749-0.336-0.749-0.75V38.032
				c0-0.413,0.335-0.749,0.749-0.749h0.874c0.413,0,0.749,0.336,0.749,0.749V55.135z"/>
			<path fill="#607D8B" d="M38.931,55.135c0,0.414-0.335,0.75-0.749,0.75h-0.874c-0.414,0-0.749-0.336-0.749-0.75V38.032
				c0-0.413,0.335-0.749,0.749-0.749h0.874c0.414,0,0.749,0.336,0.749,0.749V55.135z"/>
			<path fill="#607D8B" d="M41.927,55.135c0,0.414-0.336,0.75-0.749,0.75h-0.874c-0.414,0-0.749-0.336-0.749-0.75V38.032
				c0-0.413,0.335-0.749,0.749-0.749h0.874c0.413,0,0.749,0.336,0.749,0.749V55.135z"/>
			<path fill="#607D8B" d="M29.693,55.135c0,0.414-0.336,0.75-0.749,0.75H28.07c-0.414,0-0.749-0.336-0.749-0.75V38.032
				c0-0.413,0.335-0.749,0.749-0.749h0.874c0.413,0,0.749,0.336,0.749,0.749V55.135z"/>
			<path fill="#607D8B" d="M26.698,55.135c0,0.414-0.336,0.75-0.749,0.75h-0.875c-0.412,0-0.749-0.336-0.749-0.75V38.032
				c0-0.413,0.337-0.749,0.749-0.749h0.875c0.413,0,0.749,0.336,0.749,0.749V55.135z"/>
			<path fill="#607D8B" d="M51.166,55.135c0,0.414-0.336,0.75-0.75,0.75h-0.873c-0.414,0-0.75-0.336-0.75-0.75V38.032
				c0-0.413,0.336-0.749,0.75-0.749h0.873c0.414,0,0.75,0.336,0.75,0.749V55.135z"/>
			<path fill="#607D8B" d="M54.162,55.135c0,0.414-0.336,0.75-0.75,0.75h-0.873c-0.414,0-0.75-0.336-0.75-0.75V38.032
				c0-0.413,0.336-0.749,0.75-0.749h0.873c0.414,0,0.75,0.336,0.75,0.749V55.135z"/>
			<path fill="#607D8B" d="M57.156,55.135c0,0.414-0.334,0.75-0.748,0.75h-0.873c-0.414,0-0.75-0.336-0.75-0.75V38.032
				c0-0.413,0.336-0.749,0.75-0.749h0.873c0.414,0,0.748,0.336,0.748,0.749V55.135z"/>
			<path fill="#607D8B" d="M60.277,55.135c0,0.414-0.334,0.75-0.75,0.75h-0.871c-0.416,0-0.75-0.336-0.75-0.75V38.032
				c0-0.413,0.334-0.749,0.75-0.749h0.871c0.416,0,0.75,0.336,0.75,0.749V55.135z"/>
			<path fill="#607D8B" d="M48.044,55.135c0,0.414-0.335,0.75-0.749,0.75h-0.874c-0.413,0-0.749-0.336-0.749-0.75V38.032
				c0-0.413,0.336-0.749,0.749-0.749h0.874c0.414,0,0.749,0.336,0.749,0.749V55.135z"/>
			<path fill="#607D8B" d="M45.048,55.135c0,0.414-0.335,0.75-0.749,0.75h-0.874c-0.414,0-0.749-0.336-0.749-0.75V38.032
				c0-0.413,0.335-0.749,0.749-0.749h0.874c0.414,0,0.749,0.336,0.749,0.749V55.135z"/>
			<path fill="#607D8B" d="M69.391,55.135c0,0.414-0.336,0.75-0.748,0.75H67.77c-0.414,0-0.75-0.336-0.75-0.75V38.032
				c0-0.413,0.336-0.749,0.75-0.749h0.873c0.412,0,0.748,0.336,0.748,0.749V55.135z"/>
			<path fill="#607D8B" d="M72.512,55.135c0,0.414-0.336,0.75-0.748,0.75h-0.875c-0.412,0-0.748-0.336-0.748-0.75V38.032
				c0-0.413,0.336-0.749,0.748-0.749h0.875c0.412,0,0.748,0.336,0.748,0.749V55.135z"/>
			<path fill="#607D8B" d="M75.508,55.135c0,0.414-0.336,0.75-0.748,0.75h-0.873c-0.414,0-0.75-0.336-0.75-0.75V38.032
				c0-0.413,0.336-0.749,0.75-0.749h0.873c0.412,0,0.748,0.336,0.748,0.749V55.135z"/>
			<path fill="#607D8B" d="M66.395,55.135c0,0.414-0.336,0.75-0.75,0.75h-0.873c-0.414,0-0.748-0.336-0.748-0.75V38.032
				c0-0.413,0.334-0.749,0.748-0.749h0.873c0.414,0,0.75,0.336,0.75,0.749V55.135z"/>
			<path fill="#607D8B" d="M63.273,55.135c0,0.414-0.334,0.75-0.748,0.75h-0.873c-0.414,0-0.75-0.336-0.75-0.75V38.032
				c0-0.413,0.336-0.749,0.75-0.749h0.873c0.414,0,0.748,0.336,0.748,0.749V55.135z"/>
			<path fill="#607D8B" d="M78.256,44.336c0,0.553-0.377,1.062-0.91,1.062h-0.123c-0.533,0-0.965-0.51-0.965-1.062V38.97
				c0-0.553,0.432-0.938,0.965-0.938h0.123c0.533,0,0.91,0.385,0.91,0.938V44.336z"/>
			<path fill="#607D8B" d="M81.502,44.336c0,0.553-0.473,1.062-1.006,1.062h-0.121c-0.533,0-0.996-0.51-0.996-1.062v-2.87
				c0-0.552,0.463-0.936,0.996-0.936h0.121c0.533,0,1.006,0.384,1.006,0.936V44.336z"/>
			<path fill="#607D8B" d="M84.498,47.708c0,0.552-0.434,1.061-0.967,1.061H83.41c-0.535,0-0.91-0.509-0.91-1.061v-2.872
				c0-0.551,0.375-0.936,0.91-0.936h0.121c0.533,0,0.967,0.385,0.967,0.936V47.708z"/>
			<path fill="#607D8B" d="M81.502,51.203c0,0.551-0.467,1.06-1,1.06h-0.121c-0.533,0-1.002-0.509-1.002-1.06v-2.871
				c0-0.553,0.469-0.938,1.002-0.938h0.121c0.533,0,1,0.385,1,0.938V51.203z"/>
			<path fill="#607D8B" d="M78.381,53.575c0,0.551-0.367,1.062-0.9,1.062h-0.121c-0.533,0-0.977-0.511-0.977-1.062v-5.367
				c0-0.554,0.443-0.938,0.977-0.938h0.121c0.533,0,0.9,0.384,0.9,0.938V53.575z"/>
			<path fill="#607D8B" d="M21.454,44.336c0,0.553,0.376,1.062,0.911,1.062h0.121c0.533,0,0.965-0.51,0.965-1.062V38.97
				c0-0.553-0.433-0.938-0.965-0.938h-0.121c-0.534,0-0.911,0.385-0.911,0.938V44.336z"/>
			<path fill="#607D8B" d="M18.458,44.336c0,0.553,0.471,1.062,1.005,1.062h0.121c0.533,0,0.997-0.51,0.997-1.062v-2.87
				c0-0.552-0.464-0.936-0.997-0.936h-0.121c-0.535,0-1.005,0.384-1.005,0.936V44.336z"/>
			<path fill="#607D8B" d="M15.337,47.708c0,0.552,0.432,1.061,0.966,1.061h0.121c0.532,0,0.911-0.509,0.911-1.061v-2.872
				c0-0.551-0.378-0.936-0.911-0.936h-0.121c-0.534,0-0.966,0.385-0.966,0.936V47.708z"/>
			<path fill="#607D8B" d="M18.333,51.203c0,0.551,0.465,1.06,1,1.06h0.12c0.533,0,1.001-0.509,1.001-1.06v-2.871
				c0-0.553-0.468-0.938-1.001-0.938h-0.12c-0.535,0-1,0.385-1,0.938V51.203z"/>
			<path fill="#607D8B" d="M21.454,53.575c0,0.551,0.366,1.062,0.899,1.062h0.121c0.534,0,0.977-0.511,0.977-1.062v-5.367
				c0-0.554-0.443-0.938-0.977-0.938h-0.121c-0.533,0-0.899,0.384-0.899,0.938V53.575z"/>
			<circle fill="#7193A3" cx="49.948" cy="46.584" r="7.521"/>
			<circle fill="#4D4D4D" cx="49.948" cy="46.584" r="6.212"/>
			<circle fill="#1DE9B6" cx="49.948" cy="46.584" r="5.181"/>
			<path fill="#7193A3" d="M26.947,45.633V41.84l-0.054-0.026c0.002-0.048,0.008-0.095,0.008-0.145c0-1.268-1.027-2.294-2.295-2.294
				c-0.703,0-1.331,0.316-1.752,0.814l-3.04,2.555c-1.302,0.838-2.167,2.299-2.167,3.965c0,2.604,2.11,4.713,4.713,4.713
				c2.601,0,4.712-2.109,4.712-4.713C27.071,46.338,27.028,45.978,26.947,45.633z"/>
			<path fill="#7193A3" d="M73.012,45.633V41.84l0.084-0.026c-0.002-0.048,0.008-0.095,0.008-0.145c0-1.268,1.037-2.294,2.303-2.294
				c0.705,0,1.336,0.316,1.758,0.814l3.041,2.555c1.305,0.838,2.168,2.299,2.168,3.965c0,2.604-2.109,4.713-4.711,4.713
				c-2.604,0-4.744-2.109-4.744-4.713C72.918,46.338,73.012,45.978,73.012,45.633z"/>
			<g>
				<circle fill="#4D4D4D" cx="22.328" cy="46.668" r="3.911"/>
				<path fill="#333333" d="M22.459,70.334c-3.487,0-6.771-1.346-9.259-3.794c-2.514-2.475-3.914-5.729-3.941-9.256
					c-0.058-7.279,5.818-13.26,13.098-13.26c0.002,0,0.004,0,0.005,0c0.377,0,0.685,0.255,0.687,0.632
					c0.002,0.379-0.302,0.664-0.68,0.666c-6.525,0.053-11.789,5.39-11.738,11.915c0.026,3.159,1.28,6.114,3.532,8.33
					c2.23,2.194,5.172,3.412,8.295,3.412c0.033,0,0.065,0.013,0.098,0.013c0.001,0,0.003,0,0.005,0c0.376,0,0.683,0.288,0.687,0.665
					c0.002,0.379-0.303,0.681-0.682,0.684C22.532,70.342,22.495,70.334,22.459,70.334z"/>
				<path fill="#E6E6E6" d="M25.011,46.668c0,1.481-1.201,2.685-2.683,2.685c-1.483,0-2.684-1.203-2.684-2.685
					c0-0.334,0.182-1.199-1.447-0.559c-0.094-0.233-0.315-0.874-0.461-1.303c2.247-0.936,3.829-1.119,4.577-1.017
					C24.086,44.034,25.011,45.186,25.011,46.668z"/>
				<g opacity="0.3">
					<linearGradient id="SVGID_1_" gradientUnits="userSpaceOnUse" x1="19.647" y1="46.499" x2="19.6494" y2="46.499">
						<stop  offset="0" style="stop-color:#FFFFFF"/>
						<stop  offset="1" style="stop-color:#FFFFFF;stop-opacity:0"/>
					</linearGradient>
					<path fill="url(#SVGID_1_)" d="M19.649,46.439c0,0.041-0.001,0.082-0.002,0.119C19.648,46.521,19.649,46.48,19.649,46.439z"/>
				</g>
				<circle fill="#1DE9B6" cx="22.328" cy="46.668" r="1.415"/>
				<g>
					<g>
						<path fill="#333333" d="M19.498,69.72c0,0,0.089,0.022,0.225,0.053c0.132,0.032,0.315,0.058,0.496,0.093
							c0.18,0.035,0.362,0.059,0.499,0.074c0.137,0.017,0.229,0.029,0.229,0.029l-0.056,0.497c0,0-0.094-0.013-0.237-0.03
							c-0.142-0.019-0.33-0.042-0.519-0.079c-0.187-0.035-0.376-0.062-0.516-0.097c-0.138-0.031-0.232-0.053-0.232-0.053
							L19.498,69.72z"/>
					</g>
					<g>
						<path fill="#333333" d="M16.735,68.744c0,0,0.02,0.01,0.056,0.028c0.035,0.017,0.088,0.041,0.15,0.068
							c0.126,0.058,0.293,0.135,0.462,0.208c0.171,0.067,0.34,0.133,0.469,0.186c0.063,0.024,0.117,0.045,0.156,0.057
							c0.037,0.014,0.06,0.02,0.06,0.02l-0.167,0.473c0,0-0.023-0.01-0.062-0.022c-0.04-0.012-0.096-0.032-0.162-0.059
							c-0.134-0.054-0.311-0.123-0.488-0.192c-0.175-0.075-0.349-0.156-0.478-0.215c-0.065-0.031-0.12-0.055-0.158-0.072
							c-0.038-0.02-0.059-0.029-0.059-0.029L16.735,68.744z"/>
					</g>
					<g>
						<path fill="#333333" d="M14.264,67.166c0,0,0.073,0.057,0.181,0.142c0.108,0.086,0.251,0.2,0.403,0.303
							c0.296,0.22,0.608,0.413,0.608,0.413l-0.269,0.421c0-0.001-0.324-0.202-0.631-0.429c-0.157-0.107-0.306-0.226-0.418-0.314
							c-0.113-0.088-0.188-0.147-0.188-0.147L14.264,67.166z"/>
					</g>
					<g>
						<path fill="#333333" d="M12.212,65.074c0,0,0.222,0.291,0.468,0.563c0.118,0.143,0.245,0.274,0.341,0.373
							c0.095,0.101,0.158,0.167,0.158,0.167l-0.356,0.35c0,0-0.066-0.068-0.164-0.172c-0.1-0.104-0.231-0.241-0.354-0.387
							c-0.255-0.284-0.486-0.588-0.486-0.588L12.212,65.074z"/>
					</g>
					<g>
						<path fill="#333333" d="M10.679,62.575c0,0,0.009,0.021,0.026,0.058c0.017,0.035,0.038,0.088,0.071,0.149
							c0.063,0.123,0.146,0.286,0.231,0.45c0.086,0.161,0.181,0.317,0.249,0.438c0.034,0.06,0.062,0.11,0.083,0.145
							c0.021,0.034,0.034,0.053,0.034,0.053l-0.426,0.262c0,0-0.013-0.021-0.034-0.056c-0.021-0.036-0.051-0.088-0.086-0.148
							c-0.07-0.127-0.169-0.29-0.259-0.458c-0.086-0.169-0.173-0.339-0.239-0.466c-0.034-0.063-0.056-0.118-0.074-0.155
							c-0.017-0.039-0.027-0.061-0.027-0.061L10.679,62.575z"/>
					</g>
					<g>
						<path fill="#333333" d="M9.75,59.795c0,0,0.021,0.09,0.052,0.223c0.032,0.135,0.067,0.315,0.121,0.491
							c0.051,0.176,0.099,0.354,0.14,0.484c0.044,0.131,0.074,0.218,0.074,0.218l-0.474,0.158c0,0-0.031-0.09-0.076-0.227
							c-0.043-0.135-0.093-0.319-0.146-0.504c-0.056-0.183-0.092-0.369-0.126-0.508c-0.032-0.14-0.053-0.232-0.053-0.232
							L9.75,59.795z"/>
					</g>
					<g>
						<path fill="#333333" d="M9.475,56.876c0,0-0.002,0.092-0.005,0.229c0.003,0.139,0.008,0.323,0.013,0.506
							c0.001,0.185,0.021,0.367,0.03,0.504c0.011,0.138,0.017,0.229,0.017,0.229l-0.497,0.047c0,0-0.007-0.097-0.018-0.237
							c-0.009-0.144-0.03-0.333-0.031-0.523c-0.005-0.19-0.009-0.382-0.013-0.525c0.003-0.142,0.005-0.236,0.005-0.236L9.475,56.876
							z"/>
					</g>
					<g>
						<path fill="#333333" d="M9.856,53.97c0,0-0.022,0.089-0.056,0.224c-0.028,0.134-0.065,0.313-0.102,0.493
							c-0.037,0.181-0.061,0.362-0.083,0.497c-0.011,0.069-0.021,0.127-0.026,0.165c-0.004,0.041-0.007,0.063-0.007,0.063
							l-0.495-0.064c0,0,0.002-0.025,0.007-0.066c0.006-0.041,0.016-0.1,0.027-0.172c0.024-0.139,0.049-0.328,0.087-0.516
							c0.038-0.187,0.077-0.374,0.106-0.514c0.036-0.139,0.059-0.23,0.059-0.23L9.856,53.97z"/>
					</g>
				</g>
			</g>
			<g>
				<circle fill="#4D4D4D" cx="77.429" cy="46.479" r="3.913"/>
				<path fill="#333333" d="M78.201,70.131c-3.486,0.096-6.805-1.159-9.359-3.539c-2.578-2.406-4.066-5.652-4.189-9.178
					c-0.256-7.277,5.455-13.443,12.732-13.641c0.002,0,0.004,0,0.006,0c0.377-0.012,0.691,0.266,0.705,0.645
					s-0.283,0.688-0.664,0.701c-6.52,0.229-11.639,5.714-11.408,12.233c0.109,3.157,1.443,6.081,3.756,8.235
					c2.287,2.133,5.262,3.188,8.385,3.104c0.031-0.002,0.064-0.073,0.096-0.073c0.002,0,0.004,0,0.006,0
					c0.377,0,0.693,0.354,0.705,0.73c0.012,0.379-0.283,0.731-0.662,0.744C78.273,70.096,78.236,70.131,78.201,70.131z"/>
				<path fill="#E6E6E6" d="M80.111,46.406c0.041,1.48-1.129,2.715-2.609,2.755c-1.482,0.04-2.717-1.128-2.756-2.609
					c-0.01-0.337,0.15-1.204-1.463-0.519c-0.102-0.231-0.336-0.867-0.496-1.289c2.221-0.998,3.799-1.223,4.549-1.141
					C79.115,43.8,80.072,44.924,80.111,46.406z"/>
				<g opacity="0.3">
					
						<linearGradient id="SVGID_2_" gradientUnits="userSpaceOnUse" x1="5496.5703" y1="2682.9355" x2="5496.5742" y2="2682.9355" gradientTransform="matrix(0.9996 -0.0271 0.0271 0.9996 -5492.335 -2486.5222)">
						<stop  offset="0" style="stop-color:#FFFFFF"/>
						<stop  offset="1" style="stop-color:#FFFFFF;stop-opacity:0"/>
					</linearGradient>
					<path fill="url(#SVGID_2_)" d="M74.746,46.322c0.002,0.043,0,0.082,0,0.121C74.746,46.404,74.748,46.365,74.746,46.322z"/>
				</g>
				<circle fill="#1DE9B6" cx="77.43" cy="46.478" r="1.415"/>
				<g>
					<g>
						<path fill="#333333" d="M75.225,69.6c0,0,0.09,0.019,0.225,0.045c0.135,0.029,0.318,0.051,0.498,0.079
							c0.182,0.031,0.365,0.049,0.5,0.062c0.139,0.015,0.23,0.024,0.23,0.024l-0.043,0.497c0,0-0.094-0.01-0.236-0.024
							c-0.145-0.013-0.334-0.031-0.521-0.063c-0.188-0.031-0.377-0.053-0.518-0.082s-0.234-0.048-0.234-0.048L75.225,69.6z"/>
					</g>
					<g>
						<path fill="#333333" d="M72.436,68.7c0,0,0.021,0.007,0.057,0.025c0.037,0.017,0.09,0.037,0.154,0.065
							c0.127,0.051,0.295,0.124,0.465,0.193c0.174,0.062,0.346,0.124,0.475,0.173c0.064,0.024,0.119,0.042,0.158,0.053
							c0.037,0.012,0.061,0.019,0.061,0.019l-0.154,0.476c0,0-0.023-0.007-0.062-0.02c-0.041-0.012-0.098-0.028-0.164-0.056
							c-0.135-0.049-0.312-0.114-0.492-0.18c-0.178-0.071-0.354-0.146-0.484-0.201c-0.066-0.027-0.121-0.05-0.16-0.067
							c-0.037-0.019-0.059-0.027-0.059-0.027L72.436,68.7z"/>
					</g>
					<g>
						<path fill="#333333" d="M69.924,67.187c0,0,0.074,0.056,0.186,0.138c0.107,0.082,0.254,0.194,0.41,0.292
							c0.301,0.211,0.617,0.396,0.617,0.396l-0.256,0.429c0,0-0.33-0.194-0.643-0.413c-0.16-0.103-0.312-0.217-0.426-0.304
							c-0.115-0.085-0.193-0.142-0.193-0.142L69.924,67.187z"/>
					</g>
					<g>
						<path fill="#333333" d="M67.814,65.149c0,0,0.23,0.289,0.484,0.555c0.121,0.137,0.25,0.267,0.35,0.363
							c0.098,0.098,0.162,0.162,0.162,0.162l-0.346,0.359c0,0-0.068-0.067-0.17-0.168c-0.102-0.102-0.238-0.235-0.363-0.378
							c-0.264-0.275-0.502-0.574-0.502-0.574L67.814,65.149z"/>
					</g>
					<g>
						<path fill="#333333" d="M66.215,62.695c0,0,0.012,0.021,0.027,0.057c0.018,0.036,0.041,0.088,0.076,0.148
							c0.066,0.12,0.154,0.281,0.24,0.443c0.092,0.159,0.191,0.314,0.262,0.432c0.037,0.059,0.066,0.107,0.088,0.142
							c0.021,0.033,0.033,0.052,0.033,0.052l-0.416,0.273c0,0-0.014-0.021-0.039-0.055c-0.02-0.035-0.051-0.086-0.088-0.146
							c-0.074-0.124-0.178-0.284-0.271-0.45c-0.092-0.166-0.184-0.334-0.252-0.46c-0.035-0.062-0.059-0.116-0.078-0.153
							c-0.018-0.037-0.029-0.058-0.029-0.058L66.215,62.695z"/>
					</g>
					<g>
						<path fill="#333333" d="M65.211,59.941c0,0,0.023,0.088,0.057,0.222c0.037,0.133,0.078,0.313,0.135,0.488
							c0.057,0.174,0.109,0.351,0.152,0.48c0.049,0.128,0.08,0.215,0.08,0.215l-0.469,0.171c0,0-0.033-0.089-0.082-0.225
							c-0.047-0.135-0.102-0.317-0.16-0.499c-0.061-0.18-0.102-0.367-0.139-0.506c-0.037-0.14-0.061-0.23-0.061-0.23L65.211,59.941z
							"/>
					</g>
					<g>
						<path fill="#333333" d="M64.857,57.03c0,0,0,0.094,0,0.229c0.008,0.139,0.016,0.322,0.025,0.505
							c0.008,0.184,0.031,0.367,0.045,0.504c0.014,0.136,0.023,0.227,0.023,0.227l-0.496,0.062c0,0-0.01-0.094-0.023-0.237
							c-0.014-0.142-0.039-0.331-0.045-0.522c-0.012-0.189-0.021-0.381-0.029-0.522c0-0.144,0-0.237,0-0.237L64.857,57.03z"/>
					</g>
					<g>
						<path fill="#333333" d="M65.16,54.116c0,0-0.02,0.09-0.049,0.223c-0.025,0.136-0.059,0.318-0.09,0.498
							c-0.033,0.181-0.051,0.363-0.07,0.499c-0.01,0.069-0.018,0.127-0.021,0.167c-0.004,0.038-0.006,0.062-0.006,0.062
							l-0.496-0.052c0,0,0.002-0.023,0.006-0.064c0.004-0.043,0.012-0.101,0.021-0.171c0.021-0.144,0.041-0.332,0.072-0.521
							c0.033-0.188,0.068-0.374,0.092-0.517c0.033-0.14,0.053-0.231,0.053-0.231L65.16,54.116z"/>
					</g>
				</g>
			</g>
			<g>
				<circle fill="#4D4D4D" cx="49.917" cy="46.668" r="3.911"/>
				<path fill="#333333" d="M50.047,70.334c-3.484,0-6.769-1.346-9.257-3.794c-2.514-2.475-3.914-5.729-3.942-9.256
					c-0.058-7.279,5.817-13.26,13.097-13.26c0.002,0,0.004,0,0.006,0c0.377,0,0.684,0.255,0.686,0.632
					c0.004,0.379-0.301,0.664-0.68,0.666c-6.522,0.053-11.789,5.39-11.735,11.915c0.025,3.159,1.279,6.114,3.531,8.33
					c2.23,2.194,5.174,3.412,8.296,3.412c0.031,0,0.064,0.013,0.098,0.013c0.002,0,0.004,0,0.006,0c0.375,0,0.682,0.288,0.686,0.665
					c0.004,0.379-0.303,0.681-0.682,0.684C50.121,70.342,50.084,70.334,50.047,70.334z"/>
				<path fill="#E6E6E6" d="M52.602,46.668c0,1.481-1.201,2.685-2.686,2.685c-1.482,0-2.683-1.203-2.683-2.685
					c0-0.334,0.182-1.199-1.447-0.559c-0.093-0.233-0.314-0.874-0.461-1.303c2.246-0.936,3.828-1.119,4.578-1.017
					C51.674,44.034,52.602,45.186,52.602,46.668z"/>
				<g opacity="0.3">
					<linearGradient id="SVGID_3_" gradientUnits="userSpaceOnUse" x1="47.2358" y1="46.499" x2="47.2397" y2="46.499">
						<stop  offset="0" style="stop-color:#FFFFFF"/>
						<stop  offset="1" style="stop-color:#FFFFFF;stop-opacity:0"/>
					</linearGradient>
					<path fill="url(#SVGID_3_)" d="M47.24,46.439c0,0.041-0.001,0.082-0.004,0.119C47.239,46.521,47.24,46.48,47.24,46.439z"/>
				</g>
				<circle fill="#1DE9B6" cx="49.916" cy="46.668" r="1.414"/>
				<g>
					<g>
						<path fill="#333333" d="M47.086,69.72c0,0,0.091,0.022,0.225,0.053c0.135,0.032,0.315,0.058,0.496,0.093
							c0.18,0.035,0.363,0.059,0.5,0.074c0.137,0.017,0.226,0.029,0.226,0.029l-0.056,0.497c0,0-0.094-0.013-0.235-0.03
							c-0.142-0.019-0.331-0.042-0.519-0.079c-0.188-0.035-0.376-0.062-0.516-0.097c-0.139-0.031-0.232-0.053-0.232-0.053
							L47.086,69.72z"/>
					</g>
					<g>
						<path fill="#333333" d="M44.324,68.744c0,0,0.02,0.01,0.056,0.028c0.037,0.017,0.089,0.041,0.151,0.068
							c0.126,0.058,0.293,0.135,0.461,0.208c0.171,0.067,0.342,0.133,0.469,0.186c0.064,0.024,0.119,0.045,0.156,0.057
							c0.037,0.014,0.061,0.02,0.061,0.02l-0.168,0.473c0,0-0.021-0.01-0.062-0.022c-0.04-0.012-0.096-0.032-0.162-0.059
							c-0.133-0.054-0.311-0.123-0.488-0.192c-0.175-0.075-0.347-0.156-0.479-0.215c-0.065-0.031-0.12-0.055-0.157-0.072
							c-0.038-0.02-0.058-0.029-0.058-0.029L44.324,68.744z"/>
					</g>
					<g>
						<path fill="#333333" d="M41.854,67.166c0,0,0.072,0.057,0.18,0.142c0.108,0.086,0.252,0.2,0.403,0.303
							c0.296,0.22,0.607,0.413,0.607,0.413l-0.268,0.421c0,0-0.325-0.202-0.631-0.429c-0.158-0.107-0.308-0.226-0.419-0.314
							c-0.112-0.088-0.188-0.147-0.188-0.147L41.854,67.166z"/>
					</g>
					<g>
						<path fill="#333333" d="M39.8,65.074c0,0,0.223,0.291,0.468,0.563c0.118,0.143,0.245,0.274,0.341,0.373
							c0.095,0.101,0.159,0.167,0.159,0.167l-0.356,0.35c0,0-0.066-0.068-0.165-0.172c-0.099-0.104-0.232-0.241-0.354-0.387
							c-0.255-0.284-0.485-0.588-0.485-0.588L39.8,65.074z"/>
					</g>
					<g>
						<path fill="#333333" d="M38.268,62.575c0,0,0.01,0.021,0.027,0.058c0.016,0.035,0.039,0.088,0.07,0.149
							c0.064,0.123,0.147,0.286,0.231,0.45c0.086,0.161,0.182,0.317,0.249,0.438c0.035,0.06,0.064,0.11,0.084,0.145
							c0.021,0.034,0.033,0.053,0.033,0.053l-0.425,0.262c0,0-0.013-0.021-0.034-0.056c-0.021-0.036-0.052-0.088-0.086-0.148
							c-0.07-0.127-0.17-0.29-0.26-0.458c-0.086-0.169-0.173-0.339-0.239-0.466c-0.035-0.063-0.057-0.118-0.074-0.155
							c-0.018-0.039-0.028-0.061-0.028-0.061L38.268,62.575z"/>
					</g>
					<g>
						<path fill="#333333" d="M37.338,59.795c0,0,0.021,0.09,0.052,0.223c0.033,0.135,0.067,0.315,0.122,0.491
							c0.05,0.176,0.098,0.354,0.139,0.484c0.044,0.131,0.074,0.218,0.074,0.218l-0.475,0.158c0,0-0.03-0.09-0.075-0.227
							c-0.043-0.135-0.093-0.319-0.146-0.504c-0.056-0.183-0.093-0.369-0.126-0.508c-0.032-0.14-0.053-0.232-0.053-0.232
							L37.338,59.795z"/>
					</g>
					<g>
						<path fill="#333333" d="M37.064,56.876c0,0-0.002,0.092-0.005,0.229c0.004,0.139,0.008,0.323,0.012,0.506
							c0.001,0.185,0.021,0.367,0.03,0.504c0.011,0.138,0.018,0.229,0.018,0.229l-0.497,0.047c0,0-0.008-0.097-0.019-0.237
							c-0.008-0.144-0.03-0.333-0.03-0.523c-0.005-0.19-0.009-0.382-0.013-0.525c0.004-0.142,0.005-0.236,0.005-0.236L37.064,56.876
							z"/>
					</g>
					<g>
						<path fill="#333333" d="M37.446,53.97c0,0-0.023,0.089-0.056,0.224c-0.028,0.134-0.066,0.313-0.104,0.493
							c-0.036,0.181-0.06,0.362-0.083,0.497c-0.01,0.069-0.02,0.127-0.025,0.165c-0.006,0.041-0.008,0.063-0.008,0.063l-0.494-0.064
							c0,0,0.002-0.025,0.008-0.066c0.006-0.041,0.016-0.1,0.026-0.172c0.024-0.139,0.049-0.328,0.086-0.516
							c0.039-0.187,0.078-0.374,0.105-0.514c0.036-0.139,0.061-0.23,0.061-0.23L37.446,53.97z"/>
					</g>
				</g>
			</g>
		</g>
	</g>
</g>
</svg>
