<?xml version="1.0" encoding="utf-8"?>
<!-- Generator: Adobe Illustrator 16.0.4, SVG Export Plug-In . SVG Version: 6.00 Build 0)  -->
<!DOCTYPE svg PUBLIC "-//W3C//DTD SVG 1.1//EN" "http://www.w3.org/Graphics/SVG/1.1/DTD/svg11.dtd">
<svg version="1.1" id="Layer_1" xmlns="http://www.w3.org/2000/svg" xmlns:xlink="http://www.w3.org/1999/xlink" x="0px" y="0px"
	 width="100px" height="100px" viewBox="0 0 100 100" enable-background="new 0 0 100 100" xml:space="preserve">
<circle fill="#F1F2F2" cx="50" cy="50" r="50"/>
<g>
	<g opacity="0.1">
		<polygon fill="#28806C" points="62.905,81.597 37.938,81.597 47.634,59.064 53.209,59.064 		"/>
	</g>
	<g>
		<polygon fill="#A7FFEB" points="61.905,80.597 36.938,80.597 46.634,58.064 52.209,58.064 		"/>
	</g>
</g>
<g>
	<g opacity="0.1">
		<polygon fill="#008080" points="57.541,81.597 43.303,81.597 48.832,59.064 52.012,59.064 		"/>
	</g>
	<g>
		<polygon fill="#17FFFF" points="56.541,80.597 42.303,80.597 47.833,58.064 51.012,58.064 		"/>
	</g>
</g>
<g opacity="0.1">
	<g opacity="0.1">
		<polygon fill="#3D3F41" points="89.583,49.193 12.333,49.193 38.083,39.108 63.833,39.108 		"/>
	</g>
	<g>
		<polygon fill="#BCBEC0" points="88.583,48.193 11.333,48.193 37.083,38.108 62.833,38.108 		"/>
	</g>
</g>
<g>
	<g opacity="0.1">
		<polygon fill="#3D3F41" points="12.333,49.193 89.583,49.193 63.833,59.279 38.083,59.279 		"/>
	</g>
	<g>
		<polygon fill="#BCBEC0" points="11.333,48.193 88.583,48.193 62.833,58.279 37.083,58.279 		"/>
	</g>
</g>
<g>
	<polygon fill="#F5F5F5" points="61.546,48.193 75.914,48.193 59.482,38.108 52.903,38.108 	"/>
</g>
<path fill="#A4EFFF" d="M37.083,38.216c0-7.051,5.717-12.769,12.768-12.769s12.768,5.718,12.768,12.769"/>
<g>
	<g opacity="0.1">
		<circle fill="#518080" cx="47.524" cy="31.599" r="2.789"/>
	</g>
	<g>
		<circle fill="#D0FFFF" cx="46.524" cy="30.599" r="2.789"/>
	</g>
</g>
<polygon opacity="0.1" fill="#BCBEC0" points="50.49,38.321 37.083,38.321 11.333,48.406 37.083,58.492 50.49,58.492 "/>
</svg>
