<?xml version="1.0" encoding="utf-8"?>
<!-- Generator: Adobe Illustrator 16.0.1, SVG Export Plug-In . SVG Version: 6.00 Build 0)  -->
<!DOCTYPE svg PUBLIC "-//W3C//DTD SVG 1.0//EN" "http://www.w3.org/TR/2001/REC-SVG-20010904/DTD/svg10.dtd">
<svg version="1.0" id="Layer_1" xmlns="http://www.w3.org/2000/svg" xmlns:xlink="http://www.w3.org/1999/xlink" x="0px" y="0px"
	 width="144px" height="144px" viewBox="0 0 144 144" enable-background="new 0 0 144 144" xml:space="preserve">
<g>
	<g opacity="0.05">
		<path fill="#010101" d="M115.282,68.518c-3.602-18.457-19.63-32.377-38.869-32.377c-15.279,0-28.516,8.793-35.132,21.654
			c-15.895,1.734-28.279,15.389-28.279,31.99c0,17.774,14.198,32.186,31.707,32.186h68.697c14.593,0,26.421-12.005,26.421-26.821
			C139.824,80.986,128.978,69.512,115.282,68.518z"/>
		<path opacity="0.05" fill="#010101" enable-background="new    " d="M41.28,57.795C25.385,59.529,13,73.184,13,89.785
			c0,17.774,14.198,32.186,31.707,32.186h31.706v-85.83C61.134,36.141,47.896,44.934,41.28,57.795z"/>
	</g>
	<g>
		<g>
			<path fill="#E9F7FE" d="M107.615,60.852c-3.603-18.457-19.63-32.377-38.87-32.377c-15.278,0-28.514,8.793-35.131,21.654
				c-15.896,1.733-28.28,15.388-28.28,31.989c0,17.775,14.198,32.186,31.707,32.186h68.696c14.594,0,26.421-12.006,26.421-26.821
				C132.157,73.32,121.311,61.844,107.615,60.852z"/>
			<g>
				<path opacity="0.05" fill="#46A8DF" enable-background="new    " d="M33.613,50.128C17.718,51.862,5.333,65.517,5.333,82.118
					c0,17.775,14.198,32.186,31.707,32.186h31.705V28.475C53.467,28.475,40.229,37.267,33.613,50.128z"/>
			</g>
		</g>
	</g>
</g>
</svg>
