<?xml version="1.0" encoding="utf-8"?>
<!-- Generator: Adobe Illustrator 16.0.4, SVG Export Plug-In . SVG Version: 6.00 Build 0)  -->
<!DOCTYPE svg PUBLIC "-//W3C//DTD SVG 1.1//EN" "http://www.w3.org/Graphics/SVG/1.1/DTD/svg11.dtd">
<svg version="1.1" id="Layer_1" xmlns="http://www.w3.org/2000/svg" xmlns:xlink="http://www.w3.org/1999/xlink" x="0px" y="0px"
	 width="200px" height="200px" viewBox="0 0 200 200" enable-background="new 0 0 200 200" xml:space="preserve">
<g>
	<circle fill="#2979FF" cx="100" cy="100.001" r="100"/>
	<g>
		<g opacity="0.1">
			<circle cx="91.848" cy="91.847" r="78.645"/>
		</g>
		<g>
			<circle fill="#00AFFF" cx="89.951" cy="89.951" r="78.644"/>
		</g>
	</g>
	<g>
		<g opacity="0.1">
			<path d="M149.497,100.711c0,10.361-8.397,18.757-18.757,18.757c-10.358,0-18.756-8.396-18.756-18.757
				c0-10.356,8.397-18.753,18.756-18.753C141.1,81.958,149.497,90.355,149.497,100.711z"/>
		</g>
		<g>
			<circle fill="#00D44A" cx="128.844" cy="98.815" r="18.756"/>
		</g>
	</g>
	<g>
		<g opacity="0.1">
			<circle cx="53.912" cy="146.386" r="17.584"/>
		</g>
		<g>
			<circle fill="#00D44A" cx="52.016" cy="144.489" r="17.584"/>
		</g>
	</g>
	<g>
		<g opacity="0.1">
			<circle cx="68.987" cy="102.42" r="12.56"/>
		</g>
		<g>
			<circle fill="#00D44A" cx="67.091" cy="100.523" r="12.56"/>
		</g>
	</g>
	<g>
		<g opacity="0.1">
			<circle cx="46.375" cy="126.916" r="11.302"/>
		</g>
		<g>
			<circle fill="#76FF02" cx="44.479" cy="125.02" r="11.302"/>
		</g>
	</g>
	<g>
		<g opacity="0.1">
			<path d="M88.038,119.381c0,3.35-2.718,6.068-6.069,6.068s-6.071-2.719-6.071-6.068c0-3.354,2.72-6.074,6.071-6.074
				S88.038,116.027,88.038,119.381z"/>
		</g>
		<g>
			<path fill="#76FF02" d="M86.142,117.484c0,3.35-2.718,6.068-6.069,6.068s-6.071-2.719-6.071-6.068
				c0-3.354,2.72-6.074,6.071-6.074S86.142,114.131,86.142,117.484z"/>
		</g>
	</g>
	<g>
		<g opacity="0.1">
			<circle cx="57.37" cy="72.901" r="9.106"/>
		</g>
		<g>
			<circle fill="#00D44A" cx="55.474" cy="71.005" r="9.106"/>
		</g>
	</g>
	<g>
		<g opacity="0.1">
			<path d="M93.833,61.674c0,9.097-7.378,16.477-16.477,16.477c-9.102,0-16.475-7.379-16.475-16.477
				c0-9.096,7.373-16.473,16.475-16.473C86.456,45.201,93.833,52.578,93.833,61.674z"/>
		</g>
		<g>
			<path fill="#00D44A" d="M90.403,58.243c0,9.097-7.378,16.477-16.477,16.477c-9.102,0-16.475-7.379-16.475-16.477
				c0-9.096,7.373-16.473,16.475-16.473C83.025,41.77,90.403,49.147,90.403,58.243z"/>
		</g>
	</g>
	<g>
		<g opacity="0.1">
			<circle cx="88.636" cy="88.568" r="14.454"/>
		</g>
		<g>
			<circle fill="#00D44A" cx="85.626" cy="85.558" r="14.454"/>
		</g>
	</g>
	<g>
		<g opacity="0.1">
			<circle cx="39.463" cy="44.394" r="12.474"/>
		</g>
		<g>
			<circle fill="#00D44A" cx="37.567" cy="42.498" r="12.474"/>
		</g>
	</g>
	<g>
		<g opacity="0.1">
			<circle cx="154.482" cy="84.425" r="12.475"/>
		</g>
		<g>
			<circle fill="#76FF02" cx="152.586" cy="82.529" r="12.475"/>
		</g>
	</g>
	<g>
		<g opacity="0.1">
			<circle cx="82.587" cy="142.62" r="3.567"/>
		</g>
		<g>
			<circle fill="#76FF02" cx="80.691" cy="140.724" r="3.567"/>
		</g>
	</g>
	<g>
		<g opacity="0.1">
			<circle cx="54.274" cy="165.992" r="11.518"/>
		</g>
		<g>
			<circle fill="#76FF02" cx="51.949" cy="163.667" r="11.518"/>
		</g>
	</g>
	<g>
		<g opacity="0.1">
			<path d="M47.336,75.652c13.178,1.113,22.96,12.699,21.847,25.875c-1.11,13.18-12.698,22.961-25.878,21.848
				C30.128,122.264,20.346,110.678,21.46,97.5C22.572,84.321,34.159,74.539,47.336,75.652z"/>
		</g>
		<g>
			<path fill="#00D44A" d="M45.44,73.756c13.178,1.113,22.96,12.699,21.847,25.875c-1.11,13.18-12.698,22.961-25.878,21.848
				c-13.177-1.111-22.959-12.697-21.845-25.875C20.676,82.425,32.263,72.643,45.44,73.756z"/>
		</g>
	</g>
	<path opacity="0.1" fill="#FFFFFF" d="M62.885,83.147c7.73,10.816,5.231,25.853-5.588,33.583
		c-10.816,7.73-25.852,5.23-33.583-5.586"/>
	<g>
		<g>
			<g opacity="0.1">
				<path d="M157.496,159.261c0,6.889-5.586,12.475-12.475,12.475s-12.476-5.586-12.476-12.475c0-6.893,5.587-12.477,12.476-12.477
					S157.496,152.368,157.496,159.261z"/>
			</g>
			<g>
				<path fill="#76FF02" d="M155.6,157.364c0,6.889-5.586,12.475-12.475,12.475s-12.476-5.586-12.476-12.475
					c0-6.893,5.587-12.477,12.476-12.477S155.6,150.472,155.6,157.364z"/>
			</g>
		</g>
		<path opacity="0.1" fill="#231F20" d="M130.104,156.825c-0.089,7.26,5.723,13.217,12.983,13.307
			c7.26,0.09,13.217-5.723,13.307-12.982L130.104,156.825z"/>
	</g>
	<path opacity="0.25" fill="#FFFFFF" d="M88.37,50.323c4.519,7.884,1.795,17.938-6.09,22.459c-7.884,4.52-17.943,1.789-22.461-6.093
		"/>
	<g>
		<g opacity="0.1">
			<circle cx="123.717" cy="63.673" r="30.853"/>
		</g>
		<g>
			<circle fill="#00D44A" cx="120.925" cy="60.881" r="30.853"/>
		</g>
	</g>
	<path opacity="0.1" fill="#FFFFFF" d="M146.887,44.711c9.686,13.548,6.551,32.384-6.997,42.066
		c-13.55,9.685-32.383,6.552-42.069-6.996"/>
</g>
</svg>
