<?xml version="1.0" encoding="utf-8"?>
<!-- Generator: Adobe Illustrator 16.0.4, SVG Export Plug-In . SVG Version: 6.00 Build 0)  -->
<!DOCTYPE svg PUBLIC "-//W3C//DTD SVG 1.1//EN" "http://www.w3.org/Graphics/SVG/1.1/DTD/svg11.dtd">
<svg version="1.1" id="Layer_1" xmlns="http://www.w3.org/2000/svg" xmlns:xlink="http://www.w3.org/1999/xlink" x="0px" y="0px"
	 width="200px" height="200px" viewBox="0 0 200 200" enable-background="new 0 0 200 200" xml:space="preserve">
<g>
	<circle fill="#2979FF" cx="100" cy="100.001" r="100"/>
	<g>
		<g opacity="0.1">
			<circle cx="93.388" cy="93.229" r="78.645"/>
		</g>
		<g>
			<circle fill="#00AFFF" cx="91.491" cy="91.333" r="78.644"/>
		</g>
	</g>
	<g>
		<g opacity="0.1">
			<circle cx="13.775" cy="88.512" r="11.923"/>
		</g>
		<g>
			<circle fill="#00D44A" cx="12.57" cy="87.306" r="11.923"/>
		</g>
	</g>
	<g>
		<g opacity="0.1">
			<circle cx="30" cy="110.788" r="4.102"/>
		</g>
		<g>
			<circle fill="#00D44A" cx="29.146" cy="109.934" r="4.102"/>
		</g>
	</g>
	<g>
		<g opacity="0.1">
			<circle cx="26.94" cy="84.425" r="12.475"/>
		</g>
		<g>
			<circle fill="#76FF02" cx="25.044" cy="82.529" r="12.475"/>
		</g>
	</g>
	<g>
		<g opacity="0.1">
			<circle cx="31.577" cy="164.592" r="3.567"/>
		</g>
		<g>
			<circle fill="#76FF02" cx="29.681" cy="162.695" r="3.567"/>
		</g>
	</g>
	<g>
		<g opacity="0.1">
			<circle cx="26.338" cy="64.439" r="14.293"/>
		</g>
		<g>
			<circle fill="#00D44A" cx="25.045" cy="63.146" r="14.293"/>
		</g>
	</g>
	<g>
		<g opacity="0.1">
			<circle cx="130.635" cy="81.13" r="17.559"/>
		</g>
		<g>
			<circle fill="#00D44A" cx="128.662" cy="79.157" r="17.559"/>
		</g>
	</g>
	<g>
		<g opacity="0.1">
			<path d="M138.062,147.147c0,10.783-8.74,19.521-19.521,19.521s-19.518-8.738-19.518-19.521c0-10.777,8.738-19.517,19.518-19.517
				S138.062,136.37,138.062,147.147z"/>
		</g>
		<g>
			<path fill="#00D44A" d="M136.088,145.174c0,10.783-8.74,19.521-19.521,19.521s-19.518-8.738-19.518-19.521
				c0-10.777,8.738-19.517,19.518-19.517S136.088,134.396,136.088,145.174z"/>
		</g>
	</g>
	<g>
		<g opacity="0.1">
			<circle cx="104.748" cy="123.72" r="9.061"/>
		</g>
		<g>
			<circle fill="#00D44A" cx="102.775" cy="121.746" r="9.061"/>
		</g>
	</g>
	<g>
		<g opacity="0.1">
			<path d="M134.793,95.45c0,12.552-10.175,22.725-22.728,22.725c-12.548,0-22.724-10.173-22.724-22.725
				c0-12.551,10.176-22.729,22.724-22.729C124.618,72.721,134.793,82.899,134.793,95.45z"/>
		</g>
		<g>
			<path fill="#00D44A" d="M132.819,93.476c0,12.552-10.175,22.725-22.728,22.725c-12.548,0-22.724-10.173-22.724-22.725
				c0-12.551,10.176-22.729,22.724-22.729C122.645,70.748,132.819,80.925,132.819,93.476z"/>
		</g>
	</g>
	<g>
		<g opacity="0.1">
			<circle cx="116.339" cy="96.92" r="12.982"/>
		</g>
		<g>
			<circle fill="#76FF02" cx="114.365" cy="94.947" r="12.982"/>
		</g>
	</g>
	<g>
		<g opacity="0.1">
			<circle cx="161.027" cy="54.499" r="12.981"/>
		</g>
		<g>
			<circle fill="#00D44A" cx="159.054" cy="52.525" r="12.981"/>
		</g>
	</g>
	<g>
		<g opacity="0.1">
			<circle cx="117.232" cy="168.235" r="12.982"/>
		</g>
		<g>
			<circle fill="#76FF02" cx="115.258" cy="166.262" r="12.982"/>
		</g>
	</g>
	<path opacity="0.1" fill="#231F20" d="M100.817,94.386c-0.094,7.555,5.955,13.754,13.511,13.848
		c7.555,0.094,13.754-5.955,13.848-13.51L100.817,94.386z"/>
	<g>
		<g opacity="0.1">
			<circle cx="106.45" cy="52.696" r="21.806"/>
		</g>
		<g>
			<circle fill="#00D44A" cx="104.477" cy="50.722" r="21.806"/>
		</g>
	</g>
	<path opacity="0.1" fill="#FFFFFF" d="M122.826,39.294c6.846,9.576,4.63,22.889-4.945,29.732
		c-9.576,6.845-22.887,4.63-29.733-4.945"/>
</g>
</svg>
