<?xml version="1.0" encoding="utf-8"?>
<!-- Generator: Adobe Illustrator 16.0.4, SVG Export Plug-In . SVG Version: 6.00 Build 0)  -->
<!DOCTYPE svg PUBLIC "-//W3C//DTD SVG 1.1//EN" "http://www.w3.org/Graphics/SVG/1.1/DTD/svg11.dtd">
<svg version="1.1" xmlns="http://www.w3.org/2000/svg" xmlns:xlink="http://www.w3.org/1999/xlink" x="0px" y="0px" width="200px"
	 height="200px" viewBox="0 0 200 200" enable-background="new 0 0 200 200" xml:space="preserve">
<g id="globe5">
	<g>
		<circle fill="#2979FF" cx="100" cy="100.001" r="100"/>
		<g>
			<g opacity="0.1">
				<circle cx="91.848" cy="91.848" r="78.645"/>
			</g>
			<g>
				<circle fill="#00AFFF" cx="89.951" cy="89.952" r="78.645"/>
			</g>
		</g>
		<g>
			<g opacity="0.1">
				<circle cx="75.234" cy="77.134" r="16.872"/>
			</g>
			<g>
				<circle fill="#00D44A" cx="73.338" cy="75.238" r="16.872"/>
			</g>
		</g>
		<g>
			<g opacity="0.1">
				<path d="M82.37,140.57c0,10.361-8.396,18.758-18.757,18.758c-10.358,0-18.755-8.396-18.755-18.758
					c0-10.356,8.396-18.754,18.755-18.754C73.974,121.816,82.37,130.214,82.37,140.57z"/>
			</g>
			<g>
				<path fill="#00D44A" d="M80.474,138.674c0,10.361-8.397,18.758-18.757,18.758c-10.358,0-18.755-8.396-18.755-18.758
					c0-10.356,8.397-18.754,18.755-18.754C72.077,119.92,80.474,128.317,80.474,138.674z"/>
			</g>
		</g>
		<g>
			<g opacity="0.1">
				<circle cx="146.834" cy="146.389" r="17.584"/>
			</g>
			<g>
				<circle fill="#00D44A" cx="144.938" cy="144.492" r="17.584"/>
			</g>
		</g>
		<g>
			<g opacity="0.1">
				<circle cx="161.909" cy="102.42" r="12.56"/>
			</g>
			<g>
				<circle fill="#00D44A" cx="160.013" cy="100.524" r="12.56"/>
			</g>
		</g>
		<g>
			<g opacity="0.1">
				<circle cx="139.296" cy="126.917" r="11.302"/>
			</g>
			<g>
				<circle fill="#76FF02" cx="137.4" cy="125.021" r="11.302"/>
			</g>
		</g>
		<g>
			<g opacity="0.1">
				<circle cx="174.89" cy="119.381" r="6.07"/>
			</g>
			<g>
				<circle fill="#76FF02" cx="172.993" cy="117.484" r="6.07"/>
			</g>
		</g>
		<g>
			<g opacity="0.1">
				<circle cx="150.292" cy="72.901" r="9.106"/>
			</g>
			<g>
				<circle fill="#00D44A" cx="148.395" cy="71.005" r="9.106"/>
			</g>
		</g>
		<g>
			<g opacity="0.1">
				<path d="M186.755,61.673c0,9.098-7.378,16.478-16.477,16.478c-9.102,0-16.475-7.38-16.475-16.478
					c0-9.096,7.373-16.474,16.475-16.474C179.377,45.2,186.755,52.578,186.755,61.673z"/>
			</g>
			<g>
				<path fill="#00D44A" d="M183.324,58.243c0,9.098-7.378,16.478-16.477,16.478c-9.102,0-16.475-7.38-16.475-16.478
					c0-9.096,7.373-16.474,16.475-16.474C175.946,41.769,183.324,49.147,183.324,58.243z"/>
			</g>
		</g>
		<g>
			<g opacity="0.1">
				<circle cx="181.558" cy="88.568" r="14.454"/>
			</g>
			<g>
				<circle fill="#00D44A" cx="178.548" cy="85.558" r="14.454"/>
			</g>
		</g>
		<g>
			<g opacity="0.1">
				<circle cx="50.36" cy="118.059" r="8.707"/>
			</g>
			<g>
				<circle fill="#00D44A" cx="48.464" cy="116.162" r="8.707"/>
			</g>
		</g>
		<g>
			<g opacity="0.1">
				<circle cx="57.392" cy="90.894" r="21.837"/>
			</g>
			<g>
				<circle fill="#00D44A" cx="55.496" cy="88.998" r="21.838"/>
			</g>
		</g>
		<g>
			<g opacity="0.1">
				<circle cx="61.498" cy="92.307" r="12.476"/>
			</g>
			<g>
				<circle fill="#76FF02" cx="59.602" cy="90.411" r="12.475"/>
			</g>
		</g>
		<g>
			<g opacity="0.1">
				<circle cx="104.438" cy="51.544" r="12.474"/>
			</g>
			<g>
				<circle fill="#00D44A" cx="102.542" cy="49.648" r="12.474"/>
			</g>
		</g>
		<g>
			<g opacity="0.1">
				<circle cx="62.356" cy="160.834" r="12.475"/>
			</g>
			<g>
				<circle fill="#76FF02" cx="60.46" cy="158.938" r="12.475"/>
			</g>
		</g>
		<g>
			<g opacity="0.1">
				<circle cx="175.509" cy="142.622" r="3.567"/>
			</g>
			<g>
				<circle fill="#76FF02" cx="173.613" cy="140.726" r="3.567"/>
			</g>
		</g>
		<g>
			<g opacity="0.1">
				<circle cx="147.195" cy="165.993" r="11.518"/>
			</g>
			<g>
				<circle fill="#76FF02" cx="144.87" cy="163.668" r="11.518"/>
			</g>
		</g>
		<g>
			<g opacity="0.1">
				<path d="M140.258,75.651c13.178,1.113,22.96,12.699,21.847,25.876c-1.11,13.182-12.698,22.963-25.878,21.85
					c-13.177-1.112-22.959-12.697-21.845-25.877C115.494,84.321,127.081,74.538,140.258,75.651z"/>
			</g>
			<g>
				<path fill="#00D44A" d="M138.361,73.755c13.178,1.113,22.96,12.699,21.847,25.876c-1.11,13.181-12.698,22.962-25.878,21.849
					c-13.177-1.112-22.959-12.697-21.845-25.876C113.598,82.425,125.185,72.642,138.361,73.755z"/>
			</g>
		</g>
		<path opacity="0.1" fill="#FFFFFF" d="M155.807,83.148c7.73,10.816,5.231,25.854-5.588,33.584
			c-10.816,7.73-25.852,5.23-33.583-5.588"/>
		<path opacity="0.1" fill="#231F20" d="M46.582,89.873c-0.088,7.26,5.723,13.216,12.983,13.307
			c7.259,0.089,13.217-5.723,13.307-12.983L46.582,89.873z"/>
		<path opacity="0.25" fill="#FFFFFF" d="M181.291,50.323c4.519,7.884,1.795,17.938-6.09,22.46
			c-7.884,4.52-17.943,1.789-22.461-6.094"/>
		<g>
			<g opacity="0.1">
				<circle cx="51.995" cy="49.812" r="20.953"/>
			</g>
			<g>
				<circle fill="#00D44A" cx="50.099" cy="47.917" r="20.953"/>
			</g>
		</g>
		<path opacity="0.1" fill="#FFFFFF" d="M67.731,36.935c6.578,9.201,4.449,21.993-4.752,28.568
			c-9.202,6.578-21.991,4.45-28.569-4.751"/>
	</g>
</g>
<g id="globe4">
	<g>
		<circle fill="#2979FF" cx="100" cy="100.001" r="100"/>
		<g>
			<g opacity="0.1">
				<circle cx="93.388" cy="93.229" r="78.645"/>
			</g>
			<g>
				<circle fill="#00AFFF" cx="91.491" cy="91.333" r="78.644"/>
			</g>
		</g>
		<g>
			<g opacity="0.1">
				<circle cx="13.775" cy="88.512" r="11.923"/>
			</g>
			<g>
				<circle fill="#00D44A" cx="12.57" cy="87.306" r="11.923"/>
			</g>
		</g>
		<g>
			<g opacity="0.1">
				<circle cx="30" cy="110.788" r="4.102"/>
			</g>
			<g>
				<circle fill="#00D44A" cx="29.146" cy="109.934" r="4.102"/>
			</g>
		</g>
		<g>
			<g opacity="0.1">
				<circle cx="26.94" cy="84.425" r="12.475"/>
			</g>
			<g>
				<circle fill="#76FF02" cx="25.044" cy="82.529" r="12.475"/>
			</g>
		</g>
		<g>
			<g opacity="0.1">
				<circle cx="31.577" cy="164.592" r="3.567"/>
			</g>
			<g>
				<circle fill="#76FF02" cx="29.681" cy="162.695" r="3.567"/>
			</g>
		</g>
		<g>
			<g opacity="0.1">
				<circle cx="26.338" cy="64.439" r="14.293"/>
			</g>
			<g>
				<circle fill="#00D44A" cx="25.045" cy="63.146" r="14.293"/>
			</g>
		</g>
		<g>
			<g opacity="0.1">
				<circle cx="130.635" cy="81.13" r="17.559"/>
			</g>
			<g>
				<circle fill="#00D44A" cx="128.662" cy="79.157" r="17.559"/>
			</g>
		</g>
		<g>
			<g opacity="0.1">
				<path d="M138.062,147.147c0,10.783-8.74,19.521-19.521,19.521s-19.519-8.738-19.519-19.521c0-10.777,8.738-19.517,19.519-19.517
					S138.062,136.37,138.062,147.147z"/>
			</g>
			<g>
				<path fill="#00D44A" d="M136.088,145.174c0,10.783-8.74,19.521-19.521,19.521s-19.518-8.738-19.518-19.521
					c0-10.777,8.738-19.517,19.518-19.517S136.088,134.396,136.088,145.174z"/>
			</g>
		</g>
		<g>
			<g opacity="0.1">
				<circle cx="104.748" cy="123.72" r="9.062"/>
			</g>
			<g>
				<circle fill="#00D44A" cx="102.775" cy="121.746" r="9.061"/>
			</g>
		</g>
		<g>
			<g opacity="0.1">
				<circle cx="112.067" cy="95.449" r="22.726"/>
			</g>
			<g>
				<path fill="#00D44A" d="M132.819,93.476c0,12.552-10.175,22.725-22.728,22.725c-12.548,0-22.724-10.173-22.724-22.725
					c0-12.551,10.176-22.729,22.724-22.729C122.645,70.748,132.819,80.925,132.819,93.476z"/>
			</g>
		</g>
		<g>
			<g opacity="0.1">
				<circle cx="116.339" cy="96.92" r="12.982"/>
			</g>
			<g>
				<circle fill="#76FF02" cx="114.365" cy="94.947" r="12.982"/>
			</g>
		</g>
		<g>
			<g opacity="0.1">
				<circle cx="161.027" cy="54.498" r="12.981"/>
			</g>
			<g>
				<circle fill="#00D44A" cx="159.054" cy="52.525" r="12.981"/>
			</g>
		</g>
		<g>
			<g opacity="0.1">
				<circle cx="117.232" cy="168.235" r="12.982"/>
			</g>
			<g>
				<circle fill="#76FF02" cx="115.258" cy="166.262" r="12.982"/>
			</g>
		</g>
		<path opacity="0.1" fill="#231F20" d="M100.817,94.386c-0.094,7.555,5.955,13.754,13.511,13.848
			c7.555,0.094,13.754-5.955,13.848-13.51L100.817,94.386z"/>
		<g>
			<g opacity="0.1">
				<circle cx="106.45" cy="52.695" r="21.807"/>
			</g>
			<g>
				<circle fill="#00D44A" cx="104.477" cy="50.722" r="21.806"/>
			</g>
		</g>
		<path opacity="0.1" fill="#FFFFFF" d="M122.826,39.294c6.846,9.576,4.63,22.889-4.945,29.732
			c-9.576,6.845-22.887,4.63-29.733-4.945"/>
	</g>
</g>
<g id="globe3" display="none">
	<g display="inline">
		<circle fill="#2979FF" cx="100" cy="100.001" r="100"/>
		<g>
			<g opacity="0.1">
				<circle cx="91.848" cy="91.848" r="78.645"/>
			</g>
			<g>
				<circle fill="#00AFFF" cx="89.951" cy="89.951" r="78.644"/>
			</g>
		</g>
		<g>
			<g opacity="0.1">
				<path d="M104.532,100.712c0,10.36-8.397,18.758-18.757,18.758c-10.358,0-18.756-8.397-18.756-18.758
					c0-10.356,8.397-18.753,18.756-18.753C96.135,81.959,104.532,90.355,104.532,100.712z"/>
			</g>
			<g>
				<path fill="#00D44A" d="M102.636,98.815c0,10.36-8.397,18.758-18.756,18.758c-10.358,0-18.756-8.397-18.756-18.758
					c0-10.356,8.397-18.753,18.756-18.753C94.239,80.062,102.636,88.459,102.636,98.815z"/>
			</g>
		</g>
		<g>
			<g opacity="0.1">
				<circle cx="17.975" cy="98.039" r="6.07"/>
			</g>
			<g>
				<circle fill="#76FF02" cx="16.079" cy="96.143" r="6.07"/>
			</g>
		</g>
		<g>
			<g opacity="0.1">
				<circle cx="115.044" cy="115.044" r="4.102"/>
			</g>
			<g>
				<circle fill="#00D44A" cx="114.189" cy="114.189" r="4.102"/>
			</g>
		</g>
		<g>
			<g opacity="0.1">
				<path d="M48.869,61.673c0,9.098-7.378,16.477-16.477,16.477c-9.102,0-16.475-7.379-16.475-16.477
					c0-9.096,7.373-16.473,16.475-16.473C41.491,45.2,48.869,52.577,48.869,61.673z"/>
			</g>
			<g>
				<path fill="#00D44A" d="M45.438,58.242c0,9.098-7.378,16.477-16.477,16.477c-9.102,0-16.475-7.379-16.475-16.477
					c0-9.096,7.373-16.473,16.475-16.473C38.06,41.77,45.438,49.146,45.438,58.242z"/>
			</g>
		</g>
		<g>
			<g opacity="0.1">
				<circle cx="43.671" cy="88.567" r="14.454"/>
			</g>
			<g>
				<circle fill="#00D44A" cx="40.662" cy="85.558" r="14.454"/>
			</g>
		</g>
		<g>
			<g opacity="0.1">
				<circle cx="109.518" cy="84.425" r="12.475"/>
			</g>
			<g>
				<circle fill="#76FF02" cx="107.621" cy="82.528" r="12.474"/>
			</g>
		</g>
		<g>
			<g opacity="0.1">
				<circle cx="11.905" cy="121.992" r="3.567"/>
			</g>
			<g>
				<circle fill="#76FF02" cx="10.009" cy="120.096" r="3.567"/>
			</g>
		</g>
		<g>
			<g>
				<g opacity="0.1">
					<circle cx="78.698" cy="169.27" r="12.475"/>
				</g>
				<g>
					<circle fill="#76FF02" cx="76.802" cy="167.373" r="12.475"/>
				</g>
			</g>
			<path opacity="0.1" fill="#231F20" d="M63.782,166.834c-0.089,7.26,5.723,13.217,12.983,13.307
				c7.26,0.09,13.217-5.723,13.307-12.982L63.782,166.834z"/>
		</g>
		<path opacity="0.25" fill="#FFFFFF" d="M43.405,50.322c4.519,7.884,1.795,17.939-6.09,22.459
			c-7.884,4.52-17.943,1.789-22.461-6.092"/>
		<g>
			<g opacity="0.1">
				<circle cx="78.752" cy="63.672" r="30.853"/>
			</g>
			<g>
				<circle fill="#00D44A" cx="75.96" cy="60.88" r="30.853"/>
			</g>
		</g>
		<path opacity="0.1" fill="#FFFFFF" d="M101.922,44.71c9.686,13.548,6.551,32.384-6.997,42.067
			c-13.55,9.686-32.383,6.552-42.069-6.996"/>
		<g>
			<g opacity="0.1">
				<circle cx="185.092" cy="86.769" r="11.341"/>
			</g>
			<g>
				<circle fill="#00D44A" cx="183.818" cy="85.494" r="11.341"/>
			</g>
		</g>
		<g>
			<g opacity="0.1">
				<path d="M189.889,129.409c0,6.965-5.645,12.609-12.608,12.609c-6.962,0-12.607-5.645-12.607-12.609
					c0-6.961,5.646-12.605,12.607-12.605C184.244,116.804,189.889,122.448,189.889,129.409z"/>
			</g>
			<g>
				<path fill="#00D44A" d="M188.614,128.135c0,6.965-5.645,12.609-12.608,12.609c-6.962,0-12.607-5.645-12.607-12.609
					c0-6.961,5.646-12.605,12.607-12.605C182.97,115.529,188.614,121.174,188.614,128.135z"/>
			</g>
		</g>
		<g>
			<g opacity="0.1">
				<circle cx="168.372" cy="114.277" r="5.853"/>
			</g>
			<g>
				<circle fill="#00D44A" cx="167.097" cy="113.003" r="5.853"/>
			</g>
		</g>
		<g>
			<g opacity="0.1">
				<circle cx="173.099" cy="96.018" r="14.679"/>
			</g>
			<g>
				<circle fill="#00D44A" cx="171.825" cy="94.743" r="14.679"/>
			</g>
		</g>
		<g>
			<g opacity="0.1">
				<circle cx="175.858" cy="96.968" r="8.386"/>
			</g>
			<g>
				<circle fill="#76FF02" cx="174.584" cy="95.693" r="8.386"/>
			</g>
		</g>
		<g>
			<g opacity="0.1">
				<circle cx="176.435" cy="143.03" r="8.385"/>
			</g>
			<g>
				<circle fill="#76FF02" cx="175.161" cy="141.756" r="8.385"/>
			</g>
		</g>
		<path opacity="0.1" fill="#231F20" d="M165.832,95.331c-0.06,4.88,3.847,8.884,8.728,8.944c4.88,0.061,8.884-3.847,8.944-8.727
			L165.832,95.331z"/>
		<g>
			<g opacity="0.1">
				<circle cx="169.471" cy="68.403" r="14.084"/>
			</g>
			<g>
				<circle fill="#00D44A" cx="168.197" cy="67.129" r="14.084"/>
			</g>
		</g>
		<path opacity="0.1" fill="#FFFFFF" d="M180.049,59.747c4.422,6.185,2.99,14.784-3.194,19.204
			c-6.186,4.421-14.783,2.99-19.205-3.194"/>
	</g>
</g>
<g id="globe2" display="none">
	<g display="inline">
		<circle fill="#2979FF" cx="100" cy="100.001" r="100"/>
		<g>
			<g opacity="0.1">
				<circle cx="91.848" cy="91.848" r="78.645"/>
			</g>
			<g>
				<circle fill="#00AFFF" cx="89.951" cy="89.952" r="78.644"/>
			</g>
		</g>
		<g>
			<g opacity="0.1">
				<path d="M149.497,100.712c0,10.361-8.397,18.758-18.757,18.758c-10.358,0-18.756-8.396-18.756-18.758
					c0-10.356,8.397-18.753,18.756-18.753C141.1,81.959,149.497,90.355,149.497,100.712z"/>
			</g>
			<g>
				<path fill="#00D44A" d="M147.601,98.816c0,10.361-8.397,18.757-18.757,18.757c-10.358,0-18.756-8.396-18.756-18.757
					c0-10.356,8.397-18.753,18.756-18.753C139.203,80.062,147.601,88.459,147.601,98.816z"/>
			</g>
		</g>
		<g>
			<g opacity="0.1">
				<circle cx="53.912" cy="146.388" r="17.584"/>
			</g>
			<g>
				<circle fill="#00D44A" cx="52.016" cy="144.491" r="17.584"/>
			</g>
		</g>
		<g>
			<g opacity="0.1">
				<circle cx="68.987" cy="102.42" r="12.56"/>
			</g>
			<g>
				<circle fill="#00D44A" cx="67.091" cy="100.524" r="12.56"/>
			</g>
		</g>
		<g>
			<g opacity="0.1">
				<circle cx="46.375" cy="126.916" r="11.302"/>
			</g>
			<g>
				<circle fill="#76FF02" cx="44.479" cy="125.02" r="11.302"/>
			</g>
		</g>
		<g>
			<g opacity="0.1">
				<circle cx="81.968" cy="119.381" r="6.07"/>
			</g>
			<g>
				<circle fill="#76FF02" cx="80.072" cy="117.484" r="6.07"/>
			</g>
		</g>
		<g>
			<g opacity="0.1">
				<circle cx="57.37" cy="72.901" r="9.106"/>
			</g>
			<g>
				<circle fill="#00D44A" cx="55.474" cy="71.005" r="9.106"/>
			</g>
		</g>
		<g>
			<g opacity="0.1">
				<path d="M93.833,61.673c0,9.098-7.378,16.477-16.477,16.477c-9.102,0-16.475-7.379-16.475-16.477
					c0-9.096,7.373-16.473,16.475-16.473C86.456,45.2,93.833,52.578,93.833,61.673z"/>
			</g>
			<g>
				<path fill="#00D44A" d="M90.403,58.243c0,9.098-7.378,16.477-16.477,16.477c-9.102,0-16.475-7.379-16.475-16.477
					c0-9.096,7.373-16.473,16.475-16.473C83.025,41.77,90.403,49.147,90.403,58.243z"/>
			</g>
		</g>
		<g>
			<g opacity="0.1">
				<circle cx="88.636" cy="88.568" r="14.454"/>
			</g>
			<g>
				<circle fill="#00D44A" cx="85.626" cy="85.558" r="14.454"/>
			</g>
		</g>
		<g>
			<g opacity="0.1">
				<circle cx="39.463" cy="44.394" r="12.474"/>
			</g>
			<g>
				<circle fill="#00D44A" cx="37.567" cy="42.498" r="12.474"/>
			</g>
		</g>
		<g>
			<g opacity="0.1">
				<circle cx="154.482" cy="84.425" r="12.475"/>
			</g>
			<g>
				<circle fill="#76FF02" cx="152.586" cy="82.529" r="12.475"/>
			</g>
		</g>
		<g>
			<g opacity="0.1">
				<circle cx="82.587" cy="142.621" r="3.567"/>
			</g>
			<g>
				<circle fill="#76FF02" cx="80.691" cy="140.725" r="3.567"/>
			</g>
		</g>
		<g>
			<g opacity="0.1">
				<circle cx="54.274" cy="165.993" r="11.518"/>
			</g>
			<g>
				<circle fill="#76FF02" cx="51.949" cy="163.668" r="11.518"/>
			</g>
		</g>
		<g>
			<g opacity="0.1">
				<path d="M47.336,75.652c13.178,1.112,22.96,12.699,21.847,25.875c-1.11,13.181-12.698,22.962-25.878,21.849
					C30.128,122.264,20.346,110.679,21.46,97.5C22.572,84.321,34.159,74.539,47.336,75.652z"/>
			</g>
			<g>
				<path fill="#00D44A" d="M45.44,73.756c13.178,1.113,22.96,12.699,21.847,25.875c-1.11,13.18-12.698,22.961-25.878,21.848
					c-13.177-1.112-22.959-12.697-21.845-25.875C20.676,82.425,32.263,72.643,45.44,73.756z"/>
			</g>
		</g>
		<path opacity="0.1" fill="#FFFFFF" d="M62.885,83.147c7.73,10.817,5.231,25.854-5.588,33.584
			c-10.816,7.73-25.852,5.23-33.583-5.587"/>
		<g>
			<g>
				<g opacity="0.1">
					<circle cx="145.021" cy="159.262" r="12.475"/>
				</g>
				<g>
					<circle fill="#76FF02" cx="143.125" cy="157.365" r="12.475"/>
				</g>
			</g>
			<path opacity="0.1" fill="#231F20" d="M130.104,156.826c-0.089,7.26,5.723,13.217,12.983,13.307
				c7.26,0.09,13.217-5.723,13.307-12.982L130.104,156.826z"/>
		</g>
		<path opacity="0.25" fill="#FFFFFF" d="M88.37,50.323c4.519,7.884,1.795,17.939-6.09,22.459
			c-7.884,4.52-17.943,1.789-22.461-6.093"/>
		<g>
			<g opacity="0.1">
				<circle cx="123.717" cy="63.672" r="30.853"/>
			</g>
			<g>
				<circle fill="#00D44A" cx="120.925" cy="60.88" r="30.853"/>
			</g>
		</g>
		<path opacity="0.1" fill="#FFFFFF" d="M146.887,44.71c9.686,13.548,6.551,32.384-6.997,42.067
			c-13.55,9.686-32.383,6.552-42.069-6.996"/>
	</g>
</g>
<g id="globe1" display="none">
	<g display="inline">
		<circle fill="#2979FF" cx="100" cy="100.001" r="100"/>
		<g>
			<g opacity="0.1">
				<circle cx="91.848" cy="91.848" r="78.645"/>
			</g>
			<g>
				<circle fill="#00AFFF" cx="89.951" cy="89.952" r="78.645"/>
			</g>
		</g>
		<g>
			<g opacity="0.1">
				<path d="M92.106,77.135c0,9.315-7.555,16.869-16.873,16.869S58.362,86.45,58.362,77.135c0-9.319,7.553-16.872,16.871-16.872
					S92.106,67.815,92.106,77.135z"/>
			</g>
			<g>
				<circle fill="#00D44A" cx="73.338" cy="75.238" r="16.872"/>
			</g>
		</g>
		<g>
			<g opacity="0.1">
				<path d="M82.37,140.569c0,10.361-8.396,18.758-18.757,18.758c-10.358,0-18.755-8.396-18.755-18.758
					c0-10.356,8.396-18.753,18.755-18.753C73.974,121.816,82.37,130.213,82.37,140.569z"/>
			</g>
			<g>
				<path fill="#00D44A" d="M80.474,138.673c0,10.361-8.397,18.758-18.757,18.758c-10.358,0-18.755-8.396-18.755-18.758
					c0-10.356,8.397-18.753,18.755-18.753C72.077,119.92,80.474,128.316,80.474,138.673z"/>
			</g>
		</g>
		<g>
			<g opacity="0.1">
				<circle cx="146.834" cy="146.388" r="17.584"/>
			</g>
			<g>
				<circle fill="#00D44A" cx="144.938" cy="144.491" r="17.584"/>
			</g>
		</g>
		<g>
			<g opacity="0.1">
				<circle cx="161.909" cy="102.42" r="12.56"/>
			</g>
			<g>
				<circle fill="#00D44A" cx="160.013" cy="100.524" r="12.56"/>
			</g>
		</g>
		<g>
			<g opacity="0.1">
				<circle cx="139.296" cy="126.916" r="11.302"/>
			</g>
			<g>
				<circle fill="#76FF02" cx="137.4" cy="125.02" r="11.302"/>
			</g>
		</g>
		<g>
			<g opacity="0.1">
				<circle cx="174.89" cy="119.381" r="6.07"/>
			</g>
			<g>
				<circle fill="#76FF02" cx="172.993" cy="117.484" r="6.07"/>
			</g>
		</g>
		<g>
			<g opacity="0.1">
				<circle cx="150.292" cy="72.901" r="9.106"/>
			</g>
			<g>
				<circle fill="#00D44A" cx="148.395" cy="71.005" r="9.106"/>
			</g>
		</g>
		<g>
			<g opacity="0.1">
				<path d="M186.755,61.673c0,9.098-7.378,16.477-16.477,16.477c-9.102,0-16.475-7.379-16.475-16.477
					c0-9.096,7.373-16.473,16.475-16.473C179.377,45.2,186.755,52.578,186.755,61.673z"/>
			</g>
			<g>
				<path fill="#00D44A" d="M183.324,58.243c0,9.098-7.378,16.477-16.477,16.477c-9.102,0-16.475-7.379-16.475-16.477
					c0-9.096,7.373-16.473,16.475-16.473C175.946,41.77,183.324,49.147,183.324,58.243z"/>
			</g>
		</g>
		<g>
			<g opacity="0.1">
				<circle cx="181.558" cy="88.568" r="14.454"/>
			</g>
			<g>
				<circle fill="#00D44A" cx="178.548" cy="85.558" r="14.454"/>
			</g>
		</g>
		<g>
			<g opacity="0.1">
				<circle cx="50.36" cy="118.059" r="8.707"/>
			</g>
			<g>
				<circle fill="#00D44A" cx="48.464" cy="116.162" r="8.707"/>
			</g>
		</g>
		<g>
			<g opacity="0.1">
				<circle cx="57.392" cy="90.894" r="21.837"/>
			</g>
			<g>
				<circle fill="#00D44A" cx="55.496" cy="88.998" r="21.838"/>
			</g>
		</g>
		<g>
			<g opacity="0.1">
				<circle cx="61.498" cy="92.307" r="12.476"/>
			</g>
			<g>
				<circle fill="#76FF02" cx="59.602" cy="90.411" r="12.475"/>
			</g>
		</g>
		<g>
			<g opacity="0.1">
				<circle cx="104.438" cy="51.544" r="12.474"/>
			</g>
			<g>
				<circle fill="#00D44A" cx="102.542" cy="49.648" r="12.474"/>
			</g>
		</g>
		<g>
			<g opacity="0.1">
				<circle cx="62.356" cy="160.833" r="12.475"/>
			</g>
			<g>
				<circle fill="#76FF02" cx="60.46" cy="158.937" r="12.475"/>
			</g>
		</g>
		<g>
			<g opacity="0.1">
				<circle cx="175.509" cy="142.621" r="3.567"/>
			</g>
			<g>
				<circle fill="#76FF02" cx="173.613" cy="140.725" r="3.567"/>
			</g>
		</g>
		<g>
			<g opacity="0.1">
				<circle cx="147.195" cy="165.993" r="11.518"/>
			</g>
			<g>
				<circle fill="#76FF02" cx="144.87" cy="163.668" r="11.518"/>
			</g>
		</g>
		<g>
			<g opacity="0.1">
				<path d="M140.258,75.652c13.178,1.112,22.96,12.699,21.847,25.875c-1.11,13.181-12.698,22.962-25.878,21.849
					c-13.177-1.112-22.959-12.697-21.845-25.876C115.494,84.321,127.081,74.539,140.258,75.652z"/>
			</g>
			<g>
				<path fill="#00D44A" d="M138.361,73.756c13.178,1.113,22.96,12.699,21.847,25.875c-1.11,13.18-12.698,22.961-25.878,21.848
					c-13.177-1.112-22.959-12.697-21.845-25.875C113.598,82.425,125.185,72.643,138.361,73.756z"/>
			</g>
		</g>
		<path opacity="0.1" fill="#FFFFFF" d="M155.807,83.147c7.73,10.817,5.231,25.854-5.588,33.584
			c-10.816,7.73-25.852,5.23-33.583-5.587"/>
		<path opacity="0.1" fill="#231F20" d="M46.582,89.872c-0.088,7.26,5.723,13.216,12.983,13.307
			c7.259,0.089,13.217-5.723,13.307-12.982L46.582,89.872z"/>
		<path opacity="0.25" fill="#FFFFFF" d="M181.291,50.323c4.519,7.884,1.795,17.939-6.09,22.459
			c-7.884,4.52-17.943,1.789-22.461-6.093"/>
		<g>
			<g opacity="0.1">
				<circle cx="51.995" cy="49.812" r="20.953"/>
			</g>
			<g>
				<circle fill="#00D44A" cx="50.099" cy="47.917" r="20.953"/>
			</g>
		</g>
		<path opacity="0.1" fill="#FFFFFF" d="M67.731,36.935c6.578,9.201,4.449,21.993-4.752,28.569
			c-9.202,6.578-21.991,4.45-28.569-4.751"/>
	</g>
</g>
<g id="network">
	<g id="lines">
		
			<polyline fill="none" stroke="#FE80AB" stroke-width="3" stroke-linecap="round" stroke-linejoin="round" stroke-miterlimit="10" points="
			13.772,81.258 122.794,90.999 132.802,131.032 122.794,161.056 182.842,90.999 92.771,101.007 12.706,80.991 		"/>
		
			<line fill="none" stroke="#FE80AB" stroke-width="3" stroke-miterlimit="10" x1="122.794" y1="90.999" x2="122.794" y2="161.056"/>
		
			<polyline fill="none" stroke="#FE80AB" stroke-width="3" stroke-linecap="round" stroke-linejoin="round" stroke-miterlimit="10" points="
			122.794,161.056 102.778,50.811 121.996,90.928 		"/>
		<line fill="none" stroke="#FE80AB" stroke-width="3" stroke-miterlimit="10" x1="10.522" y1="80.992" x2="22.715" y2="110.857"/>
		<polygon fill="none" stroke="#FE80AB" stroke-width="3" stroke-miterlimit="10" points="22.715,110.857 92.771,101.007 
			32.264,160.619 		"/>
	</g>
	<g id="nodes">
		<g opacity="0.1">
			<circle cx="14.706" cy="82.992" r="5.004"/>
			<circle cx="24.714" cy="112.858" r="5.004"/>
			<circle cx="94.771" cy="103.007" r="5.004"/>
			<circle cx="34.263" cy="162.619" r="5.004"/>
			<circle cx="124.794" cy="163.056" r="5.004"/>
			<circle cx="134.802" cy="133.032" r="5.004"/>
			<circle cx="124.794" cy="92.999" r="5.004"/>
			<circle cx="104.778" cy="52.811" r="5.004"/>
			<circle cx="184.842" cy="92.999" r="5.004"/>
		</g>
		<g>
			<g>
				<circle fill="#EC407A" cx="12.706" cy="80.992" r="5.004"/>
				<circle fill="#EC407A" cx="22.714" cy="110.858" r="5.004"/>
				<circle fill="#EC407A" cx="92.771" cy="101.007" r="5.004"/>
				<circle fill="#EC407A" cx="32.263" cy="160.619" r="5.004"/>
				<circle fill="#EC407A" cx="122.794" cy="161.056" r="5.004"/>
				<circle fill="#EC407A" cx="132.802" cy="131.032" r="5.004"/>
				<circle fill="#EC407A" cx="122.794" cy="90.999" r="5.004"/>
				<circle fill="#EC407A" cx="102.778" cy="50.811" r="5.004"/>
				<circle fill="#EC407A" cx="182.842" cy="90.999" r="5.004"/>
			</g>
		</g>
	</g>
</g>
</svg>
