<?xml version="1.0" encoding="utf-8"?>
<!-- Generator: Adobe Illustrator 16.0.4, SVG Export Plug-In . SVG Version: 6.00 Build 0)  -->
<!DOCTYPE svg PUBLIC "-//W3C//DTD SVG 1.1//EN" "http://www.w3.org/Graphics/SVG/1.1/DTD/svg11.dtd">
<svg version="1.1" id="Layer_1" xmlns="http://www.w3.org/2000/svg" xmlns:xlink="http://www.w3.org/1999/xlink" x="0px" y="0px"
	 width="200px" height="200px" viewBox="0 0 200 200" enable-background="new 0 0 200 200" xml:space="preserve">
<g>
	<circle fill="#2979FF" cx="100" cy="100.003" r="100"/>
	<g>
		<g opacity="0.1">
			<circle cx="91.848" cy="91.849" r="78.645"/>
		</g>
		<g>
			<circle fill="#00AFFF" cx="89.952" cy="89.953" r="78.645"/>
		</g>
	</g>
	<g>
		<g opacity="0.1">
			<circle cx="75.235" cy="77.135" r="16.872"/>
		</g>
		<g>
			<circle fill="#00D44A" cx="73.339" cy="75.239" r="16.872"/>
		</g>
	</g>
	<g>
		<g opacity="0.1">
			<path d="M82.371,140.572c0,10.361-8.397,18.759-18.757,18.759c-10.358,0-18.755-8.397-18.755-18.759
				c0-10.357,8.397-18.753,18.755-18.753C73.973,121.819,82.371,130.215,82.371,140.572z"/>
		</g>
		<g>
			<path fill="#00D44A" d="M80.475,138.676c0,10.361-8.397,18.759-18.757,18.759c-10.358,0-18.755-8.397-18.755-18.759
				c0-10.357,8.397-18.753,18.755-18.753C72.077,119.923,80.475,128.318,80.475,138.676z"/>
		</g>
	</g>
	<g>
		<g opacity="0.1">
			<circle cx="146.834" cy="146.391" r="17.584"/>
		</g>
		<g>
			<circle fill="#00D44A" cx="144.938" cy="144.494" r="17.584"/>
		</g>
	</g>
	<g>
		<g opacity="0.1">
			<circle cx="161.91" cy="102.422" r="12.56"/>
		</g>
		<g>
			<circle fill="#00D44A" cx="160.013" cy="100.526" r="12.56"/>
		</g>
	</g>
	<g>
		<g opacity="0.1">
			<circle cx="139.296" cy="126.919" r="11.302"/>
		</g>
		<g>
			<circle fill="#76FF02" cx="137.4" cy="125.022" r="11.302"/>
		</g>
	</g>
	<g>
		<g opacity="0.1">
			<circle cx="174.89" cy="119.384" r="6.07"/>
		</g>
		<g>
			<circle fill="#76FF02" cx="172.994" cy="117.487" r="6.07"/>
		</g>
	</g>
	<g>
		<g opacity="0.1">
			<circle cx="150.292" cy="72.903" r="9.106"/>
		</g>
		<g>
			<circle fill="#00D44A" cx="148.396" cy="71.007" r="9.106"/>
		</g>
	</g>
	<g>
		<g opacity="0.1">
			<path d="M186.755,61.675c0,9.097-7.378,16.477-16.476,16.477c-9.102,0-16.476-7.38-16.476-16.477
				c0-9.096,7.374-16.474,16.476-16.474C179.377,45.201,186.755,52.579,186.755,61.675z"/>
		</g>
		<g>
			<path fill="#00D44A" d="M183.324,58.245c0,9.097-7.378,16.477-16.476,16.477c-9.102,0-16.476-7.38-16.476-16.477
				c0-9.096,7.374-16.474,16.476-16.474C175.946,41.771,183.324,49.148,183.324,58.245z"/>
		</g>
	</g>
	<g>
		<g opacity="0.1">
			<path d="M196.012,88.57c0,7.98-6.473,14.452-14.455,14.452c-7.979,0-14.452-6.472-14.452-14.452
				c0-7.985,6.473-14.454,14.452-14.454C189.539,74.116,196.012,80.585,196.012,88.57z"/>
		</g>
		<g>
			<path fill="#00D44A" d="M193.002,85.56c0,7.98-6.473,14.452-14.455,14.452c-7.979,0-14.452-6.472-14.452-14.452
				c0-7.985,6.473-14.454,14.452-14.454C186.529,71.106,193.002,77.575,193.002,85.56z"/>
		</g>
	</g>
	<g>
		<g opacity="0.1">
			<circle cx="50.36" cy="118.062" r="8.707"/>
		</g>
		<g>
			<circle fill="#00D44A" cx="48.464" cy="116.165" r="8.707"/>
		</g>
	</g>
	<g>
		<g opacity="0.1">
			<circle cx="57.392" cy="90.895" r="21.837"/>
		</g>
		<g>
			<circle fill="#00D44A" cx="55.496" cy="88.999" r="21.837"/>
		</g>
	</g>
	<g>
		<g opacity="0.1">
			<circle cx="61.498" cy="92.308" r="12.475"/>
		</g>
		<g>
			<circle fill="#76FF02" cx="59.602" cy="90.412" r="12.475"/>
		</g>
	</g>
	<g>
		<g opacity="0.1">
			<circle cx="104.439" cy="51.545" r="12.474"/>
		</g>
		<g>
			<circle fill="#00D44A" cx="102.542" cy="49.649" r="12.474"/>
		</g>
	</g>
	<g>
		<g opacity="0.1">
			<circle cx="62.356" cy="160.837" r="12.475"/>
		</g>
		<g>
			<circle fill="#76FF02" cx="60.46" cy="158.94" r="12.475"/>
		</g>
	</g>
	<g>
		<g opacity="0.1">
			<circle cx="175.51" cy="142.623" r="3.566"/>
		</g>
		<g>
			<circle fill="#76FF02" cx="173.613" cy="140.727" r="3.566"/>
		</g>
	</g>
	<g>
		<g opacity="0.1">
			<path d="M158.714,165.996c0,6.359-5.16,11.515-11.519,11.515c-6.36,0-11.518-5.155-11.518-11.515
				c0-6.361,5.157-11.521,11.518-11.521C153.554,154.476,158.714,159.635,158.714,165.996z"/>
		</g>
		<g>
			<path fill="#76FF02" d="M156.389,163.671c0,6.359-5.16,11.515-11.519,11.515c-6.36,0-11.518-5.155-11.518-11.515
				c0-6.361,5.157-11.521,11.518-11.521C151.229,152.15,156.389,157.31,156.389,163.671z"/>
		</g>
	</g>
	<g>
		<g opacity="0.1">
			<path d="M140.258,75.653c13.178,1.113,22.961,12.7,21.848,25.876c-1.11,13.183-12.699,22.964-25.879,21.851
				c-13.176-1.113-22.959-12.698-21.844-25.878C115.495,84.323,127.081,74.54,140.258,75.653z"/>
		</g>
		<g>
			<path fill="#00D44A" d="M138.361,73.757c13.178,1.113,22.961,12.7,21.848,25.876c-1.11,13.183-12.699,22.964-25.879,21.851
				c-13.176-1.113-22.959-12.698-21.844-25.878C113.599,82.427,125.185,72.644,138.361,73.757z"/>
		</g>
	</g>
	<path opacity="0.1" fill="#FFFFFF" d="M155.807,83.15c7.731,10.816,5.232,25.854-5.588,33.585
		c-10.816,7.73-25.851,5.23-33.582-5.589"/>
	<path opacity="0.1" fill="#231F20" d="M46.582,89.874c-0.088,7.26,5.723,13.216,12.984,13.308
		c7.259,0.088,13.217-5.724,13.306-12.983L46.582,89.874z"/>
	<path opacity="0.25" fill="#FFFFFF" d="M181.291,50.324c4.519,7.884,1.795,17.938-6.09,22.46
		c-7.883,4.52-17.942,1.789-22.461-6.094"/>
	<g>
		<g opacity="0.1">
			<circle cx="51.995" cy="49.814" r="20.953"/>
		</g>
		<g>
			<circle fill="#00D44A" cx="50.099" cy="47.918" r="20.953"/>
		</g>
	</g>
	<path opacity="0.1" fill="#FFFFFF" d="M67.731,36.937c6.578,9.201,4.449,21.993-4.752,28.568c-9.202,6.578-21.991,4.45-28.569-4.75
		"/>
</g>
</svg>
