<?xml version="1.0" encoding="utf-8"?>
<!-- Generator: Adobe Illustrator 16.0.4, SVG Export Plug-In . SVG Version: 6.00 Build 0)  -->
<!DOCTYPE svg PUBLIC "-//W3C//DTD SVG 1.1//EN" "http://www.w3.org/Graphics/SVG/1.1/DTD/svg11.dtd">
<svg version="1.1" id="Layer_1" xmlns="http://www.w3.org/2000/svg" xmlns:xlink="http://www.w3.org/1999/xlink" x="0px" y="0px"
	 width="200px" height="200px" viewBox="0 0 200 200" enable-background="new 0 0 200 200" xml:space="preserve">
<g>
	<circle fill="#2979FF" cx="100" cy="100.001" r="100"/>
	<g>
		<g opacity="0.1">
			<circle cx="91.848" cy="91.847" r="78.645"/>
		</g>
		<g>
			<circle fill="#00AFFF" cx="89.951" cy="89.951" r="78.644"/>
		</g>
	</g>
	<g>
		<g opacity="0.1">
			<path d="M104.532,100.711c0,10.361-8.397,18.758-18.757,18.758c-10.358,0-18.756-8.397-18.756-18.758
				c0-10.356,8.397-18.752,18.756-18.752C96.135,81.959,104.532,90.355,104.532,100.711z"/>
		</g>
		<g>
			<path fill="#00D44A" d="M102.636,98.815c0,10.36-8.397,18.758-18.756,18.758c-10.358,0-18.756-8.397-18.756-18.758
				c0-10.356,8.397-18.752,18.756-18.752C94.239,80.063,102.636,88.459,102.636,98.815z"/>
		</g>
	</g>
	<g>
		<g opacity="0.1">
			<circle cx="17.975" cy="98.039" r="6.07"/>
		</g>
		<g>
			<circle fill="#76FF02" cx="16.079" cy="96.143" r="6.07"/>
		</g>
	</g>
	<g>
		<g opacity="0.1">
			<circle cx="115.044" cy="115.044" r="4.102"/>
		</g>
		<g>
			<circle fill="#00D44A" cx="114.189" cy="114.189" r="4.102"/>
		</g>
	</g>
	<g>
		<g opacity="0.1">
			<path d="M48.869,61.674c0,9.097-7.378,16.476-16.477,16.476c-9.102,0-16.475-7.379-16.475-16.476
				c0-9.096,7.373-16.473,16.475-16.473C41.491,45.201,48.869,52.578,48.869,61.674z"/>
		</g>
		<g>
			<path fill="#00D44A" d="M45.438,58.243c0,9.097-7.378,16.476-16.477,16.476c-9.102,0-16.475-7.379-16.475-16.476
				c0-9.096,7.373-16.473,16.475-16.473C38.06,41.771,45.438,49.147,45.438,58.243z"/>
		</g>
	</g>
	<g>
		<g opacity="0.1">
			<circle cx="43.671" cy="88.568" r="14.454"/>
		</g>
		<g>
			<circle fill="#00D44A" cx="40.662" cy="85.558" r="14.454"/>
		</g>
	</g>
	<g>
		<g opacity="0.1">
			<circle cx="109.518" cy="84.425" r="12.475"/>
		</g>
		<g>
			<circle fill="#76FF02" cx="107.621" cy="82.529" r="12.474"/>
		</g>
	</g>
	<g>
		<g opacity="0.1">
			<circle cx="11.905" cy="121.992" r="3.567"/>
		</g>
		<g>
			<circle fill="#76FF02" cx="10.009" cy="120.096" r="3.567"/>
		</g>
	</g>
	<g>
		<g>
			<g opacity="0.1">
				<circle cx="78.698" cy="169.269" r="12.475"/>
			</g>
			<g>
				<circle fill="#76FF02" cx="76.802" cy="167.372" r="12.475"/>
			</g>
		</g>
		<path opacity="0.1" fill="#231F20" d="M63.782,166.833c-0.089,7.26,5.723,13.216,12.983,13.306
			c7.26,0.09,13.217-5.722,13.307-12.981L63.782,166.833z"/>
	</g>
	<path opacity="0.25" fill="#FFFFFF" d="M43.405,50.323c4.519,7.884,1.795,17.939-6.09,22.458
		c-7.884,4.52-17.943,1.789-22.461-6.092"/>
	<g>
		<g opacity="0.1">
			<circle cx="78.752" cy="63.673" r="30.853"/>
		</g>
		<g>
			<circle fill="#00D44A" cx="75.96" cy="60.881" r="30.853"/>
		</g>
	</g>
	<path opacity="0.1" fill="#FFFFFF" d="M101.922,44.711c9.686,13.548,6.551,32.383-6.997,42.067
		c-13.55,9.685-32.383,6.551-42.069-6.996"/>
	<g>
		<g opacity="0.1">
			<circle cx="185.092" cy="86.769" r="11.341"/>
		</g>
		<g>
			<circle fill="#00D44A" cx="183.818" cy="85.495" r="11.341"/>
		</g>
	</g>
	<g>
		<g opacity="0.1">
			<path d="M189.889,129.408c0,6.965-5.645,12.609-12.608,12.609c-6.962,0-12.607-5.645-12.607-12.609
				c0-6.96,5.646-12.604,12.607-12.604C184.244,116.804,189.889,122.448,189.889,129.408z"/>
		</g>
		<g>
			<path fill="#00D44A" d="M188.614,128.134c0,6.965-5.645,12.609-12.608,12.609c-6.962,0-12.607-5.645-12.607-12.609
				c0-6.96,5.646-12.604,12.607-12.604C182.97,115.529,188.614,121.174,188.614,128.134z"/>
		</g>
	</g>
	<g>
		<g opacity="0.1">
			<circle cx="168.372" cy="114.277" r="5.853"/>
		</g>
		<g>
			<circle fill="#00D44A" cx="167.097" cy="113.003" r="5.853"/>
		</g>
	</g>
	<g>
		<g opacity="0.1">
			<circle cx="173.099" cy="96.018" r="14.679"/>
		</g>
		<g>
			<circle fill="#00D44A" cx="171.825" cy="94.743" r="14.679"/>
		</g>
	</g>
	<g>
		<g opacity="0.1">
			<circle cx="175.858" cy="96.968" r="8.386"/>
		</g>
		<g>
			<circle fill="#76FF02" cx="174.584" cy="95.693" r="8.386"/>
		</g>
	</g>
	<g>
		<g opacity="0.1">
			<circle cx="176.435" cy="143.029" r="8.385"/>
		</g>
		<g>
			<circle fill="#76FF02" cx="175.161" cy="141.755" r="8.385"/>
		</g>
	</g>
	<path opacity="0.1" fill="#231F20" d="M165.832,95.331c-0.06,4.88,3.847,8.884,8.728,8.944c4.88,0.061,8.884-3.847,8.944-8.727
		L165.832,95.331z"/>
	<g>
		<g opacity="0.1">
			<circle cx="169.471" cy="68.404" r="14.084"/>
		</g>
		<g>
			<circle fill="#00D44A" cx="168.197" cy="67.129" r="14.084"/>
		</g>
	</g>
	<path opacity="0.1" fill="#FFFFFF" d="M180.049,59.748c4.422,6.184,2.99,14.784-3.194,19.204
		c-6.186,4.421-14.783,2.99-19.205-3.194"/>
</g>
</svg>
