<?xml version="1.0" encoding="utf-8"?>
<!-- Generator: Adobe Illustrator 16.0.4, SVG Export Plug-In . SVG Version: 6.00 Build 0)  -->
<!DOCTYPE svg PUBLIC "-//W3C//DTD SVG 1.1//EN" "http://www.w3.org/Graphics/SVG/1.1/DTD/svg11.dtd">
<svg version="1.1" id="Layer_1" xmlns="http://www.w3.org/2000/svg" xmlns:xlink="http://www.w3.org/1999/xlink" x="0px" y="0px"
	 width="120px" height="120px" viewBox="0 0 120 120" enable-background="new 0 0 120 120" xml:space="preserve">
<g>
	<defs>
		<circle id="SVGID_1_" cx="60" cy="60" r="60"/>
	</defs>
	<clipPath id="SVGID_2_">
		<use xlink:href="#SVGID_1_"  overflow="visible"/>
	</clipPath>
	<g clip-path="url(#SVGID_2_)">
		<rect x="-22" y="-2" fill="#DBEB8D" width="272" height="152"/>
		<rect x="-22" y="79" fill="#9BCC62" width="211" height="40"/>
		<path fill="#EDC947" d="M170.61,44c0,0-15.198-0.556-15.198-14.275c0-13.719,15.779-13.725,15.779-13.725h2.241
			c0,0,20.633,0.131,20.633-18H250v46H170.61z"/>
		<path fill="#CCE065" d="M250,41h-40.922c0,0-11.432,27-62.506,27H63v20h106.737l10.854,30.174L250,117.911V41z"/>
		<circle fill="#CCE065" cx="63.471" cy="78.223" r="10.133"/>
		<path fill="#A3D96C" d="M-22,150h201.769l0.119-52.396c0,0-0.938-12.604-15.649-12.604h-60.906c0,0-4.033,0.037-4.033,3.203
			s3.856,3.514,3.856,3.514s4.785,0.09,4.785,4.94c0,4.85-5.054,4.343-5.054,4.343h-6.122c0,0-13.713,0.064-33.816,8.885
			c-18.458,8.1-20.253,9.261-50.877,9.261L-22,119.072V150z"/>
		<path fill="#F5A262" d="M-22,44H88.265c0,0,12.276-0.062,12.276-12.059S88.236,20,88.236,20H72.325c0,0-4.544,0.029-4.544-4.021
			c0-4.061,4.478-3.979,4.478-3.979h29.833c0,0,14.412-0.172,14.412-14H-22V44z"/>
		<path fill="#F5D562" d="M-21.817,71.121h78.754c0,0,4.236-0.063,4.236-3.98c0-3.916-4.236-3.873-4.236-3.873h-4.474
			c0,0-7.645,0-7.645-6.369c0-7.381,7.645-7.22,7.645-7.22H70.44c0,0,7.007,0.425,7.007-5.946c0-6.369-7.432-6.369-7.432-6.369
			h-91.833V71.121z"/>
		<path fill="#9BCC62" d="M250.092,115.8V150H147.385c0-33.815,31.905-34.2,31.905-34.2H250.092z"/>
	</g>
</g>
</svg>
