<?xml version="1.0" encoding="utf-8"?>
<!-- Generator: Adobe Illustrator 16.0.4, SVG Export Plug-In . SVG Version: 6.00 Build 0)  -->
<!DOCTYPE svg PUBLIC "-//W3C//DTD SVG 1.1//EN" "http://www.w3.org/Graphics/SVG/1.1/DTD/svg11.dtd">
<svg version="1.1" id="Layer_1" xmlns="http://www.w3.org/2000/svg" xmlns:xlink="http://www.w3.org/1999/xlink" x="0px" y="0px"
	 width="120px" height="120px" viewBox="0 0 120 120" enable-background="new 0 0 120 120" xml:space="preserve">
<g>
	<defs>
		<path id="SVGID_1_" d="M0,60.001C0,93.137,26.863,120,60,120c33.138,0,60-26.863,60-59.999C120,26.864,93.138,0,60,0
			C26.863,0,0,26.864,0,60.001"/>
	</defs>
	<clipPath id="SVGID_2_">
		<use xlink:href="#SVGID_1_"  overflow="visible"/>
	</clipPath>
	<rect x="-0.684" y="-0.708" clip-path="url(#SVGID_2_)" fill="#F4511D" width="124.045" height="124.046"/>
	<path clip-path="url(#SVGID_2_)" fill="#D84315" d="M18.625,60.174c0-22.837,18.513-41.349,41.349-41.349
		c22.837,0,41.349,18.512,41.349,41.349c0,22.835-18.512,41.347-41.349,41.347C37.138,101.521,18.625,83.009,18.625,60.174"/>
	<path clip-path="url(#SVGID_2_)" fill="#E64A19" d="M25.518,60.174c0-19.03,15.426-34.458,34.457-34.458
		c19.029,0,34.455,15.428,34.455,34.458c0,19.029-15.426,34.456-34.455,34.456C40.943,94.63,25.518,79.203,25.518,60.174"/>
	<path clip-path="url(#SVGID_2_)" fill="#BF360B" d="M98.564,102.211c0-4.568,3.703-8.27,8.271-8.27s8.271,3.701,8.271,8.27
		c0,4.566-3.703,8.269-8.271,8.269S98.564,106.777,98.564,102.211"/>
	<path clip-path="url(#SVGID_2_)" fill="#A52715" d="M101.408,102.211c0-2.998,2.43-5.428,5.428-5.428
		c2.996,0,5.426,2.43,5.426,5.428c0,2.996-2.43,5.426-5.426,5.426C103.838,107.637,101.408,105.207,101.408,102.211"/>
	<path clip-path="url(#SVGID_2_)" fill="#BF360B" d="M18.712,11.934c0-4.567,3.702-8.271,8.269-8.271
		c4.568,0,8.271,3.703,8.271,8.271c0,4.566-3.702,8.27-8.271,8.27C22.414,20.203,18.712,16.5,18.712,11.934"/>
	<path clip-path="url(#SVGID_2_)" fill="#A52715" d="M21.555,11.934c0-2.997,2.43-5.428,5.428-5.428
		c2.996,0,5.426,2.431,5.426,5.428s-2.43,5.427-5.426,5.427C23.984,17.36,21.555,14.931,21.555,11.934"/>
	<path clip-path="url(#SVGID_2_)" fill="#BF360B" d="M66.951,0.218c0-4.566,3.702-8.27,8.27-8.27s8.27,3.703,8.27,8.27
		c0,4.567-3.702,8.271-8.27,8.271S66.951,4.785,66.951,0.218"/>
	<path clip-path="url(#SVGID_2_)" fill="#A52715" d="M69.794,0.218c0-2.997,2.43-5.427,5.427-5.427c2.998,0,5.428,2.43,5.428,5.427
		c0,2.998-2.43,5.427-5.428,5.427C72.224,5.645,69.794,3.216,69.794,0.218"/>
	<path clip-path="url(#SVGID_2_)" fill="#BF360B" d="M40.075,124.264c0-4.568,3.702-8.271,8.271-8.271
		c4.566,0,8.269,3.702,8.269,8.271c0,4.566-3.702,8.269-8.269,8.269C43.777,132.532,40.075,128.83,40.075,124.264"/>
	<path clip-path="url(#SVGID_2_)" fill="#A52715" d="M42.918,124.264c0-2.998,2.43-5.429,5.428-5.429
		c2.996,0,5.426,2.431,5.426,5.429c0,2.996-2.43,5.427-5.426,5.427C45.348,129.69,42.918,127.26,42.918,124.264"/>
	<path clip-path="url(#SVGID_2_)" fill="#BF360B" d="M-8.164,71.889c0-4.568,3.701-8.27,8.27-8.27c4.566,0,8.27,3.701,8.27,8.27
		c0,4.566-3.703,8.27-8.27,8.27C-4.463,80.158-8.164,76.455-8.164,71.889"/>
	<path clip-path="url(#SVGID_2_)" fill="#A52715" d="M-5.322,71.889c0-2.998,2.43-5.427,5.428-5.427
		c2.997,0,5.426,2.429,5.426,5.427c0,2.996-2.429,5.427-5.426,5.427C-2.893,77.315-5.322,74.885-5.322,71.889"/>
	<path clip-path="url(#SVGID_2_)" fill="#BF360B" d="M12.51,100.832c0-2.283,1.852-4.135,4.135-4.135s4.135,1.852,4.135,4.135
		s-1.852,4.135-4.135,4.135S12.51,103.115,12.51,100.832"/>
	<path clip-path="url(#SVGID_2_)" fill="#A52715" d="M13.932,100.832c0-1.498,1.215-2.713,2.713-2.713s2.713,1.215,2.713,2.713
		s-1.215,2.714-2.713,2.714S13.932,102.33,13.932,100.832"/>
	<path clip-path="url(#SVGID_2_)" fill="#BF360B" d="M89.607,115.993c0-2.284,1.852-4.136,4.134-4.136
		c2.284,0,4.135,1.852,4.135,4.136s-1.851,4.135-4.135,4.135C91.459,120.128,89.607,118.277,89.607,115.993"/>
	<path clip-path="url(#SVGID_2_)" fill="#A52715" d="M91.027,115.993c0-1.499,1.217-2.714,2.714-2.714
		c1.499,0,2.714,1.215,2.714,2.714s-1.215,2.713-2.714,2.713C92.244,118.706,91.027,117.492,91.027,115.993"/>
	<path clip-path="url(#SVGID_2_)" fill="#BF360B" d="M117.861,77.401c0-2.284,1.852-4.135,4.135-4.135s4.135,1.851,4.135,4.135
		s-1.852,4.136-4.135,4.136S117.861,79.686,117.861,77.401"/>
	<path clip-path="url(#SVGID_2_)" fill="#A52715" d="M119.283,77.401c0-1.499,1.215-2.713,2.713-2.713
		c1.499,0,2.713,1.214,2.713,2.713s-1.214,2.714-2.713,2.714C120.498,80.115,119.283,78.9,119.283,77.401"/>
	<path clip-path="url(#SVGID_2_)" fill="#BF360B" d="M56.528,8.488c0-2.284,1.851-4.135,4.135-4.135s4.134,1.851,4.134,4.135
		c0,2.282-1.85,4.134-4.134,4.134S56.528,10.771,56.528,8.488"/>
	<path clip-path="url(#SVGID_2_)" fill="#A52715" d="M57.949,8.488c0-1.499,1.215-2.715,2.714-2.715s2.714,1.216,2.714,2.715
		c0,1.498-1.215,2.713-2.714,2.713S57.949,9.986,57.949,8.488"/>
	<path clip-path="url(#SVGID_2_)" fill="#BF360B" d="M104.078,18.093c0-2.284,1.852-4.135,4.136-4.135
		c2.282,0,4.134,1.851,4.134,4.135s-1.852,4.136-4.134,4.136C105.93,22.229,104.078,20.377,104.078,18.093"/>
	<path clip-path="url(#SVGID_2_)" fill="#A52715" d="M105.5,18.093c0-1.499,1.215-2.714,2.714-2.714
		c1.498,0,2.714,1.215,2.714,2.714s-1.216,2.714-2.714,2.714C106.715,20.807,105.5,19.592,105.5,18.093"/>
	<path clip-path="url(#SVGID_2_)" fill="#BF360B" d="M-3.427,26.362c0-2.284,1.851-4.134,4.136-4.134
		c2.282,0,4.134,1.85,4.134,4.134c0,2.283-1.852,4.135-4.134,4.135C-1.576,30.497-3.427,28.646-3.427,26.362"/>
	<path clip-path="url(#SVGID_2_)" fill="#A52715" d="M-2.006,26.362c0-1.499,1.215-2.714,2.715-2.714
		c1.498,0,2.713,1.215,2.713,2.714c0,1.498-1.215,2.713-2.713,2.713C-0.791,29.075-2.006,27.86-2.006,26.362"/>
	<path clip-path="url(#SVGID_2_)" fill="#BF360B" d="M10.355,28.43c0-2.284,1.852-4.136,4.135-4.136s4.135,1.852,4.135,4.136
		s-1.852,4.135-4.135,4.135S10.355,30.714,10.355,28.43"/>
	<path clip-path="url(#SVGID_2_)" fill="#A52715" d="M11.777,28.43c0-1.499,1.215-2.714,2.713-2.714c1.5,0,2.714,1.215,2.714,2.714
		c0,1.498-1.214,2.714-2.714,2.714C12.992,31.144,11.777,29.928,11.777,28.43"/>
	<path clip-path="url(#SVGID_2_)" fill="#BF360B" d="M106.318,59.441c0-1.428,1.157-2.584,2.584-2.584
		c1.428,0,2.584,1.156,2.584,2.584c0,1.427-1.156,2.584-2.584,2.584C107.476,62.025,106.318,60.868,106.318,59.441"/>
	<path clip-path="url(#SVGID_2_)" fill="#A52715" d="M107.207,59.441c0-0.938,0.759-1.696,1.695-1.696
		c0.938,0,1.696,0.759,1.696,1.696c0,0.936-0.759,1.695-1.696,1.695C107.966,61.137,107.207,60.377,107.207,59.441"/>
	<path clip-path="url(#SVGID_2_)" fill="#BF360B" d="M103.562,35.363c0-1.427,1.157-2.584,2.585-2.584
		c1.427,0,2.584,1.157,2.584,2.584c0,1.428-1.157,2.584-2.584,2.584C104.719,37.947,103.562,36.791,103.562,35.363"/>
	<path clip-path="url(#SVGID_2_)" fill="#A52715" d="M104.449,35.363c0-0.936,0.76-1.695,1.697-1.695
		c0.937,0,1.695,0.76,1.695,1.695c0,0.938-0.759,1.696-1.695,1.696C105.209,37.06,104.449,36.301,104.449,35.363"/>
	<path clip-path="url(#SVGID_2_)" fill="#BF360B" d="M113.898,42.944c0-1.427,1.157-2.584,2.584-2.584
		c1.428,0,2.584,1.157,2.584,2.584c0,1.428-1.156,2.584-2.584,2.584C115.056,45.528,113.898,44.372,113.898,42.944"/>
	<path clip-path="url(#SVGID_2_)" fill="#A52715" d="M114.787,42.944c0-0.937,0.76-1.695,1.695-1.695
		c0.938,0,1.696,0.759,1.696,1.695s-0.759,1.696-1.696,1.696C115.547,44.641,114.787,43.881,114.787,42.944"/>
	<path clip-path="url(#SVGID_2_)" fill="#BF360B" d="M5.704,46.39c0-1.427,1.157-2.584,2.585-2.584c1.427,0,2.584,1.157,2.584,2.584
		c0,1.428-1.157,2.585-2.584,2.585C6.861,48.975,5.704,47.817,5.704,46.39"/>
	<path clip-path="url(#SVGID_2_)" fill="#A52715" d="M6.592,46.39c0-0.937,0.76-1.695,1.697-1.695c0.936,0,1.695,0.759,1.695,1.695
		c0,0.938-0.76,1.697-1.695,1.697C7.352,48.087,6.592,47.327,6.592,46.39"/>
	<path clip-path="url(#SVGID_2_)" fill="#BF360B" d="M31.202,101.521c0-1.426,1.157-2.584,2.584-2.584
		c1.429,0,2.585,1.158,2.585,2.584c0,1.428-1.156,2.585-2.585,2.585C32.359,104.105,31.202,102.948,31.202,101.521"/>
	<path clip-path="url(#SVGID_2_)" fill="#A52715" d="M32.09,101.521c0-0.937,0.76-1.695,1.696-1.695
		c0.938,0,1.696,0.759,1.696,1.695c0,0.938-0.759,1.697-1.696,1.697C32.85,103.218,32.09,102.458,32.09,101.521"/>
	<path clip-path="url(#SVGID_2_)" fill="#BF360B" d="M9.839,113.926c0-1.427,1.157-2.585,2.584-2.585s2.585,1.158,2.585,2.585
		s-1.158,2.584-2.585,2.584S9.839,115.353,9.839,113.926"/>
	<path clip-path="url(#SVGID_2_)" fill="#A52715" d="M10.729,113.926c0-0.938,0.758-1.696,1.694-1.696s1.696,0.759,1.696,1.696
		c0,0.937-0.76,1.696-1.696,1.696S10.729,114.862,10.729,113.926"/>
	<path clip-path="url(#SVGID_2_)" fill="#BF360B" d="M67.727,113.926c0-1.427,1.157-2.585,2.584-2.585
		c1.428,0,2.584,1.158,2.584,2.585s-1.156,2.584-2.584,2.584C68.884,116.51,67.727,115.353,67.727,113.926"/>
	<path clip-path="url(#SVGID_2_)" fill="#A52715" d="M68.615,113.926c0-0.938,0.76-1.696,1.695-1.696
		c0.938,0,1.696,0.759,1.696,1.696c0,0.937-0.759,1.696-1.696,1.696C69.375,115.622,68.615,114.862,68.615,113.926"/>
	<path clip-path="url(#SVGID_2_)" fill="#BF360B" d="M81.51,120.128c0-1.427,1.156-2.584,2.584-2.584s2.584,1.157,2.584,2.584
		s-1.156,2.585-2.584,2.585S81.51,121.555,81.51,120.128"/>
	<path clip-path="url(#SVGID_2_)" fill="#A52715" d="M82.398,120.128c0-0.937,0.759-1.696,1.695-1.696
		c0.936,0,1.695,0.76,1.695,1.696s-0.76,1.695-1.695,1.695C83.157,121.823,82.398,121.064,82.398,120.128"/>
	<path clip-path="url(#SVGID_2_)" fill="#BF360B" d="M84.955,99.453c0-1.427,1.156-2.584,2.584-2.584s2.584,1.157,2.584,2.584
		c0,1.428-1.156,2.586-2.584,2.586S84.955,100.881,84.955,99.453"/>
	<path clip-path="url(#SVGID_2_)" fill="#A52715" d="M85.844,99.453c0-0.936,0.759-1.695,1.695-1.695
		c0.938,0,1.696,0.76,1.696,1.695c0,0.938-0.759,1.696-1.696,1.696C86.603,101.149,85.844,100.391,85.844,99.453"/>
	<path clip-path="url(#SVGID_2_)" fill="#BF360B" d="M83.576,20.893c0-1.428,1.157-2.584,2.586-2.584
		c1.426,0,2.584,1.156,2.584,2.584c0,1.427-1.158,2.584-2.584,2.584C84.733,23.477,83.576,22.319,83.576,20.893"/>
	<path clip-path="url(#SVGID_2_)" fill="#A52715" d="M84.465,20.893c0-0.937,0.76-1.696,1.695-1.696c0.938,0,1.697,0.76,1.697,1.696
		c0,0.936-0.76,1.695-1.697,1.695C85.225,22.588,84.465,21.828,84.465,20.893"/>
	<path clip-path="url(#SVGID_2_)" fill="#BF360B" d="M102.184,77.401c0-1.428,1.156-2.584,2.584-2.584s2.584,1.156,2.584,2.584
		c0,1.427-1.156,2.584-2.584,2.584S102.184,78.828,102.184,77.401"/>
	<path clip-path="url(#SVGID_2_)" fill="#A52715" d="M103.072,77.401c0-0.937,0.759-1.696,1.695-1.696
		c0.938,0,1.695,0.76,1.695,1.696c0,0.938-0.758,1.695-1.695,1.695C103.831,79.097,103.072,78.339,103.072,77.401"/>
	<path clip-path="url(#SVGID_2_)" fill="#BF360B" d="M120.101,114.615c0-1.428,1.157-2.585,2.585-2.585s2.584,1.157,2.584,2.585
		c0,1.426-1.156,2.584-2.584,2.584S120.101,116.041,120.101,114.615"/>
	<path clip-path="url(#SVGID_2_)" fill="#A52715" d="M120.988,114.615c0-0.938,0.76-1.695,1.697-1.695
		c0.937,0,1.695,0.758,1.695,1.695c0,0.937-0.759,1.695-1.695,1.695C121.748,116.311,120.988,115.552,120.988,114.615"/>
	<path clip-path="url(#SVGID_2_)" fill="#D84315" d="M44.124,60.174c0-8.754,7.097-15.852,15.85-15.852
		c8.754,0,15.851,7.098,15.851,15.852c0,8.752-7.097,15.85-15.851,15.85C51.221,76.023,44.124,68.926,44.124,60.174"/>
	<path clip-path="url(#SVGID_2_)" fill="#FF5722" d="M46.191,60.174c0-7.613,6.17-13.784,13.783-13.784
		c7.611,0,13.781,6.171,13.781,13.784c0,7.611-6.17,13.782-13.781,13.782C52.361,73.956,46.191,67.785,46.191,60.174"/>
	<path clip-path="url(#SVGID_2_)" fill="#FFA725" d="M50.326,60.174c0-5.329,4.319-9.649,9.648-9.649
		c5.328,0,9.646,4.32,9.646,9.649c0,5.328-4.318,9.646-9.646,9.646C54.646,69.82,50.326,65.502,50.326,60.174"/>
</g>
</svg>
