<?xml version="1.0" encoding="utf-8"?>
<!-- Generator: Adobe Illustrator 16.0.4, SVG Export Plug-In . SVG Version: 6.00 Build 0)  -->
<!DOCTYPE svg PUBLIC "-//W3C//DTD SVG 1.1//EN" "http://www.w3.org/Graphics/SVG/1.1/DTD/svg11.dtd">
<svg version="1.1" id="Layer_1" xmlns="http://www.w3.org/2000/svg" xmlns:xlink="http://www.w3.org/1999/xlink" x="0px" y="0px"
	 width="120px" height="120px" viewBox="0 0 120 120" enable-background="new 0 0 120 120" xml:space="preserve">
<g>
	<defs>
		<path id="SVGID_1_" d="M0,60.001C0,93.138,26.863,120,60,120s60-26.862,60-59.999C120,26.863,93.137,0,60,0S0,26.863,0,60.001"/>
	</defs>
	<clipPath id="SVGID_2_">
		<use xlink:href="#SVGID_1_"  overflow="visible"/>
	</clipPath>
	<rect x="-1.835" y="-1.85" clip-path="url(#SVGID_2_)" fill="#FCE8B2" width="124.045" height="124.045"/>
	<path clip-path="url(#SVGID_2_)" fill="#FADA80" d="M102.6,15.866c0,15.965-12.943,28.907-28.907,28.907
		c-15.965,0-28.907-12.942-28.907-28.907s12.942-28.908,28.907-28.908C89.656-13.042,102.6-0.099,102.6,15.866"/>
	<path clip-path="url(#SVGID_2_)" fill="#F7CB4D" d="M97.122,15.084c0,12.94-10.489,23.432-23.43,23.432
		S50.262,28.024,50.262,15.084c0-12.939,10.49-23.431,23.431-23.431S97.122,2.145,97.122,15.084"/>
	<path clip-path="url(#SVGID_2_)" fill="#FADA80" d="M72.834,87.737c0,6.605-5.354,11.958-11.957,11.958S48.92,94.343,48.92,87.737
		c0-6.604,5.354-11.956,11.957-11.956S72.834,81.134,72.834,87.737"/>
	<path clip-path="url(#SVGID_2_)" fill="#F7CB4D" d="M69.388,87.737c0,4.701-3.811,8.513-8.511,8.513
		c-4.701,0-8.512-3.812-8.512-8.513s3.811-8.511,8.512-8.511C65.577,79.227,69.388,83.036,69.388,87.737"/>
	<path clip-path="url(#SVGID_2_)" fill="#FADA80" d="M32.864,103.588c0,13.836-11.216,25.051-25.05,25.051
		c-13.836,0-25.052-11.215-25.052-25.051c0-13.835,11.216-25.051,25.052-25.051C21.648,78.537,32.864,89.753,32.864,103.588"/>
	<path clip-path="url(#SVGID_2_)" fill="#F7CB4D" d="M28.173,104.278c0,11.397-9.24,20.636-20.638,20.636
		s-20.638-9.238-20.638-20.636c0-11.398,9.24-20.639,20.638-20.639S28.173,92.88,28.173,104.278"/>
	<path clip-path="url(#SVGID_2_)" fill="#FADA80" d="M138.991,80.157c0,13.836-11.216,25.052-25.051,25.052
		S88.89,93.993,88.89,80.157c0-13.834,11.216-25.05,25.051-25.05S138.991,66.323,138.991,80.157"/>
	<path clip-path="url(#SVGID_2_)" fill="#FADA80" d="M15.395,14.001c0,2.283-1.852,4.135-4.136,4.135
		c-2.283,0-4.135-1.852-4.135-4.135c0-2.284,1.852-4.135,4.135-4.135C13.543,9.866,15.395,11.717,15.395,14.001"/>
	<path clip-path="url(#SVGID_2_)" fill="#F7CB4D" d="M134.233,79.813c0,11.397-9.239,20.637-20.638,20.637
		c-11.397,0-20.637-9.239-20.637-20.637c0-11.398,9.239-20.638,20.637-20.638C124.994,59.176,134.233,68.415,134.233,79.813"/>
	<path clip-path="url(#SVGID_2_)" fill="#FFB74D" d="M40.922,19.924c0,4.737-3.841,8.578-8.578,8.578
		c-4.736,0-8.578-3.841-8.578-8.578s3.842-8.577,8.578-8.577C37.081,11.347,40.922,15.187,40.922,19.924"/>
	<path clip-path="url(#SVGID_2_)" fill="#FF9801" d="M38.854,19.924c0,3.596-2.915,6.511-6.511,6.511s-6.51-2.915-6.51-6.511
		c0-3.595,2.914-6.511,6.51-6.511S38.854,16.329,38.854,19.924"/>
	<path clip-path="url(#SVGID_2_)" fill="#FFB74D" d="M65.731,121.916c0,6.26-5.075,11.334-11.335,11.334
		s-11.334-5.074-11.334-11.334c0-6.259,5.074-11.333,11.334-11.333S65.731,115.657,65.731,121.916"/>
	<path clip-path="url(#SVGID_2_)" fill="#FF9801" d="M62.999,121.916c0,4.751-3.852,8.603-8.603,8.603
		c-4.752,0-8.603-3.852-8.603-8.603s3.851-8.602,8.603-8.602C59.147,113.314,62.999,117.165,62.999,121.916"/>
	<path clip-path="url(#SVGID_2_)" fill="#FFB74D" d="M14.046,33.018c0,7.783-6.31,14.091-14.091,14.091
		c-7.783,0-14.091-6.308-14.091-14.091c0-7.781,6.308-14.091,14.091-14.091C7.736,18.927,14.046,25.236,14.046,33.018"/>
	<path clip-path="url(#SVGID_2_)" fill="#FF9801" d="M10.649,33.018c0,5.907-4.789,10.695-10.694,10.695
		c-5.907,0-10.695-4.788-10.695-10.695c0-5.905,4.788-10.695,10.695-10.695C5.86,22.322,10.649,27.112,10.649,33.018"/>
	<path clip-path="url(#SVGID_2_)" fill="#FFB74D" d="M89.506,62.239c0,7.973-6.464,14.438-14.436,14.438
		s-14.436-6.465-14.436-14.438c0-7.972,6.464-14.435,14.436-14.435S89.506,54.268,89.506,62.239"/>
	<path clip-path="url(#SVGID_2_)" fill="#FFA725" d="M86.749,62.239c0,6.451-5.229,11.68-11.679,11.68s-11.679-5.229-11.679-11.68
		c0-6.448,5.229-11.679,11.679-11.679S86.749,55.791,86.749,62.239"/>
	<path clip-path="url(#SVGID_2_)" fill="#FADA80" d="M93.919,109.79c0,2.645-2.144,4.787-4.788,4.787
		c-2.643,0-4.787-2.143-4.787-4.787c0-2.644,2.145-4.787,4.787-4.787C91.775,105.003,93.919,107.146,93.919,109.79"/>
	<path clip-path="url(#SVGID_2_)" fill="#FFB74D" d="M83.992,91.355c0,2.645-2.143,4.788-4.787,4.788
		c-2.644,0-4.787-2.144-4.787-4.788c0-2.643,2.144-4.786,4.787-4.786C81.85,86.569,83.992,88.713,83.992,91.355"/>
	<path clip-path="url(#SVGID_2_)" fill="#FADA80" d="M30.927,59.229c0,5.514-4.47,9.982-9.981,9.982
		c-5.514,0-9.983-4.469-9.983-9.982c0-5.512,4.47-9.981,9.983-9.981C26.457,49.248,30.927,53.718,30.927,59.229"/>
	<path clip-path="url(#SVGID_2_)" fill="#F7CB4D" d="M28.858,59.229c0,4.372-3.543,7.915-7.913,7.915
		c-4.372,0-7.915-3.543-7.915-7.915c0-4.37,3.543-7.914,7.915-7.914C25.315,51.315,28.858,54.859,28.858,59.229"/>
	<path clip-path="url(#SVGID_2_)" fill="#FADA80" d="M132.918,33.732c0,5.512-4.469,9.981-9.981,9.981s-9.981-4.47-9.981-9.981
		c0-5.513,4.469-9.981,9.981-9.981S132.918,28.22,132.918,33.732"/>
	<path clip-path="url(#SVGID_2_)" fill="#F7CB4D" d="M130.852,33.732c0,4.371-3.543,7.915-7.915,7.915
		c-4.371,0-7.915-3.544-7.915-7.915c0-4.372,3.544-7.915,7.915-7.915C127.309,25.817,130.852,29.36,130.852,33.732"/>
	<path clip-path="url(#SVGID_2_)" fill="#FFB74D" d="M77.632,108.151c0,1.775-1.438,3.214-3.214,3.214s-3.215-1.438-3.215-3.214
		s1.439-3.214,3.215-3.214S77.632,106.376,77.632,108.151"/>
	<path clip-path="url(#SVGID_2_)" fill="#FFB74D" d="M39.21,67.753c0,1.775-1.438,3.215-3.214,3.215
		c-1.774,0-3.213-1.439-3.213-3.215s1.438-3.214,3.213-3.214C37.771,64.539,39.21,65.978,39.21,67.753"/>
	<path clip-path="url(#SVGID_2_)" fill="#FF8A65" d="M80.797,91.184c0,0.725-0.589,1.313-1.313,1.313s-1.312-0.589-1.312-1.313
		c0-0.726,0.588-1.312,1.312-1.312S80.797,90.458,80.797,91.184"/>
	<path clip-path="url(#SVGID_2_)" fill="#FADA80" d="M85.306,19.924c0,0.726-0.588,1.312-1.313,1.312
		c-0.725,0-1.312-0.587-1.312-1.312c0-0.725,0.588-1.312,1.312-1.312C84.718,18.612,85.306,19.199,85.306,19.924"/>
	<path clip-path="url(#SVGID_2_)" fill="#FF8A65" d="M55.987,62.239c0,0.727-0.587,1.313-1.312,1.313
		c-0.725,0-1.313-0.587-1.313-1.313c0-0.724,0.589-1.312,1.313-1.312C55.4,60.927,55.987,61.516,55.987,62.239"/>
	<path clip-path="url(#SVGID_2_)" fill="#FFB74D" d="M8.438,45.737c0,0.726-0.588,1.312-1.313,1.312
		c-0.725,0-1.312-0.587-1.312-1.312c0-0.725,0.588-1.313,1.312-1.313C7.85,44.424,8.438,45.013,8.438,45.737"/>
	<path clip-path="url(#SVGID_2_)" fill="#FFB74D" d="M25.079,87.264c0,0.725-0.588,1.312-1.313,1.312
		c-0.725,0-1.312-0.588-1.312-1.312c0-0.726,0.587-1.312,1.312-1.312C24.491,85.951,25.079,86.538,25.079,87.264"/>
	<path clip-path="url(#SVGID_2_)" fill="#FFB74D" d="M40.523,87.264c0,0.725-0.588,1.312-1.313,1.312
		c-0.724,0-1.312-0.588-1.312-1.312c0-0.726,0.588-1.312,1.312-1.312C39.936,85.951,40.523,86.538,40.523,87.264"/>
	<path clip-path="url(#SVGID_2_)" fill="#FF8A65" d="M40.523,104.938c0,0.725-0.588,1.312-1.313,1.312
		c-0.724,0-1.312-0.588-1.312-1.312c0-0.726,0.588-1.313,1.312-1.313C39.936,103.624,40.523,104.212,40.523,104.938"/>
	<path clip-path="url(#SVGID_2_)" fill="#FADA80" d="M8.438,75.92c0,0.726-0.588,1.313-1.313,1.313
		c-0.725,0-1.312-0.588-1.312-1.313c0-0.724,0.588-1.312,1.312-1.312C7.85,74.608,8.438,75.196,8.438,75.92"/>
	<path clip-path="url(#SVGID_2_)" fill="#FFB74D" d="M113.989,6.333c0,0.726-0.588,1.313-1.313,1.313
		c-0.725,0-1.312-0.588-1.312-1.313c0-0.725,0.588-1.312,1.312-1.312C113.401,5.021,113.989,5.608,113.989,6.333"/>
</g>
</svg>
