<?xml version="1.0" encoding="utf-8"?>
<!-- Generator: Adobe Illustrator 16.0.4, SVG Export Plug-In . SVG Version: 6.00 Build 0)  -->
<!DOCTYPE svg PUBLIC "-//W3C//DTD SVG 1.1//EN" "http://www.w3.org/Graphics/SVG/1.1/DTD/svg11.dtd">
<svg version="1.1" id="Layer_1" xmlns="http://www.w3.org/2000/svg" xmlns:xlink="http://www.w3.org/1999/xlink" x="0px" y="0px"
	 width="120px" height="120px" viewBox="0 0 120 120" enable-background="new 0 0 120 120" xml:space="preserve">
<g>
	<defs>
		<circle id="SVGID_1_" cx="60" cy="60" r="60"/>
	</defs>
	<clipPath id="SVGID_2_">
		<use xlink:href="#SVGID_1_"  overflow="visible"/>
	</clipPath>
	<g clip-path="url(#SVGID_2_)">
		<polygon fill="#029BE5" points="85.803,36.69 94.445,21.722 103.088,36.69 		"/>
		<polygon fill="#029BE5" points="103.016,36.69 111.658,21.722 120.3,36.69 		"/>
		<polygon fill="#29B6F6" points="111.675,21.722 103.033,36.69 94.391,21.722 		"/>
		<polygon fill="#80CBC4" points="128.925,21.722 120.283,36.69 111.641,21.722 		"/>
		<polygon fill="#46E5FF" points="120.266,36.69 128.908,21.722 137.55,36.69 		"/>
		<polygon fill="#029BE5" points="137.478,36.69 146.12,21.722 154.763,36.69 		"/>
		<polygon fill="#29B6F6" points="146.138,21.722 137.495,36.69 128.853,21.722 		"/>
		<polygon fill="#029BE5" points="94.466,21.766 103.108,6.797 111.75,21.766 		"/>
		<polygon fill="#80CBC4" points="103.125,6.797 94.483,21.766 85.841,6.797 		"/>
		<polygon fill="#80CBC4" points="120.375,6.797 111.733,21.766 103.091,6.797 		"/>
		<polygon fill="#46E5FF" points="111.716,21.766 120.358,6.797 129,21.766 		"/>
		<polygon fill="#029BE5" points="128.928,21.766 137.57,6.797 146.213,21.766 		"/>
		<polygon fill="#29B6F6" points="137.588,6.797 128.945,21.766 120.303,6.797 		"/>
		<polygon fill="#80CBC4" points="154.838,6.797 146.195,21.766 137.553,6.797 		"/>
		<polygon fill="#46E5FF" points="85.878,6.916 94.521,-8.054 103.162,6.916 		"/>
		<polygon fill="#029BE5" points="103.091,6.916 111.733,-8.054 120.375,6.916 		"/>
		<polygon fill="#29B6F6" points="111.75,-8.054 103.108,6.916 94.466,-8.054 		"/>
		<polygon fill="#80CBC4" points="129,-8.054 120.358,6.916 111.716,-8.054 		"/>
		<polygon fill="#46E5FF" points="120.341,6.916 128.983,-8.054 137.625,6.916 		"/>
		<polygon fill="#46E5FF" points="137.553,6.916 146.195,-8.054 154.838,6.916 		"/>
		<polygon fill="#29B6F6" points="146.213,-8.054 137.57,6.916 128.928,-8.054 		"/>
		<polygon fill="#029BE5" points="94.54,-8.01 103.183,-22.979 111.825,-8.01 		"/>
		<polygon fill="#29B6F6" points="103.2,-22.979 94.558,-8.01 85.915,-22.979 		"/>
		<polygon fill="#80CBC4" points="120.45,-22.979 111.808,-8.01 103.165,-22.979 		"/>
		<polygon fill="#46E5FF" points="111.79,-8.01 120.433,-22.979 129.075,-8.01 		"/>
		<polygon fill="#029BE5" points="129.003,-8.01 137.646,-22.979 146.287,-8.01 		"/>
		<polygon fill="#29B6F6" points="137.662,-22.979 129.021,-8.01 120.378,-22.979 		"/>
		<polygon fill="#29B6F6" points="154.912,-22.979 146.271,-8.01 137.628,-22.979 		"/>
		<rect x="94.433" y="-22.949" fill="none" width="51.825" height="59.601"/>
		<rect x="94.433" y="-22.949" fill="none" width="51.825" height="59.601"/>
		<polygon fill="#029BE5" points="85.803,96.291 94.445,81.322 103.088,96.291 		"/>
		<polygon fill="#029BE5" points="103.016,96.291 111.658,81.322 120.3,96.291 		"/>
		<polygon fill="#29B6F6" points="111.675,81.322 103.033,96.291 94.391,81.322 		"/>
		<polygon fill="#80CBC4" points="128.925,81.322 120.283,96.291 111.641,81.322 		"/>
		<polygon fill="#46E5FF" points="120.266,96.291 128.908,81.322 137.55,96.291 		"/>
		<polygon fill="#029BE5" points="137.478,96.291 146.12,81.322 154.763,96.291 		"/>
		<polygon fill="#29B6F6" points="146.138,81.322 137.495,96.291 128.853,81.322 		"/>
		<polygon fill="#029BE5" points="94.466,81.366 103.108,66.397 111.75,81.366 		"/>
		<polygon fill="#80CBC4" points="103.125,66.397 94.483,81.366 85.841,66.397 		"/>
		<polygon fill="#80CBC4" points="120.375,66.397 111.733,81.366 103.091,66.397 		"/>
		<polygon fill="#46E5FF" points="111.716,81.366 120.358,66.397 129,81.366 		"/>
		<polygon fill="#029BE5" points="128.928,81.366 137.57,66.397 146.213,81.366 		"/>
		<polygon fill="#29B6F6" points="137.588,66.397 128.945,81.366 120.303,66.397 		"/>
		<polygon fill="#80CBC4" points="154.838,66.397 146.195,81.366 137.553,66.397 		"/>
		<polygon fill="#46E5FF" points="85.878,66.517 94.521,51.547 103.162,66.517 		"/>
		<polygon fill="#029BE5" points="103.091,66.517 111.733,51.547 120.375,66.517 		"/>
		<polygon fill="#29B6F6" points="111.75,51.547 103.108,66.517 94.466,51.547 		"/>
		<polygon fill="#80CBC4" points="129,51.547 120.358,66.517 111.716,51.547 		"/>
		<polygon fill="#46E5FF" points="120.341,66.517 128.983,51.547 137.625,66.517 		"/>
		<polygon fill="#46E5FF" points="137.553,66.517 146.195,51.547 154.838,66.517 		"/>
		<polygon fill="#29B6F6" points="146.213,51.547 137.57,66.517 128.928,51.547 		"/>
		<polygon fill="#029BE5" points="94.54,51.591 103.183,36.622 111.825,51.591 		"/>
		<polygon fill="#29B6F6" points="103.2,36.622 94.558,51.591 85.915,36.622 		"/>
		<polygon fill="#80CBC4" points="120.45,36.622 111.808,51.591 103.165,36.622 		"/>
		<polygon fill="#46E5FF" points="111.79,51.591 120.433,36.622 129.075,51.591 		"/>
		<polygon fill="#029BE5" points="129.003,51.591 137.646,36.622 146.287,51.591 		"/>
		<polygon fill="#29B6F6" points="137.662,36.622 129.021,51.591 120.378,36.622 		"/>
		<polygon fill="#29B6F6" points="154.912,36.622 146.271,51.591 137.628,36.622 		"/>
		<rect x="94.433" y="36.651" fill="none" width="51.825" height="59.601"/>
		<rect x="94.433" y="36.651" fill="none" width="51.825" height="59.601"/>
		<polygon fill="#029BE5" points="85.803,155.892 94.445,140.923 103.088,155.892 		"/>
		<polygon fill="#029BE5" points="103.016,155.892 111.658,140.923 120.3,155.892 		"/>
		<polygon fill="#29B6F6" points="111.675,140.923 103.033,155.892 94.391,140.923 		"/>
		<polygon fill="#80CBC4" points="128.925,140.923 120.283,155.892 111.641,140.923 		"/>
		<polygon fill="#46E5FF" points="120.266,155.892 128.908,140.923 137.55,155.892 		"/>
		<polygon fill="#029BE5" points="137.478,155.892 146.12,140.923 154.763,155.892 		"/>
		<polygon fill="#29B6F6" points="146.138,140.923 137.495,155.892 128.853,140.923 		"/>
		<polygon fill="#029BE5" points="94.466,140.967 103.108,125.998 111.75,140.967 		"/>
		<polygon fill="#80CBC4" points="103.125,125.998 94.483,140.967 85.841,125.998 		"/>
		<polygon fill="#80CBC4" points="120.375,125.998 111.733,140.967 103.091,125.998 		"/>
		<polygon fill="#46E5FF" points="111.716,140.967 120.358,125.998 129,140.967 		"/>
		<polygon fill="#029BE5" points="128.928,140.967 137.57,125.998 146.213,140.967 		"/>
		<polygon fill="#29B6F6" points="137.588,125.998 128.945,140.967 120.303,125.998 		"/>
		<polygon fill="#80CBC4" points="154.838,125.998 146.195,140.967 137.553,125.998 		"/>
		<polygon fill="#46E5FF" points="85.878,126.117 94.521,111.147 103.162,126.117 		"/>
		<polygon fill="#029BE5" points="103.091,126.117 111.733,111.147 120.375,126.117 		"/>
		<polygon fill="#29B6F6" points="111.75,111.147 103.108,126.117 94.466,111.147 		"/>
		<polygon fill="#80CBC4" points="129,111.147 120.358,126.117 111.716,111.147 		"/>
		<polygon fill="#46E5FF" points="120.341,126.117 128.983,111.147 137.625,126.117 		"/>
		<polygon fill="#46E5FF" points="137.553,126.117 146.195,111.147 154.838,126.117 		"/>
		<polygon fill="#29B6F6" points="146.213,111.147 137.57,126.117 128.928,111.147 		"/>
		<polygon fill="#029BE5" points="94.54,111.191 103.183,96.223 111.825,111.191 		"/>
		<polygon fill="#29B6F6" points="103.2,96.223 94.558,111.191 85.915,96.223 		"/>
		<polygon fill="#80CBC4" points="120.45,96.223 111.808,111.191 103.165,96.223 		"/>
		<polygon fill="#46E5FF" points="111.79,111.191 120.433,96.223 129.075,111.191 		"/>
		<polygon fill="#029BE5" points="129.003,111.191 137.646,96.223 146.287,111.191 		"/>
		<polygon fill="#29B6F6" points="137.662,96.223 129.021,111.191 120.378,96.223 		"/>
		<polygon fill="#29B6F6" points="154.912,96.223 146.271,111.191 137.628,96.223 		"/>
		<rect x="94.433" y="96.252" fill="none" width="51.825" height="59.601"/>
		<rect x="94.433" y="96.252" fill="none" width="51.825" height="59.601"/>
		<polygon fill="#029BE5" points="33.978,36.69 42.62,21.722 51.263,36.69 		"/>
		<polygon fill="#029BE5" points="51.19,36.69 59.833,21.722 68.475,36.69 		"/>
		<polygon fill="#29B6F6" points="59.85,21.722 51.208,36.69 42.565,21.722 		"/>
		<polygon fill="#80CBC4" points="77.1,21.722 68.458,36.69 59.815,21.722 		"/>
		<polygon fill="#46E5FF" points="68.44,36.69 77.083,21.722 85.725,36.69 		"/>
		<polygon fill="#029BE5" points="85.652,36.69 94.295,21.722 102.938,36.69 		"/>
		<polygon fill="#29B6F6" points="94.312,21.722 85.67,36.69 77.027,21.722 		"/>
		<polygon fill="#029BE5" points="42.641,21.766 51.283,6.797 59.925,21.766 		"/>
		<polygon fill="#80CBC4" points="51.3,6.797 42.658,21.766 34.016,6.797 		"/>
		<polygon fill="#80CBC4" points="68.55,6.797 59.908,21.766 51.266,6.797 		"/>
		<polygon fill="#46E5FF" points="59.891,21.766 68.533,6.797 77.175,21.766 		"/>
		<polygon fill="#029BE5" points="77.103,21.766 85.745,6.797 94.388,21.766 		"/>
		<polygon fill="#29B6F6" points="85.763,6.797 77.12,21.766 68.478,6.797 		"/>
		<polygon fill="#80CBC4" points="103.013,6.797 94.37,21.766 85.728,6.797 		"/>
		<polygon fill="#46E5FF" points="34.053,6.916 42.695,-8.054 51.337,6.916 		"/>
		<polygon fill="#029BE5" points="51.266,6.916 59.908,-8.054 68.55,6.916 		"/>
		<polygon fill="#29B6F6" points="59.925,-8.054 51.283,6.916 42.641,-8.054 		"/>
		<polygon fill="#80CBC4" points="77.175,-8.054 68.533,6.916 59.891,-8.054 		"/>
		<polygon fill="#46E5FF" points="68.516,6.916 77.158,-8.054 85.8,6.916 		"/>
		<polygon fill="#46E5FF" points="85.728,6.916 94.37,-8.054 103.013,6.916 		"/>
		<polygon fill="#29B6F6" points="94.388,-8.054 85.745,6.916 77.103,-8.054 		"/>
		<polygon fill="#029BE5" points="42.715,-8.01 51.357,-22.979 60,-8.01 		"/>
		<polygon fill="#29B6F6" points="51.375,-22.979 42.732,-8.01 34.09,-22.979 		"/>
		<polygon fill="#80CBC4" points="68.625,-22.979 59.982,-8.01 51.34,-22.979 		"/>
		<polygon fill="#46E5FF" points="59.965,-8.01 68.607,-22.979 77.25,-8.01 		"/>
		<polygon fill="#029BE5" points="77.178,-8.01 85.82,-22.979 94.462,-8.01 		"/>
		<polygon fill="#29B6F6" points="85.837,-22.979 77.195,-8.01 68.553,-22.979 		"/>
		<polygon fill="#29B6F6" points="103.087,-22.979 94.445,-8.01 85.803,-22.979 		"/>
		<rect x="42.607" y="-22.949" fill="none" width="51.825" height="59.601"/>
		<rect x="42.607" y="-22.949" fill="none" width="51.825" height="59.601"/>
		<polygon fill="#029BE5" points="33.978,96.291 42.62,81.322 51.263,96.291 		"/>
		<polygon fill="#029BE5" points="51.19,96.291 59.833,81.322 68.475,96.291 		"/>
		<polygon fill="#29B6F6" points="59.85,81.322 51.208,96.291 42.565,81.322 		"/>
		<polygon fill="#80CBC4" points="77.1,81.322 68.458,96.291 59.815,81.322 		"/>
		<polygon fill="#46E5FF" points="68.44,96.291 77.083,81.322 85.725,96.291 		"/>
		<polygon fill="#029BE5" points="85.652,96.291 94.295,81.322 102.938,96.291 		"/>
		<polygon fill="#29B6F6" points="94.312,81.322 85.67,96.291 77.027,81.322 		"/>
		<polygon fill="#029BE5" points="42.641,81.366 51.283,66.397 59.925,81.366 		"/>
		<polygon fill="#80CBC4" points="51.3,66.397 42.658,81.366 34.016,66.397 		"/>
		<polygon fill="#80CBC4" points="68.55,66.397 59.908,81.366 51.266,66.397 		"/>
		<polygon fill="#46E5FF" points="59.891,81.366 68.533,66.397 77.175,81.366 		"/>
		<polygon fill="#029BE5" points="77.103,81.366 85.745,66.397 94.388,81.366 		"/>
		<polygon fill="#29B6F6" points="85.763,66.397 77.12,81.366 68.478,66.397 		"/>
		<polygon fill="#80CBC4" points="103.013,66.397 94.37,81.366 85.728,66.397 		"/>
		<polygon fill="#46E5FF" points="34.053,66.517 42.695,51.547 51.337,66.517 		"/>
		<polygon fill="#029BE5" points="51.266,66.517 59.908,51.547 68.55,66.517 		"/>
		<polygon fill="#29B6F6" points="59.925,51.547 51.283,66.517 42.641,51.547 		"/>
		<polygon fill="#80CBC4" points="77.175,51.547 68.533,66.517 59.891,51.547 		"/>
		<polygon fill="#46E5FF" points="68.516,66.517 77.158,51.547 85.8,66.517 		"/>
		<polygon fill="#46E5FF" points="85.728,66.517 94.37,51.547 103.013,66.517 		"/>
		<polygon fill="#29B6F6" points="94.388,51.547 85.745,66.517 77.103,51.547 		"/>
		<polygon fill="#029BE5" points="42.715,51.591 51.357,36.622 60,51.591 		"/>
		<polygon fill="#29B6F6" points="51.375,36.622 42.732,51.591 34.09,36.622 		"/>
		<polygon fill="#80CBC4" points="68.625,36.622 59.982,51.591 51.34,36.622 		"/>
		<polygon fill="#46E5FF" points="59.965,51.591 68.607,36.622 77.25,51.591 		"/>
		<polygon fill="#029BE5" points="77.178,51.591 85.82,36.622 94.462,51.591 		"/>
		<polygon fill="#29B6F6" points="85.837,36.622 77.195,51.591 68.553,36.622 		"/>
		<polygon fill="#29B6F6" points="103.087,36.622 94.445,51.591 85.803,36.622 		"/>
		<rect x="42.607" y="36.651" fill="none" width="51.825" height="59.601"/>
		<rect x="42.607" y="36.651" fill="none" width="51.825" height="59.601"/>
		<polygon fill="#029BE5" points="33.978,155.892 42.62,140.923 51.263,155.892 		"/>
		<polygon fill="#029BE5" points="51.19,155.892 59.833,140.923 68.475,155.892 		"/>
		<polygon fill="#29B6F6" points="59.85,140.923 51.208,155.892 42.565,140.923 		"/>
		<polygon fill="#80CBC4" points="77.1,140.923 68.458,155.892 59.815,140.923 		"/>
		<polygon fill="#46E5FF" points="68.44,155.892 77.083,140.923 85.725,155.892 		"/>
		<polygon fill="#029BE5" points="85.652,155.892 94.295,140.923 102.938,155.892 		"/>
		<polygon fill="#29B6F6" points="94.312,140.923 85.67,155.892 77.027,140.923 		"/>
		<polygon fill="#029BE5" points="42.641,140.967 51.283,125.998 59.925,140.967 		"/>
		<polygon fill="#80CBC4" points="51.3,125.998 42.658,140.967 34.016,125.998 		"/>
		<polygon fill="#80CBC4" points="68.55,125.998 59.908,140.967 51.266,125.998 		"/>
		<polygon fill="#46E5FF" points="59.891,140.967 68.533,125.998 77.175,140.967 		"/>
		<polygon fill="#029BE5" points="77.103,140.967 85.745,125.998 94.388,140.967 		"/>
		<polygon fill="#29B6F6" points="85.763,125.998 77.12,140.967 68.478,125.998 		"/>
		<polygon fill="#80CBC4" points="103.013,125.998 94.37,140.967 85.728,125.998 		"/>
		<polygon fill="#46E5FF" points="34.053,126.117 42.695,111.147 51.337,126.117 		"/>
		<polygon fill="#029BE5" points="51.266,126.117 59.908,111.147 68.55,126.117 		"/>
		<polygon fill="#29B6F6" points="59.925,111.147 51.283,126.117 42.641,111.147 		"/>
		<polygon fill="#80CBC4" points="77.175,111.147 68.533,126.117 59.891,111.147 		"/>
		<polygon fill="#46E5FF" points="68.516,126.117 77.158,111.147 85.8,126.117 		"/>
		<polygon fill="#46E5FF" points="85.728,126.117 94.37,111.147 103.013,126.117 		"/>
		<polygon fill="#29B6F6" points="94.388,111.147 85.745,126.117 77.103,111.147 		"/>
		<polygon fill="#029BE5" points="42.715,111.191 51.357,96.223 60,111.191 		"/>
		<polygon fill="#29B6F6" points="51.375,96.223 42.732,111.191 34.09,96.223 		"/>
		<polygon fill="#80CBC4" points="68.625,96.223 59.982,111.191 51.34,96.223 		"/>
		<polygon fill="#46E5FF" points="59.965,111.191 68.607,96.223 77.25,111.191 		"/>
		<polygon fill="#029BE5" points="77.178,111.191 85.82,96.223 94.462,111.191 		"/>
		<polygon fill="#29B6F6" points="85.837,96.223 77.195,111.191 68.553,96.223 		"/>
		<polygon fill="#29B6F6" points="103.087,96.223 94.445,111.191 85.803,96.223 		"/>
		<rect x="42.607" y="96.252" fill="none" width="51.825" height="59.601"/>
		<rect x="42.607" y="96.252" fill="none" width="51.825" height="59.601"/>
		<polygon fill="#029BE5" points="-17.848,36.69 -9.205,21.722 -0.562,36.69 		"/>
		<polygon fill="#029BE5" points="-0.635,36.69 8.008,21.722 16.649,36.69 		"/>
		<polygon fill="#29B6F6" points="8.024,21.722 -0.617,36.69 -9.26,21.722 		"/>
		<polygon fill="#80CBC4" points="25.274,21.722 16.633,36.69 7.99,21.722 		"/>
		<polygon fill="#46E5FF" points="16.615,36.69 25.258,21.722 33.899,36.69 		"/>
		<polygon fill="#029BE5" points="33.827,36.69 42.47,21.722 51.112,36.69 		"/>
		<polygon fill="#29B6F6" points="42.487,21.722 33.845,36.69 25.202,21.722 		"/>
		<polygon fill="#029BE5" points="-9.185,21.766 -0.542,6.797 8.1,21.766 		"/>
		<polygon fill="#80CBC4" points="-0.525,6.797 -9.167,21.766 -17.81,6.797 		"/>
		<polygon fill="#80CBC4" points="16.725,6.797 8.083,21.766 -0.56,6.797 		"/>
		<polygon fill="#46E5FF" points="8.065,21.766 16.708,6.797 25.35,21.766 		"/>
		<polygon fill="#029BE5" points="25.277,21.766 33.92,6.797 42.562,21.766 		"/>
		<polygon fill="#29B6F6" points="33.938,6.797 25.295,21.766 16.652,6.797 		"/>
		<polygon fill="#80CBC4" points="51.188,6.797 42.545,21.766 33.902,6.797 		"/>
		<polygon fill="#46E5FF" points="-17.772,6.916 -9.13,-8.054 -0.488,6.916 		"/>
		<polygon fill="#029BE5" points="-0.56,6.916 8.083,-8.054 16.725,6.916 		"/>
		<polygon fill="#29B6F6" points="8.1,-8.054 -0.542,6.916 -9.185,-8.054 		"/>
		<polygon fill="#80CBC4" points="25.35,-8.054 16.708,6.916 8.065,-8.054 		"/>
		<polygon fill="#46E5FF" points="16.69,6.916 25.333,-8.054 33.975,6.916 		"/>
		<polygon fill="#46E5FF" points="33.902,6.916 42.545,-8.054 51.188,6.916 		"/>
		<polygon fill="#29B6F6" points="42.562,-8.054 33.92,6.916 25.277,-8.054 		"/>
		<polygon fill="#029BE5" points="-9.11,-8.01 -0.468,-22.979 8.175,-8.01 		"/>
		<polygon fill="#29B6F6" points="-0.45,-22.979 -9.093,-8.01 -17.735,-22.979 		"/>
		<polygon fill="#80CBC4" points="16.8,-22.979 8.157,-8.01 -0.485,-22.979 		"/>
		<polygon fill="#46E5FF" points="8.14,-8.01 16.782,-22.979 25.425,-8.01 		"/>
		<polygon fill="#029BE5" points="25.353,-8.01 33.995,-22.979 42.637,-8.01 		"/>
		<polygon fill="#29B6F6" points="34.012,-22.979 25.37,-8.01 16.728,-22.979 		"/>
		<polygon fill="#29B6F6" points="51.262,-22.979 42.62,-8.01 33.978,-22.979 		"/>
		<rect x="-9.218" y="-22.949" fill="none" width="51.825" height="59.601"/>
		<rect x="-9.218" y="-22.949" fill="none" width="51.825" height="59.601"/>
		<polygon fill="#029BE5" points="-17.848,96.291 -9.205,81.322 -0.562,96.291 		"/>
		<polygon fill="#029BE5" points="-0.635,96.291 8.008,81.322 16.649,96.291 		"/>
		<polygon fill="#29B6F6" points="8.024,81.322 -0.617,96.291 -9.26,81.322 		"/>
		<polygon fill="#80CBC4" points="25.274,81.322 16.633,96.291 7.99,81.322 		"/>
		<polygon fill="#46E5FF" points="16.615,96.291 25.258,81.322 33.899,96.291 		"/>
		<polygon fill="#029BE5" points="33.827,96.291 42.47,81.322 51.112,96.291 		"/>
		<polygon fill="#29B6F6" points="42.487,81.322 33.845,96.291 25.202,81.322 		"/>
		<polygon fill="#029BE5" points="-9.185,81.366 -0.542,66.397 8.1,81.366 		"/>
		<polygon fill="#80CBC4" points="-0.525,66.397 -9.167,81.366 -17.81,66.397 		"/>
		<polygon fill="#80CBC4" points="16.725,66.397 8.083,81.366 -0.56,66.397 		"/>
		<polygon fill="#46E5FF" points="8.065,81.366 16.708,66.397 25.35,81.366 		"/>
		<polygon fill="#029BE5" points="25.277,81.366 33.92,66.397 42.562,81.366 		"/>
		<polygon fill="#29B6F6" points="33.938,66.397 25.295,81.366 16.652,66.397 		"/>
		<polygon fill="#80CBC4" points="51.188,66.397 42.545,81.366 33.902,66.397 		"/>
		<polygon fill="#46E5FF" points="-17.772,66.517 -9.13,51.547 -0.488,66.517 		"/>
		<polygon fill="#029BE5" points="-0.56,66.517 8.083,51.547 16.725,66.517 		"/>
		<polygon fill="#29B6F6" points="8.1,51.547 -0.542,66.517 -9.185,51.547 		"/>
		<polygon fill="#80CBC4" points="25.35,51.547 16.708,66.517 8.065,51.547 		"/>
		<polygon fill="#46E5FF" points="16.69,66.517 25.333,51.547 33.975,66.517 		"/>
		<polygon fill="#46E5FF" points="33.902,66.517 42.545,51.547 51.188,66.517 		"/>
		<polygon fill="#29B6F6" points="42.562,51.547 33.92,66.517 25.277,51.547 		"/>
		<polygon fill="#029BE5" points="-9.11,51.591 -0.468,36.622 8.175,51.591 		"/>
		<polygon fill="#29B6F6" points="-0.45,36.622 -9.093,51.591 -17.735,36.622 		"/>
		<polygon fill="#80CBC4" points="16.8,36.622 8.157,51.591 -0.485,36.622 		"/>
		<polygon fill="#46E5FF" points="8.14,51.591 16.782,36.622 25.425,51.591 		"/>
		<polygon fill="#029BE5" points="25.353,51.591 33.995,36.622 42.637,51.591 		"/>
		<polygon fill="#29B6F6" points="34.012,36.622 25.37,51.591 16.728,36.622 		"/>
		<polygon fill="#29B6F6" points="51.262,36.622 42.62,51.591 33.978,36.622 		"/>
		<rect x="-9.218" y="36.651" fill="none" width="51.825" height="59.601"/>
		<rect x="-9.218" y="36.651" fill="none" width="51.825" height="59.601"/>
		<polygon fill="#029BE5" points="-17.848,155.892 -9.205,140.923 -0.562,155.892 		"/>
		<polygon fill="#029BE5" points="-0.635,155.892 8.008,140.923 16.649,155.892 		"/>
		<polygon fill="#29B6F6" points="8.024,140.923 -0.617,155.892 -9.26,140.923 		"/>
		<polygon fill="#80CBC4" points="25.274,140.923 16.633,155.892 7.99,140.923 		"/>
		<polygon fill="#46E5FF" points="16.615,155.892 25.258,140.923 33.899,155.892 		"/>
		<polygon fill="#029BE5" points="33.827,155.892 42.47,140.923 51.112,155.892 		"/>
		<polygon fill="#29B6F6" points="42.487,140.923 33.845,155.892 25.202,140.923 		"/>
		<polygon fill="#029BE5" points="-9.185,140.967 -0.542,125.998 8.1,140.967 		"/>
		<polygon fill="#80CBC4" points="-0.525,125.998 -9.167,140.967 -17.81,125.998 		"/>
		<polygon fill="#80CBC4" points="16.725,125.998 8.083,140.967 -0.56,125.998 		"/>
		<polygon fill="#46E5FF" points="8.065,140.967 16.708,125.998 25.35,140.967 		"/>
		<polygon fill="#029BE5" points="25.277,140.967 33.92,125.998 42.562,140.967 		"/>
		<polygon fill="#29B6F6" points="33.938,125.998 25.295,140.967 16.652,125.998 		"/>
		<polygon fill="#80CBC4" points="51.188,125.998 42.545,140.967 33.902,125.998 		"/>
		<polygon fill="#46E5FF" points="-17.772,126.117 -9.13,111.147 -0.488,126.117 		"/>
		<polygon fill="#029BE5" points="-0.56,126.117 8.083,111.147 16.725,126.117 		"/>
		<polygon fill="#29B6F6" points="8.1,111.147 -0.542,126.117 -9.185,111.147 		"/>
		<polygon fill="#80CBC4" points="25.35,111.147 16.708,126.117 8.065,111.147 		"/>
		<polygon fill="#46E5FF" points="16.69,126.117 25.333,111.147 33.975,126.117 		"/>
		<polygon fill="#46E5FF" points="33.902,126.117 42.545,111.147 51.188,126.117 		"/>
		<polygon fill="#29B6F6" points="42.562,111.147 33.92,126.117 25.277,111.147 		"/>
		<polygon fill="#029BE5" points="-9.11,111.191 -0.468,96.223 8.175,111.191 		"/>
		<polygon fill="#29B6F6" points="-0.45,96.223 -9.093,111.191 -17.735,96.223 		"/>
		<polygon fill="#80CBC4" points="16.8,96.223 8.157,111.191 -0.485,96.223 		"/>
		<polygon fill="#46E5FF" points="8.14,111.191 16.782,96.223 25.425,111.191 		"/>
		<polygon fill="#029BE5" points="25.353,111.191 33.995,96.223 42.637,111.191 		"/>
		<polygon fill="#29B6F6" points="34.012,96.223 25.37,111.191 16.728,96.223 		"/>
		<polygon fill="#29B6F6" points="51.262,96.223 42.62,111.191 33.978,96.223 		"/>
		<rect x="-9.218" y="96.252" fill="none" width="51.825" height="59.601"/>
		<rect x="-9.218" y="96.252" fill="none" width="51.825" height="59.601"/>
	</g>
</g>
</svg>
