<?xml version="1.0" encoding="utf-8"?>
<!-- Generator: Adobe Illustrator 16.0.4, SVG Export Plug-In . SVG Version: 6.00 Build 0)  -->
<!DOCTYPE svg PUBLIC "-//W3C//DTD SVG 1.1//EN" "http://www.w3.org/Graphics/SVG/1.1/DTD/svg11.dtd">
<svg version="1.1" id="Layer_1" xmlns="http://www.w3.org/2000/svg" xmlns:xlink="http://www.w3.org/1999/xlink" x="0px" y="0px"
	 width="120px" height="120px" viewBox="0 0 120 120" enable-background="new 0 0 120 120" xml:space="preserve">
<g>
	<path fill="#F7836C" d="M48.091,118.794c32.472,6.576,64.126-14.417,70.703-46.886c6.578-32.469-14.414-64.126-46.885-70.702
		C39.438-5.373,7.784,15.62,1.206,48.091C-5.371,80.558,15.62,112.215,48.091,118.794z"/>
	<circle fill="#C46FB8" cx="103.841" cy="54.61" r="3.087"/>
	<circle fill="#C46FB8" cx="77.911" cy="34.854" r="3.088"/>
	<circle fill="#C46FB8" cx="45.807" cy="54.61" r="3.086"/>
	<circle fill="#C46FB8" cx="87.788" cy="76.834" r="3.086"/>
	<circle fill="#C46FB8" cx="96.433" cy="39.792" r="1.235"/>
	<circle fill="#C46FB8" cx="95.196" cy="89.182" r="1.234"/>
	<circle fill="#C46FB8" cx="75.442" cy="96.591" r="1.234"/>
	<circle fill="#C46FB8" cx="80.38" cy="22.507" r="1.234"/>
	<circle fill="#C46FB8" cx="29.122" cy="34.854" r="1.234"/>
	<path fill="#C46FB8" d="M75.565,63.339c3.527,0,6.387-2.856,6.387-6.386c0-3.526-2.859-6.384-6.387-6.384s-6.385,2.857-6.385,6.384
		C69.181,60.482,72.038,63.339,75.565,63.339z"/>
	<circle fill="#C46FB8" cx="55.811" cy="24.851" r="6.386"/>
	<circle fill="#C46FB8" cx="57.629" cy="97.825" r="6.386"/>
	<path fill="#C46FB8" d="M29.121,90.287c7.435,0,13.457-6.019,13.457-13.455c0-7.431-6.022-13.451-13.457-13.451
		c-7.431,0-13.453,6.021-13.453,13.451C15.667,84.269,21.69,90.287,29.121,90.287z"/>
</g>
</svg>
