<?xml version="1.0" encoding="utf-8"?>
<!-- Generator: Adobe Illustrator 16.0.4, SVG Export Plug-In . SVG Version: 6.00 Build 0)  -->
<!DOCTYPE svg PUBLIC "-//W3C//DTD SVG 1.1//EN" "http://www.w3.org/Graphics/SVG/1.1/DTD/svg11.dtd">
<svg version="1.1" id="Layer_1" xmlns="http://www.w3.org/2000/svg" xmlns:xlink="http://www.w3.org/1999/xlink" x="0px" y="0px"
	 width="120px" height="120px" viewBox="0 0 120 120" enable-background="new 0 0 120 120" xml:space="preserve">
<g>
	<defs>
		<circle id="SVGID_1_" cx="60" cy="60" r="60"/>
	</defs>
	<clipPath id="SVGID_2_">
		<use xlink:href="#SVGID_1_"  overflow="visible"/>
	</clipPath>
	<path clip-path="url(#SVGID_2_)" fill="#BA68C8" d="M132.313,49.864c-10.162,1.346-10.563-4.748-20.813-4.748
		c-10.249,0-10.249,4.768-20.499,4.768s-10.25-4.768-20.499-4.768s-10.249,4.768-20.499,4.768c-10.251,0-10.251-4.768-20.501-4.768
		c-10.251,0-10.251,4.768-20.501,4.768s-10.026-3.403-20.188-4.747c-1.345-0.178-2.696,1.007-2.696-0.35s4.768-1.356,4.768-2.713
		c0-1.357-4.768-1.357-4.768-2.714c0-1.357,4.768-1.357,4.768-2.714c0-1.357-4.768-1.357-4.768-2.715s4.768-1.357,4.768-2.715
		c0-1.358-4.043-4.901-2.697-5.08C-1.652,24.791-1.251,30.885,9,30.885c10.249,0,10.249-4.769,20.498-4.769
		c10.251,0,10.251,4.769,20.5,4.769s10.249-4.769,20.5-4.769c10.249,0,10.249,4.769,20.5,4.769s10.251-4.769,20.501-4.769
		s10.025,3.402,20.188,4.748c1.345,0.178,2.697-1.008,2.697,0.349s-4.769,1.356-4.769,2.713c0,1.358,4.769,1.358,4.769,2.715
		c0,1.357-4.769,1.357-4.769,2.715c0,1.356,4.769,1.356,4.769,2.714s-5.004,1.896-4.715,3.224
		C130.246,47.937,133.659,49.685,132.313,49.864z"/>
	<path clip-path="url(#SVGID_2_)" fill="#B39CDB" d="M132.313,33.865c-10.162,1.345-10.563-4.749-20.813-4.749
		c-10.249,0-10.249,4.769-20.499,4.769s-10.25-4.769-20.499-4.769s-10.249,4.769-20.499,4.769c-10.251,0-10.251-4.769-20.501-4.769
		c-10.251,0-10.251,4.769-20.501,4.769s-10.026-3.403-20.188-4.748c-1.345-0.177-2.696,1.007-2.696-0.349
		c0-1.357,4.768-1.357,4.768-2.714c0-1.357-4.768-1.357-4.768-2.713c0-1.357,4.768-1.357,4.768-2.715s-4.768-1.357-4.768-2.714
		c0-1.357,4.768-1.357,4.768-2.716s-4.043-4.9-2.697-5.079C-1.652,8.792-1.251,14.885,9,14.885c10.249,0,10.249-4.769,20.498-4.769
		c10.251,0,10.251,4.769,20.5,4.769s10.249-4.769,20.5-4.769c10.249,0,10.249,4.769,20.5,4.769s10.251-4.769,20.501-4.769
		s10.025,3.402,20.188,4.747c1.345,0.179,2.697-1.006,2.697,0.351s-4.769,1.356-4.769,2.713s4.769,1.356,4.769,2.714
		c0,1.358-4.769,1.358-4.769,2.716c0,1.356,4.769,1.356,4.769,2.713c0,1.358-5.004,1.897-4.715,3.223
		C130.246,31.938,133.659,33.686,132.313,33.865z"/>
	<path clip-path="url(#SVGID_2_)" fill="#7E57C2" d="M132.313,16.742c-10.162,1.346-10.563-4.748-20.813-4.748
		c-10.249,0-10.249,4.768-20.499,4.768s-10.25-4.768-20.499-4.768s-10.249,4.768-20.499,4.768c-10.251,0-10.251-4.768-20.501-4.768
		c-10.251,0-10.251,4.768-20.501,4.768s-10.026-3.402-20.188-4.747c-1.345-0.178-2.696,1.008-2.696-0.35
		c0-1.355,4.768-1.355,4.768-2.714c0-1.356-4.768-1.356-4.768-2.713c0-1.357,4.768-1.357,4.768-2.715
		c0-1.356-4.768-1.356-4.768-2.714s4.768-1.357,4.768-2.716c0-1.357-4.043-4.9-2.697-5.079C-1.652-8.331-1.251-2.238,9-2.238
		c10.249,0,10.249-4.768,20.498-4.768c10.251,0,10.251,4.768,20.5,4.768s10.249-4.768,20.5-4.768c10.249,0,10.249,4.768,20.5,4.768
		s10.251-4.768,20.501-4.768s10.025,3.402,20.188,4.748c1.345,0.178,2.697-1.008,2.697,0.35c0,1.355-4.769,1.355-4.769,2.713
		s4.769,1.357,4.769,2.713c0,1.358-4.769,1.358-4.769,2.716c0,1.356,4.769,1.356,4.769,2.714s-5.004,1.896-4.715,3.223
		C130.246,14.814,133.659,16.563,132.313,16.742z"/>
	<path clip-path="url(#SVGID_2_)" fill="#D37FFF" d="M132.224,79.9c-10.205,0.96-10.474-4.758-20.724-4.758
		c-10.249,0-10.249,4.768-20.499,4.768s-10.25-4.768-20.499-4.768S60.253,79.91,50.003,79.91c-10.251,0-10.251-4.768-20.501-4.768
		c-10.251,0-10.251,4.768-20.501,4.768s-10.072-3.799-20.277-4.758c-0.961-0.09-2.607,1.41-2.607,0.446s4.768-0.964,4.768-1.928
		s-4.768-0.964-4.768-1.929c0-0.964,4.768-0.964,4.768-1.927c0-0.964-4.768-0.964-4.768-1.929s4.768-0.965,4.768-1.931
		c0-0.964-3.567-4.213-2.607-4.303C-1.519,60.692-1.251,66.411,9,66.411c10.249,0,10.249-4.769,20.498-4.769
		c10.251,0,10.251,4.769,20.5,4.769s10.249-4.769,20.5-4.769c10.249,0,10.249,4.769,20.5,4.769s10.251-4.769,20.501-4.769
		s10.072,3.798,20.277,4.758c0.96,0.09,2.608-1.409,2.608-0.446c0,0.964-4.769,0.964-4.769,1.928c0,0.963,4.769,0.963,4.769,1.928
		c0,0.964-4.769,0.964-4.769,1.928c0,0.965,4.769,0.965,4.769,1.929c0,0.965-4.908,1.434-4.727,2.381
		C130.087,78.269,133.184,79.81,132.224,79.9z"/>
	<path clip-path="url(#SVGID_2_)" fill="#9C26B0" d="M132.313,66.863c-10.162,1.347-10.563-4.747-20.813-4.747
		c-10.249,0-10.249,4.768-20.499,4.768s-10.25-4.768-20.499-4.768s-10.249,4.768-20.499,4.768c-10.251,0-10.251-4.768-20.501-4.768
		c-10.251,0-10.251,4.768-20.501,4.768s-10.026-3.402-20.188-4.747c-1.345-0.179-2.696,1.007-2.696-0.351
		c0-1.355,4.768-1.355,4.768-2.712c0-1.357-4.768-1.357-4.768-2.714c0-1.357,4.768-1.357,4.768-2.715
		c0-1.356-4.768-1.356-4.768-2.714s4.768-1.357,4.768-2.717c0-1.357-4.043-4.899-2.697-5.078C-1.652,41.791-1.251,47.885,9,47.885
		c10.249,0,10.249-4.769,20.498-4.769c10.251,0,10.251,4.769,20.5,4.769s10.249-4.769,20.5-4.769c10.249,0,10.249,4.769,20.5,4.769
		s10.251-4.769,20.501-4.769s10.025,3.402,20.188,4.747c1.345,0.179,2.697-1.007,2.697,0.35s-4.769,1.356-4.769,2.713
		c0,1.358,4.769,1.358,4.769,2.714c0,1.358-4.769,1.358-4.769,2.715c0,1.357,4.769,1.357,4.769,2.714
		c0,1.358-5.004,1.896-4.715,3.224C130.247,64.937,133.659,66.685,132.313,66.863z"/>
	<path clip-path="url(#SVGID_2_)" fill="#5E34B1" d="M132.44,121.799c-10.072,1.896-10.69-4.728-20.94-4.728
		c-10.249,0-10.249,4.769-20.499,4.769s-10.25-4.769-20.499-4.769s-10.249,4.769-20.499,4.769c-10.251,0-10.251-4.769-20.501-4.769
		c-10.251,0-10.251,4.769-20.501,4.769s-9.986-2.832-20.061-4.727c-1.895-0.357-2.824,0.415-2.824-1.514
		c0-1.927,4.768-1.927,4.768-3.855s-4.768-1.929-4.768-3.856c0-1.929,4.768-1.929,4.768-3.857c0-1.928-4.768-1.928-4.768-3.855
		c0-1.93,4.768-1.93,4.768-3.859c0-1.929-4.721-5.845-2.825-6.202C-1.868,88.217-1.251,94.841,9,94.841
		c10.249,0,10.249-4.769,20.498-4.769c10.251,0,10.251,4.769,20.5,4.769s10.249-4.769,20.5-4.769c10.249,0,10.249,4.769,20.5,4.769
		s10.251-4.769,20.501-4.769s9.986,2.832,20.061,4.728c1.896,0.356,2.825-0.416,2.825,1.513s-4.769,1.929-4.769,3.855
		c0,1.929,4.769,1.929,4.769,3.856c0,1.929-4.769,1.929-4.769,3.856c0,1.929,4.769,1.929,4.769,3.857s-5.154,2.541-4.702,4.417
		C130.467,119.412,134.337,121.441,132.44,121.799z"/>
	<path clip-path="url(#SVGID_2_)" fill="#8055F7" d="M132.313,95.889c-10.162,1.347-10.563-4.747-20.813-4.747
		c-10.249,0-10.249,4.768-20.499,4.768s-10.25-4.768-20.499-4.768s-10.249,4.768-20.499,4.768c-10.251,0-10.251-4.768-20.501-4.768
		c-10.251,0-10.251,4.768-20.501,4.768s-10.026-3.402-20.188-4.747c-1.345-0.178-2.696,1.007-2.696-0.349
		c0-1.357,4.768-1.357,4.768-2.714c0-1.357-4.768-1.357-4.768-2.713c0-1.357,4.768-1.357,4.768-2.715s-4.768-1.357-4.768-2.714
		c0-1.358,4.768-1.358,4.768-2.716c0-1.358-4.043-4.9-2.697-5.079C-1.652,70.817-1.251,76.91,9,76.91
		c10.249,0,10.249-4.769,20.498-4.769c10.251,0,10.251,4.769,20.5,4.769s10.249-4.769,20.5-4.769c10.249,0,10.249,4.769,20.5,4.769
		s10.251-4.769,20.501-4.769s10.025,3.403,20.188,4.748c1.345,0.178,2.697-1.007,2.697,0.35s-4.769,1.356-4.769,2.713
		s4.769,1.356,4.769,2.714s-4.769,1.357-4.769,2.716c0,1.355,4.769,1.355,4.769,2.713s-5.004,1.896-4.715,3.223
		C130.246,93.963,133.659,95.711,132.313,95.889z"/>
	<path clip-path="url(#SVGID_2_)" fill="#D37FFF" d="M132.313,124.657c-10.162,1.347-10.563-4.748-20.813-4.748
		c-10.249,0-10.249,4.769-20.499,4.769s-10.25-4.769-20.499-4.769s-10.249,4.769-20.499,4.769c-10.251,0-10.251-4.769-20.501-4.769
		c-10.251,0-10.251,4.769-20.501,4.769s-10.026-3.402-20.188-4.747c-1.345-0.179-2.696,1.007-2.696-0.351
		c0-1.356,4.768-1.356,4.768-2.713s-4.768-1.356-4.768-2.713c0-1.357,4.768-1.357,4.768-2.715c0-1.356-4.768-1.356-4.768-2.714
		s4.768-1.357,4.768-2.717c0-1.357-4.043-4.9-2.697-5.078C-1.652,99.584-1.251,105.678,9,105.678
		c10.249,0,10.249-4.769,20.498-4.769c10.251,0,10.251,4.769,20.5,4.769s10.249-4.769,20.5-4.769c10.249,0,10.249,4.769,20.5,4.769
		s10.251-4.769,20.501-4.769s10.025,3.403,20.188,4.748c1.345,0.178,2.697-1.007,2.697,0.35s-4.769,1.356-4.769,2.713
		c0,1.357,4.769,1.357,4.769,2.714c0,1.358-4.769,1.358-4.769,2.715c0,1.357,4.769,1.357,4.769,2.714
		c0,1.358-5.004,1.896-4.715,3.223C130.246,122.73,133.659,124.479,132.313,124.657z"/>
</g>
</svg>
