<?xml version="1.0" encoding="utf-8"?>
<!-- Generator: Adobe Illustrator 16.0.4, SVG Export Plug-In . SVG Version: 6.00 Build 0)  -->
<!DOCTYPE svg PUBLIC "-//W3C//DTD SVG 1.1//EN" "http://www.w3.org/Graphics/SVG/1.1/DTD/svg11.dtd">
<svg version="1.1" id="Layer_1" xmlns="http://www.w3.org/2000/svg" xmlns:xlink="http://www.w3.org/1999/xlink" x="0px" y="0px"
	 width="120px" height="120px" viewBox="0 0 120 120" enable-background="new 0 0 120 120" xml:space="preserve">
<g>
	<defs>
		<circle id="SVGID_1_" cx="60" cy="60" r="60"/>
	</defs>
	<clipPath id="SVGID_2_">
		<use xlink:href="#SVGID_1_"  overflow="visible"/>
	</clipPath>
	<g clip-path="url(#SVGID_2_)">
		<rect x="-40" y="-1" fill="#B9DD8E" width="264" height="148"/>
		<path fill="#46C786" d="M116-1v22h60.368c0,0,11.994-0.346,11.994,10.546c0,10.894,13.422,10.454,13.422,10.454H224V-1H116z"/>
		<path fill="#A3D96C" d="M65.272,33h98.057c0,0,11.118-0.792,11.118-10.66c0-9.866-11.347-10.34-11.347-10.34h-26.057
			c0,0-14.84,0-14.84-13H-40v34H65.272z"/>
		<path fill="#A3D96C" d="M-40,44h51.366c0,0,11.121,26,60.801,26H91v20H-40V44z"/>
		<path fill="#13BDB1" d="M224,147H25V86h53.518c0,0,6.271,0.019,6.271-5.332c0-5.35-6.266-5.668-6.266-5.668H75.85
			c0,0-4.949-0.262-4.949-4.422c0-4.447,4.854-4.578,4.854-4.578H224V147z"/>
		<path fill="#69D19D" d="M-40,147V83h74.757c0,0,3.924,0.328,3.924,3.408s-3.751,3.564-3.751,3.564s-4.655,0.586-4.655,5.304
			c0,4.719,4.915,4.724,4.915,4.724h86.042c0,0,24.27-0.203,42.161,14.947C179.484,128.57,198,134.965,224,134.965V147H-40z"/>
		<path fill="#69D19D" d="M116,100h5.231c0,0,24.27-0.203,42.161,14.947C179.484,128.57,198,134.965,224,134.965V147H116V100z"/>
		<path fill="#69D19D" d="M224,91h-60.261c0,0-5.339,0.221-5.339-4.092S163.769,82,163.769,82h5.823c0,0,7.342,0.28,7.342-5.083
			c0-5.364-7.854-4.917-7.854-4.917H146.9c0,0-9.854,0.542-9.854-8.08c0-8.621,8.812-8.92,8.812-8.92h7.306
			c0,0,3.893,0.095,3.893-3.17c0-2.929-3.893-2.937-3.893-2.937s-6.927,0.047-6.927-5.885c0-5.932,7.451-6.007,7.451-6.007H224V91z"
			/>
		<path fill="#69D19D" d="M-40,44h93.363c0,0,11.94,0.112,11.94-11.557C65.304,20.773,53.335,21,53.335,21h-3.053
			c0,0-4.685-0.557-4.685-4.291S50.218,12,50.218,12h29.02c0,0,14.018,0,14.018-13H-40V44z"/>
		<path fill="#CCE065" d="M-39.456,78.042h32.77c0,0,3.711,0,3.711-3.563c0-3.562-3.711-3.711-3.711-3.711h-3.39
			c0,0-3.415,0-3.415-3.414c0-3.415,3.563-3.563,3.563-3.563h6.421c0,0,4.899-0.149,4.899-4.157s-4.751-4.305-4.751-4.305h-5.196
			c0,0-2.97,0-2.97-2.822c0-2.82,3.118-2.968,3.118-2.968h5.791c6.085,0,6.085-6.011,6.085-6.011h-42.926V78.042z"/>
		<path fill="#BDE695" d="M177.926,91.781c0-9.575,9.057-9.649,9.057-9.649h27.073c0,0,5.419,0.148,5.419-4.305
			c0-4.455-5.419-4.603-5.419-4.603h-22.148c0,0-8.908-0.148-8.908-8.166c0-8.016,9.057-8.165,9.057-8.165h20.016
			c0,10.632,10.392,10.677,10.392,10.677h0.931V57.514h-8.043l-1.188-2.744h3.611c0,0,2.673,0,2.673-2.228
			c0-2.58-2.673-2.524-2.673-2.524h-7.917c0,0-2.449,0.149-2.449-2.078c0-2.227,2.597-2.227,2.597-2.227h26.746l-6.547,46.068
			H177.926z"/>
	</g>
</g>
</svg>
