<?xml version="1.0" encoding="utf-8"?>
<!-- Generator: Adobe Illustrator 16.0.4, SVG Export Plug-In . SVG Version: 6.00 Build 0)  -->
<!DOCTYPE svg PUBLIC "-//W3C//DTD SVG 1.1//EN" "http://www.w3.org/Graphics/SVG/1.1/DTD/svg11.dtd">
<svg version="1.1" id="Layer_1" xmlns="http://www.w3.org/2000/svg" xmlns:xlink="http://www.w3.org/1999/xlink" x="0px" y="0px"
	 width="120px" height="120px" viewBox="0 0 120 120" enable-background="new 0 0 120 120" xml:space="preserve">
<g>
	<defs>
		<circle id="SVGID_1_" cx="60" cy="60" r="60"/>
	</defs>
	<clipPath id="SVGID_2_">
		<use xlink:href="#SVGID_1_"  overflow="visible"/>
	</clipPath>
	<g clip-path="url(#SVGID_2_)">
		<polygon fill="#64FFDA" points="-42.527,58.114 -48.21,48.271 -42.527,38.429 -31.162,38.429 -25.48,48.271 -31.162,58.114 		"/>
		<polygon fill="#4FC3F7" points="-8.839,57.882 -14.522,48.039 -8.839,38.197 2.526,38.197 8.208,48.039 2.526,57.882 		"/>
		<polygon fill="#17FFFF" points="-25.567,48.355 -31.25,38.514 -25.567,28.671 -14.202,28.671 -8.519,38.514 -14.202,48.355 		"/>
		<polygon fill="#5E97F6" points="-25.798,67.872 -31.482,58.029 -25.798,48.188 -14.434,48.188 -8.751,58.029 -14.434,67.872 		"/>
		<polygon fill="#0197A7" points="-8.607,38.366 -14.29,28.523 -8.607,18.681 2.758,18.681 8.441,28.523 2.758,38.366 		"/>
		<polygon fill="#1DE9B6" points="25.081,38.366 19.399,28.523 25.081,18.681 36.446,18.681 42.129,28.523 36.446,38.366 		"/>
		<polygon fill="#B3FF91" points="8.353,28.84 2.67,18.997 8.353,9.155 19.719,9.155 25.401,18.997 19.719,28.84 		"/>
		<polygon fill="#00E676" points="8.121,48.355 2.438,38.514 8.121,28.671 19.487,28.671 25.168,38.514 19.487,48.355 		"/>
		<polygon fill="#17FFFF" points="-25.5,87.303 -31.183,77.46 -25.5,67.618 -14.135,67.618 -8.453,77.46 -14.135,87.303 		"/>
		<polygon fill="#0197A7" points="8.188,87.071 2.505,77.229 8.188,67.387 19.553,67.387 25.235,77.229 19.553,87.071 		"/>
		<polygon fill="#303FA0" points="-8.541,77.546 -14.223,67.703 -8.541,57.861 2.825,57.861 8.508,67.703 2.825,77.546 		"/>
		<polygon fill="#2A57C6" points="-8.772,97.062 -14.455,87.218 -8.772,77.376 2.593,77.376 8.275,87.218 2.593,97.062 		"/>
		<polygon fill="#B3FF91" points="8.42,67.556 2.737,57.713 8.42,47.869 19.786,47.869 25.468,57.713 19.786,67.556 		"/>
		<polygon fill="#C6FF00" points="42.11,67.556 36.426,57.713 42.11,47.869 53.473,47.869 59.157,57.713 53.473,67.556 		"/>
		<polygon fill="#B2FF5A" points="25.38,58.029 19.698,48.188 25.38,38.345 36.747,38.345 42.428,48.188 36.747,58.029 		"/>
		<polygon fill="#4FC3F7" points="25.149,77.546 19.465,67.703 25.149,57.861 36.514,57.861 42.196,67.703 36.514,77.546 		"/>
		<polygon fill="#19237E" points="-8.474,116.493 -14.156,106.649 -8.474,96.808 2.892,96.808 8.575,106.649 2.892,116.493 		"/>
		<polygon fill="#9CCC64" points="25.215,116.261 19.532,106.417 25.215,96.575 36.581,96.575 42.262,106.417 36.581,116.261 		"/>
		<polygon fill="#64FFDA" points="8.487,106.733 2.805,96.893 8.487,87.049 19.852,87.049 25.535,96.893 19.852,106.733 		"/>
		<polygon fill="#5E97F6" points="8.254,126.251 2.572,116.407 8.254,106.565 19.62,106.565 25.302,116.407 19.62,126.251 		"/>
		<polygon fill="#B3FF91" points="25.448,96.745 19.764,86.902 25.448,77.059 36.813,77.059 42.495,86.902 36.813,96.745 		"/>
		<polygon fill="#00D44A" points="59.135,96.745 53.454,86.902 59.135,77.059 70.5,77.059 76.182,86.902 70.5,96.745 		"/>
		<polygon fill="#00E676" points="42.407,87.218 36.725,77.376 42.407,67.533 53.772,67.533 59.456,77.376 53.772,87.218 		"/>
		<polygon fill="#E6EE9C" points="42.176,106.733 36.493,96.893 42.176,87.049 53.542,87.049 59.223,96.893 53.542,106.733 		"/>
		<polygon fill="#17FFFF" points="8.553,145.682 2.872,135.838 8.553,125.997 19.918,125.997 25.602,135.838 19.918,145.682 		"/>
		<polygon fill="#0197A7" points="42.243,145.45 36.559,135.606 42.243,125.765 53.608,125.765 59.29,135.606 53.608,145.45 		"/>
		<polygon fill="#F0F4C3" points="25.514,135.924 19.832,126.081 25.514,116.238 36.879,116.238 42.563,126.081 36.879,135.924 		
			"/>
		<polygon fill="#2A57C6" points="25.282,155.439 19.598,145.597 25.282,135.754 36.647,135.754 42.331,145.597 36.647,155.439 		
			"/>
		<polygon fill="#64FFDA" points="42.475,125.934 36.792,116.091 42.475,106.249 53.84,106.249 59.522,116.091 53.84,125.934 		"/>
		<polygon fill="#00796B" points="76.162,125.934 70.479,116.091 76.162,106.249 87.527,106.249 93.209,116.091 87.527,125.934 		
			"/>
		<polygon fill="#17FFFF" points="59.434,116.407 53.752,106.565 59.434,96.723 70.799,96.723 76.482,106.565 70.799,116.407 		"/>
		<polygon fill="#4FC3F7" points="59.202,135.924 53.52,126.081 59.202,116.238 70.566,116.238 76.25,126.081 70.566,135.924 		"/>
	</g>
	<g clip-path="url(#SVGID_2_)">
		<polygon fill="#64FFDA" points="24.77,18.789 19.086,8.948 24.77,-0.896 36.135,-0.896 41.819,8.948 36.135,18.789 		"/>
		<polygon fill="#4FC3F7" points="58.458,18.557 52.776,8.715 58.458,-1.127 69.822,-1.127 75.506,8.715 69.822,18.557 		"/>
		<polygon fill="#17FFFF" points="41.731,9.032 36.047,-0.812 41.731,-10.653 53.096,-10.653 58.778,-0.812 53.096,9.032 		"/>
		<polygon fill="#5E97F6" points="41.499,28.548 35.815,18.705 41.499,8.863 52.864,8.863 58.545,18.705 52.864,28.548 		"/>
		<polygon fill="#0197A7" points="58.69,-0.959 53.008,-10.801 58.69,-20.644 70.055,-20.644 75.738,-10.801 70.055,-0.959 		"/>
		<polygon fill="#1DE9B6" points="92.379,-0.959 86.695,-10.801 92.379,-20.644 103.744,-20.644 109.426,-10.801 103.744,-0.959 		
			"/>
		<polygon fill="#B3FF91" points="75.65,-10.483 69.967,-20.326 75.65,-30.17 87.016,-30.17 92.697,-20.326 87.016,-10.483 		"/>
		<polygon fill="#00E676" points="75.418,9.032 69.734,-0.812 75.418,-10.653 86.783,-10.653 92.465,-0.812 86.783,9.032 		"/>
		<polygon fill="#17FFFF" points="41.797,47.979 36.114,38.137 41.797,28.294 53.163,28.294 58.844,38.137 53.163,47.979 		"/>
		<polygon fill="#0197A7" points="75.484,47.747 69.803,37.904 75.484,28.062 86.85,28.062 92.533,37.904 86.85,47.747 		"/>
		<polygon fill="#1DE9B6" points="58.756,38.222 53.075,28.378 58.756,18.536 70.123,18.536 75.805,28.378 70.123,38.222 		"/>
		<polygon fill="#2A57C6" points="58.524,57.737 52.842,47.894 58.524,38.052 69.891,38.052 75.572,47.894 69.891,57.737 		"/>
		<polygon fill="#B3FF91" points="75.717,28.231 70.035,18.389 75.717,8.546 87.082,8.546 92.766,18.389 87.082,28.231 		"/>
		<polygon fill="#C6FF00" points="109.404,28.231 103.723,18.389 109.404,8.546 120.77,8.546 126.453,18.389 120.77,28.231 		"/>
		<polygon fill="#B2FF5A" points="92.678,18.705 86.994,8.863 92.678,-0.979 104.043,-0.979 109.725,8.863 104.043,18.705 		"/>
		<polygon fill="#4FC3F7" points="92.445,38.222 86.762,28.378 92.445,18.536 103.811,18.536 109.492,28.378 103.811,38.222 		"/>
		<polygon fill="#88F05B" points="58.823,77.168 53.141,67.326 58.823,57.482 70.188,57.482 75.871,67.326 70.188,77.168 		"/>
		<polygon fill="#9CCC64" points="92.512,76.936 86.828,67.093 92.512,57.251 103.877,57.251 109.561,67.093 103.877,76.936 		"/>
		<polygon fill="#64FFDA" points="75.783,67.41 70.102,57.568 75.783,47.725 87.148,47.725 92.832,57.568 87.148,67.41 		"/>
		<polygon fill="#5E97F6" points="75.551,86.926 69.869,77.083 75.551,67.241 86.916,67.241 92.6,77.083 86.916,86.926 		"/>
		<polygon fill="#B3FF91" points="92.744,57.42 87.061,47.577 92.744,37.734 104.109,37.734 109.793,47.577 104.109,57.42 		"/>
		<polygon fill="#00D44A" points="126.432,57.42 120.75,47.577 126.432,37.734 137.797,37.734 143.48,47.577 137.797,57.42 		"/>
		<polygon fill="#00E676" points="109.705,47.894 104.021,38.052 109.705,28.208 121.07,28.208 126.752,38.052 121.07,47.894 		"/>
		<polygon fill="#E6EE9C" points="109.473,67.41 103.789,57.568 109.473,47.725 120.838,47.725 126.52,57.568 120.838,67.41 		"/>
		<polygon fill="#17FFFF" points="75.852,106.357 70.168,96.515 75.852,86.673 87.215,86.673 92.898,96.515 87.215,106.357 		"/>
		<polygon fill="#0197A7" points="109.539,106.126 103.855,96.282 109.539,86.44 120.904,86.44 126.588,96.282 120.904,106.126 		
			"/>
		<polygon fill="#F0F4C3" points="92.811,96.601 87.129,86.758 92.811,76.913 104.176,76.913 109.859,86.758 104.176,96.601 		"/>
		<polygon fill="#2A57C6" points="92.578,116.114 86.896,106.272 92.578,96.431 103.943,96.431 109.627,106.272 103.943,116.114 		
			"/>
		<polygon fill="#64FFDA" points="109.771,86.61 104.088,76.766 109.771,66.924 121.137,66.924 126.818,76.766 121.137,86.61 		"/>
		<polygon fill="#00796B" points="143.459,86.61 137.777,76.766 143.459,66.924 154.824,66.924 160.508,76.766 154.824,86.61 		"/>
		<polygon fill="#17FFFF" points="126.73,77.083 121.049,67.241 126.73,57.397 138.096,57.397 143.779,67.241 138.096,77.083 		"/>
		<polygon fill="#4FC3F7" points="126.5,96.601 120.816,86.758 126.5,76.913 137.865,76.913 143.547,86.758 137.865,96.601 		"/>
	</g>
</g>
</svg>
